<svg xmlns="http://www.w3.org/2000/svg" width="146" height="142.35" viewBox="0 0 146 142.35">
  <g id="Grupo_841198" data-name="Grupo 841198" transform="translate(-160 -83)">
    <path id="Trazado_562646" data-name="Trazado 562646" d="M185.854,83h94.292A25.832,25.832,0,0,1,306,108.854V199.5a25.832,25.832,0,0,1-25.854,25.854H185.854A25.832,25.832,0,0,1,160,199.5V108.854A25.832,25.832,0,0,1,185.854,83Z" fill="#001e36"/>
    <g id="Grupo_841197" data-name="Grupo 841197" transform="translate(197.101 119.491)">
      <path id="Trazado_562647" data-name="Trazado 562647" d="M260.537,207.112H221.968c-.669,0-.973-.365-.973-1.1V143.846a.757.757,0,0,1,.669-.852h12.167a.57.57,0,0,1,.669.487v51.282h28.105c.608,0,.791.3.669.852L261.51,206.2a1.06,1.06,0,0,1-.365.73,1.028,1.028,0,0,1-.608.182Z" transform="translate(-220.987 -142.985)" fill="#31a8ff"/>
      <path id="Trazado_562648" data-name="Trazado 562648" d="M301.562,167.768h10.646a1.37,1.37,0,0,1,1.277.973,3.838,3.838,0,0,1,.487,1.4c.122.608.243,1.278.3,1.886.061.669.122,1.4.122,2.19a22.641,22.641,0,0,1,6.509-5.232,18.161,18.161,0,0,1,9.064-2.19.757.757,0,0,1,.852.669V179.57c0,.487-.3.669-.973.669a24.8,24.8,0,0,0-11.5,2.068,10.2,10.2,0,0,0-3.285,2.251v31.025c0,.608-.243.852-.791.852H302.413a.842.842,0,0,1-.973-.73V181.76c0-1.46,0-2.981-.061-4.562s-.061-3.163-.122-4.745q-.091-2.007-.365-4.015a.56.56,0,0,1,.426-.669c.061-.061.122-.061.243,0Z" transform="translate(-252.279 -152.307)" fill="#31a8ff"/>
    </g>
  </g>
</svg>
