<svg id="Grupo_841440" data-name="Grupo 841440" xmlns="http://www.w3.org/2000/svg" xmlns:xlink="http://www.w3.org/1999/xlink" width="423.965" height="368" viewBox="0 0 423.965 368">
  <defs>
    <clipPath id="clip-path">
      <rect id="Rectángulo_279057" data-name="Rectángulo 279057" width="423.965" height="368" fill="none"/>
    </clipPath>
    <clipPath id="clip-path-3">
      <rect id="Rectángulo_279032" data-name="Rectángulo 279032" width="409.015" height="253.313" fill="none"/>
    </clipPath>
    <clipPath id="clip-path-4">
      <rect id="Rectángulo_279029" data-name="Rectángulo 279029" width="405.827" height="217.509" fill="none"/>
    </clipPath>
    <clipPath id="clip-path-5">
      <rect id="Rectángulo_279030" data-name="Rectángulo 279030" width="11.282" height="12.142" fill="none"/>
    </clipPath>
    <clipPath id="clip-path-6">
      <rect id="Rectángulo_279031" data-name="Rectángulo 279031" width="14.85" height="14.85" fill="none"/>
    </clipPath>
    <clipPath id="clip-path-7">
      <rect id="Rectángulo_279033" data-name="Rectángulo 279033" width="397.558" height="239.919" fill="none"/>
    </clipPath>
    <clipPath id="clip-path-8">
      <rect id="Rectángulo_279037" data-name="Rectángulo 279037" width="5.209" height="2.051" fill="none"/>
    </clipPath>
    <clipPath id="clip-path-9">
      <rect id="Rectángulo_279054" data-name="Rectángulo 279054" width="68.81" height="3.821" fill="none"/>
    </clipPath>
  </defs>
  <g id="Grupo_841439" data-name="Grupo 841439" clip-path="url(#clip-path)">
    <g id="Grupo_841438" data-name="Grupo 841438">
      <g id="Grupo_841437" data-name="Grupo 841437" clip-path="url(#clip-path)">
        <g id="Grupo_841427" data-name="Grupo 841427" transform="translate(14.949 5.651)" opacity="0.8">
          <g id="Grupo_841426" data-name="Grupo 841426">
            <g id="Grupo_841425" data-name="Grupo 841425" clip-path="url(#clip-path-3)">
              <g id="Grupo_841418" data-name="Grupo 841418" transform="translate(0 35.804)" opacity="0.5">
                <g id="Grupo_841417" data-name="Grupo 841417" transform="translate(0 0)">
                  <g id="Grupo_841416" data-name="Grupo 841416" clip-path="url(#clip-path-4)">
                    <path id="Trazado_562816" data-name="Trazado 562816" d="M236.011,111.058A109.518,109.518,0,0,1,186.095,89.9c-22.047-16.642-68.186-44.96-112.2-30.854-60.709,19.455-60.98,75.737-45.167,106.31s127.949,120.1,273.325,105.857c130.09-12.747,155.441-158.665,86.059-185.069-60.176-22.9-80.706,35.45-152.1,24.909" transform="translate(-19.918 -55.233)" fill="#ced3e6"/>
                  </g>
                </g>
              </g>
              <g id="Grupo_841421" data-name="Grupo 841421" transform="translate(397.733 63.961)" opacity="0.5">
                <g id="Grupo_841420" data-name="Grupo 841420">
                  <g id="Grupo_841419" data-name="Grupo 841419" clip-path="url(#clip-path-5)">
                    <path id="Trazado_562817" data-name="Trazado 562817" d="M561.122,98.819a5.656,5.656,0,1,1-5.641-6.071,5.868,5.868,0,0,1,5.641,6.071" transform="translate(-549.839 -92.748)" fill="#ced3e6"/>
                  </g>
                </g>
              </g>
              <path id="Trazado_562818" data-name="Trazado 562818" d="M65.668,47.53a3.657,3.657,0,0,1,4.091,2.291c1.039,2.817-1.682,5.972-5.345,4.557-3.161-2.34-1.785-6.289,1.254-6.848" transform="translate(-30.569 -17.492)" fill="#ced3e6"/>
              <path id="Trazado_562819" data-name="Trazado 562819" d="M541.743,26.091a7.348,7.348,0,1,1-7.348-7.348,7.348,7.348,0,0,1,7.348,7.348" transform="translate(-146.42 -10.326)" fill="#ced3e6"/>
              <g id="Grupo_841424" data-name="Grupo 841424" transform="translate(42.801 18.822)" opacity="0.8">
                <g id="Grupo_841423" data-name="Grupo 841423">
                  <g id="Grupo_841422" data-name="Grupo 841422" clip-path="url(#clip-path-6)">
                    <path id="Trazado_562820" data-name="Trazado 562820" d="M91.517,38.028a7.423,7.423,0,1,1-9.151-5.143,7.423,7.423,0,0,1,9.151,5.143" transform="translate(-76.944 -32.606)" fill="#ced3e6"/>
                  </g>
                </g>
              </g>
              <path id="Trazado_562821" data-name="Trazado 562821" d="M486.87,334.395a3.658,3.658,0,0,1,4.446,1.49c1.545,2.574-.543,6.181-4.4,5.472-3.54-1.712-2.923-5.848-.041-6.962" transform="translate(-135.801 -89.003)" fill="#ced3e6"/>
              <path id="Trazado_562822" data-name="Trazado 562822" d="M510.711,320a7.423,7.423,0,1,1-9.949-3.351A7.424,7.424,0,0,1,510.711,320" transform="translate(-138.834 -84.445)" fill="#ced3e6"/>
              <path id="Trazado_562823" data-name="Trazado 562823" d="M521.41,12.05a4.52,4.52,0,1,1-4.521-4.521,4.52,4.52,0,0,1,4.521,4.521" transform="translate(-142.759 -7.529)" fill="#ced3e6"/>
            </g>
          </g>
        </g>
        <g id="Grupo_841430" data-name="Grupo 841430" transform="translate(8.083 4.554)" opacity="0.8">
          <g id="Grupo_841429" data-name="Grupo 841429">
            <g id="Grupo_841428" data-name="Grupo 841428" clip-path="url(#clip-path-7)">
              <path id="Trazado_562824" data-name="Trazado 562824" d="M408.327,93.575C408.321,53.192,374.7,8.942,332.85,6.268q-1.1-.07-2.227-.122c-59.992-2.8-64.563,70.374-118.842,78.626S116.052,51.364,51.1,78.545c-58.331,24.412-74.13,161.588,97.257,167.089,137.125,4.4,259.984-31.575,259.966-152.059" transform="translate(-10.769 -6.068)" fill="#ced3e6"/>
            </g>
          </g>
        </g>
        <path id="Trazado_562825" data-name="Trazado 562825" d="M410.6,365.769c0,3.929-61.746,7.115-137.914,7.115s-137.913-3.185-137.913-7.115,61.746-7.114,137.913-7.114S410.6,361.84,410.6,365.769" transform="translate(-33.619 -89.466)" fill="#ced3e6"/>
        <path id="Trazado_562826" data-name="Trazado 562826" d="M377.2,361.478H194.186v-7.926a11.95,11.95,0,0,1,11.951-11.95H365.252a11.95,11.95,0,0,1,11.951,11.95Z" transform="translate(-48.439 -85.212)" fill="#fff"/>
        <rect id="Rectángulo_279034" data-name="Rectángulo 279034" width="66.341" height="42.589" transform="translate(203.568 213.801)" fill="#fff"/>
        <path id="Trazado_562827" data-name="Trazado 562827" d="M271.225,297.935l66.34-5.312.01-7.766-66.341.079Z" transform="translate(-67.657 -71.057)" fill="#ced3e6"/>
        <path id="Trazado_562828" data-name="Trazado 562828" d="M408.251,47.59V214.608a8.864,8.864,0,0,1-8.864,8.863H127.4a8.864,8.864,0,0,1-8.864-8.863V47.59a8.864,8.864,0,0,1,8.864-8.864H399.387c.133,0,.263,0,.393.009.1,0,.193.009.287.018h.011c.068,0,.137.011.206.02.115.009.227.025.342.04.075.009.148.02.223.035.036,0,.071.011.107.018.073.011.143.024.216.042a8.866,8.866,0,0,1,7.078,8.682" transform="translate(-29.569 -9.66)" fill="#fff"/>
        <path id="Trazado_562829" data-name="Trazado 562829" d="M319.464,266.853a6.127,6.127,0,1,1-6.128-6.128,6.127,6.127,0,0,1,6.128,6.128" transform="translate(-76.633 -65.038)" fill="#ced3e6"/>
        <path id="Trazado_562830" data-name="Trazado 562830" d="M401.173,38.908c-.073-.018-.144-.031-.217-.042-.035-.007-.071-.014-.106-.018-.075-.015-.148-.026-.223-.035-.116-.015-.228-.031-.343-.04-.068-.009-.137-.015-.206-.02h-.011c-.1-.009-.191-.014-.287-.018-.131-.007-.261-.008-.393-.008H127.4a8.864,8.864,0,0,0-8.864,8.863V202.257H408.251V47.59a8.866,8.866,0,0,0-7.078-8.682m-4.413,147.9a2.41,2.41,0,0,1-2.411,2.411H132.439a2.41,2.41,0,0,1-2.412-2.411V52.629a2.41,2.41,0,0,1,2.412-2.411H394.349a2.41,2.41,0,0,1,2.411,2.411Z" transform="translate(-29.569 -9.66)" fill="#39393b"/>
        <path id="Trazado_562831" data-name="Trazado 562831" d="M400.579,56.448V190.627a2.41,2.41,0,0,1-2.411,2.411H136.259a2.41,2.41,0,0,1-2.412-2.411V56.448a2.41,2.41,0,0,1,2.412-2.411H398.168a2.41,2.41,0,0,1,2.411,2.411" transform="translate(-33.388 -13.479)" fill="#ced3e6"/>
        <path id="Trazado_562832" data-name="Trazado 562832" d="M400.579,56.448V69.11H133.847V56.448a2.41,2.41,0,0,1,2.412-2.411H398.168a2.41,2.41,0,0,1,2.411,2.411" transform="translate(-33.388 -13.479)" fill="#fff"/>
        <path id="Trazado_562833" data-name="Trazado 562833" d="M460.341,63.128a2.048,2.048,0,1,1-2.048-2.048,2.048,2.048,0,0,1,2.048,2.048" transform="translate(-113.809 -15.236)" fill="#df615c"/>
        <path id="Trazado_562834" data-name="Trazado 562834" d="M469.185,63.128a2.048,2.048,0,1,1-2.048-2.048,2.048,2.048,0,0,1,2.048,2.048" transform="translate(-116.016 -15.236)" fill="#21b573"/>
        <path id="Trazado_562835" data-name="Trazado 562835" d="M375.248,65.256H166.707a1.832,1.832,0,0,1-1.827-1.828v-.679a1.832,1.832,0,0,1,1.827-1.827H375.248a1.832,1.832,0,0,1,1.827,1.827v.679a1.832,1.832,0,0,1-1.827,1.828" transform="translate(-41.129 -15.197)" fill="#d2dcec"/>
        <path id="Trazado_562836" data-name="Trazado 562836" d="M145.28,63.02v2.005a.368.368,0,0,1-.552.319l-1.737-1-1.738-1a.367.367,0,0,1,0-.636l1.738-1,1.737-1a.368.368,0,0,1,.552.319Z" transform="translate(-35.19 -15.128)"/>
        <path id="Trazado_562837" data-name="Trazado 562837" d="M150.745,63.02v2.005a.368.368,0,0,0,.552.319l1.737-1,1.738-1a.367.367,0,0,0,0-.636l-1.738-1-1.737-1a.368.368,0,0,0-.552.319Z" transform="translate(-37.603 -15.128)"/>
        <path id="Trazado_562838" data-name="Trazado 562838" d="M474.157,64.865l-.123-.122a.491.491,0,0,1,0-.7l2.782-2.782a.491.491,0,0,1,.7,0l.123.123a.491.491,0,0,1,0,.7l-2.782,2.782a.49.49,0,0,1-.7,0" transform="translate(-118.211 -15.247)" fill="#39393b"/>
        <path id="Trazado_562839" data-name="Trazado 562839" d="M477.51,64.865l.123-.122a.491.491,0,0,0,0-.7l-2.782-2.782a.491.491,0,0,0-.7,0l-.123.123a.491.491,0,0,0,0,.7l2.782,2.782a.49.49,0,0,0,.7,0" transform="translate(-118.211 -15.247)" fill="#39393b"/>
        <path id="Trazado_562840" data-name="Trazado 562840" d="M374.914,193.664H178.839a4.82,4.82,0,0,1-4.819-4.82V83.013a4.82,4.82,0,0,1,4.819-4.821H374.914a4.82,4.82,0,0,1,4.82,4.821V188.844a4.82,4.82,0,0,1-4.82,4.82" transform="translate(-43.409 -19.505)" fill="#fff"/>
        <path id="Trazado_562841" data-name="Trazado 562841" d="M233.05,181.751H185.43a2.262,2.262,0,0,1-2.262-2.262V154.741a2.262,2.262,0,0,1,2.262-2.262h47.62a2.262,2.262,0,0,1,2.262,2.262v24.748a2.262,2.262,0,0,1-2.262,2.262" transform="translate(-45.691 -38.036)" fill="#ced3e6"/>
        <path id="Trazado_562842" data-name="Trazado 562842" d="M418.03,116.625H370.41a2.262,2.262,0,0,1-2.262-2.262V89.615a2.262,2.262,0,0,1,2.262-2.262h47.62a2.262,2.262,0,0,1,2.262,2.262v24.748a2.262,2.262,0,0,1-2.262,2.262" transform="translate(-91.834 -21.79)" fill="#ced3e6"/>
        <path id="Trazado_562843" data-name="Trazado 562843" d="M234.089,122.984H184.263a1.2,1.2,0,0,1-1.2-1.2v-.11a1.2,1.2,0,0,1,1.2-1.2h49.826a1.2,1.2,0,0,1,1.2,1.2v.11a1.2,1.2,0,0,1-1.2,1.2" transform="translate(-45.665 -30.053)" fill="#ced3e6"/>
        <path id="Trazado_562844" data-name="Trazado 562844" d="M234.089,108.859H184.263a1.2,1.2,0,0,1-1.2-1.2v-.11a1.2,1.2,0,0,1,1.2-1.2h49.826a1.2,1.2,0,0,1,1.2,1.2v.11a1.2,1.2,0,0,1-1.2,1.2" transform="translate(-45.665 -26.53)" fill="#ced3e6"/>
        <path id="Trazado_562845" data-name="Trazado 562845" d="M234.089,137.109H184.263a1.2,1.2,0,0,1-1.2-1.2v-.11a1.2,1.2,0,0,1,1.2-1.2h49.826a1.2,1.2,0,0,1,1.2,1.2v.11a1.2,1.2,0,0,1-1.2,1.2" transform="translate(-45.665 -33.576)" fill="#ced3e6"/>
        <path id="Trazado_562846" data-name="Trazado 562846" d="M419.095,156.078H369.346a1.2,1.2,0,0,1-1.2-1.2v-.11a1.2,1.2,0,0,1,1.2-1.2h49.749a1.2,1.2,0,0,1,1.2,1.2v.11a1.2,1.2,0,0,1-1.2,1.2" transform="translate(-91.834 -38.308)" fill="#ced3e6"/>
        <path id="Trazado_562847" data-name="Trazado 562847" d="M419.095,141.953H369.346a1.2,1.2,0,0,1-1.2-1.2v-.11a1.2,1.2,0,0,1,1.2-1.2h49.749a1.2,1.2,0,0,1,1.2,1.2v.11a1.2,1.2,0,0,1-1.2,1.2" transform="translate(-91.834 -34.785)" fill="#ced3e6"/>
        <path id="Trazado_562848" data-name="Trazado 562848" d="M419.095,170.2H369.346a1.2,1.2,0,0,1-1.2-1.2v-.11a1.2,1.2,0,0,1,1.2-1.2h49.749a1.2,1.2,0,0,1,1.2,1.2V169a1.2,1.2,0,0,1-1.2,1.2" transform="translate(-91.834 -41.831)" fill="#ced3e6"/>
        <path id="Trazado_562849" data-name="Trazado 562849" d="M174.019,208.149H379.734v16.866a1.068,1.068,0,0,1-1.068,1.067H175.088a1.068,1.068,0,0,1-1.069-1.067Z" transform="translate(-43.409 -51.922)" fill="#39393b"/>
        <path id="Trazado_562850" data-name="Trazado 562850" d="M428,216.051V214.53h1.9v-1.352h-2.579a.676.676,0,0,0-.676.676v2.2Z" transform="translate(-106.427 -53.177)" fill="#fff"/>
        <path id="Trazado_562851" data-name="Trazado 562851" d="M428,220.611h-1.353v2.312a.676.676,0,0,0,.676.676h2.579v-1.353H428Z" transform="translate(-106.427 -55.031)" fill="#fff"/>
        <path id="Trazado_562852" data-name="Trazado 562852" d="M435.664,216.051h1.352v-2.2a.676.676,0,0,0-.676-.676h-2.48v1.352h1.8Z" transform="translate(-108.226 -53.177)" fill="#fff"/>
        <path id="Trazado_562853" data-name="Trazado 562853" d="M435.664,220.611v1.636h-1.8V223.6h2.48a.676.676,0,0,0,.676-.676v-2.312Z" transform="translate(-108.226 -55.031)" fill="#fff"/>
        <rect id="Rectángulo_279035" data-name="Rectángulo 279035" width="205.715" height="3.372" transform="translate(130.611 152.856)" fill="#ced3e6"/>
        <path id="Trazado_562854" data-name="Trazado 562854" d="M193.931,82.883h2.321v5.084h3.107v1.8h-5.428Z" transform="translate(-48.376 -20.675)" fill="#39393b"/>
        <rect id="Rectángulo_279036" data-name="Rectángulo 279036" width="2.321" height="6.884" transform="translate(151.622 62.208)" fill="#39393b"/>
        <path id="Trazado_562855" data-name="Trazado 562855" d="M213.707,82.883,210.8,89.767h-2.282L205.6,82.883h2.5l1.642,4.022,1.681-4.022Z" transform="translate(-51.288 -20.675)" fill="#39393b"/>
        <path id="Trazado_562856" data-name="Trazado 562856" d="M222.423,88.017v1.75H216.7V82.883h5.6v1.751h-3.314v.806h2.911v1.671h-2.911v.905Z" transform="translate(-54.055 -20.675)" fill="#39393b"/>
        <path id="Trazado_562857" data-name="Trazado 562857" d="M186.959,86.454a2.83,2.83,0,1,1-2.83-2.83,2.83,2.83,0,0,1,2.83,2.83" transform="translate(-45.224 -20.86)" fill="#df615c"/>
        <path id="Trazado_562858" data-name="Trazado 562858" d="M410.738,187.6a2.486,2.486,0,1,1-2.486-2.486,2.486,2.486,0,0,1,2.486,2.486" transform="translate(-101.218 -46.176)" fill="#df615c"/>
        <path id="Trazado_562859" data-name="Trazado 562859" d="M412.181,195.825h-9.3a4.81,4.81,0,0,1,4.578-2.953l.071,0,.071,0a4.809,4.809,0,0,1,4.577,2.953" transform="translate(-100.499 -48.112)" fill="#df615c"/>
        <path id="Trazado_562860" data-name="Trazado 562860" d="M424.553,186.42v1.559l-2.505,5.968h-2.774l2.387-5.559h-1.452v1.1h-2.1V186.42Z" transform="translate(-104.297 -46.502)" fill="#39393b"/>
        <path id="Trazado_562861" data-name="Trazado 562861" d="M433.338,191.922v1.968h-6.033v-1.56l2.721-2.516c.516-.484.591-.775.591-1.033,0-.366-.247-.591-.731-.591a1.231,1.231,0,0,0-1.108.7l-1.914-.957a3.452,3.452,0,0,1,3.258-1.742c1.785,0,3.043.925,3.043,2.354a2.964,2.964,0,0,1-1.29,2.4l-1.076.979Z" transform="translate(-106.481 -46.445)" fill="#39393b"/>
        <path id="Trazado_562862" data-name="Trazado 562862" d="M385.426,108.706s1.852,5.962,6.5,6.428c3.753.375,6.687-3.588,7.678-5.126.237-.369.362-.6.362-.6a6.163,6.163,0,0,0,.677-.072c.944-.144,2.6-.573,3.1-1.828.708-1.789-2.866-2.445-2.866-2.445s1.533-1.809.936-2.885c-.588-1.058-2.97-.964-2.97-.964s2.3-1.995,1.253-3.31c-1.574-1.975-3.861.759-4.051.919.139-.212,6.036-9.175,4.157-9.534-1.64-.314-7.062,6.92-8.511,8.9-.23.314-.359.5-.359.5s-.113-.063-.308-.157c-.926-.448-3.736-1.6-5.2.012-1.769,1.95-.394,10.16-.394,10.16" transform="translate(-96.017 -22.272)" fill="#ea9b7a"/>
        <path id="Trazado_562863" data-name="Trazado 562863" d="M399.711,110.487a3.81,3.81,0,0,0-1.426,1.923,1.126,1.126,0,0,0,.29,1.069,2.146,2.146,0,0,0,.852.459,11.78,11.78,0,0,0,3.007.4c.238-.369.362-.6.362-.6a6.03,6.03,0,0,0,.678-.071.354.354,0,0,0-.2-.05c-1.341.03-3.667-.116-4.194-.647a.416.416,0,0,1-.095-.414,4.32,4.32,0,0,1,2.376-2.225.359.359,0,0,0-.188-.689c-.88.139-3.326.326-4.093-.444-.111-.112-.1-.183-.088-.221a1.211,1.211,0,0,1,.471-.569,8.874,8.874,0,0,1,2-1.088.347.347,0,0,0,.168-.137.351.351,0,0,0,.037-.329.361.361,0,0,0-.468-.2,9.772,9.772,0,0,0-2.017,1.066,3.046,3.046,0,0,0-.683.657,1.236,1.236,0,0,0-.218.458.937.937,0,0,0,.284.877,4.573,4.573,0,0,0,3.137.781" transform="translate(-98.849 -26.597)" fill="#d46a43"/>
        <path id="Trazado_562864" data-name="Trazado 562864" d="M395.914,104.766a.353.353,0,0,1,.085.394,2.321,2.321,0,0,0-.233,1.136.415.415,0,0,0,.232.356,1.433,1.433,0,0,0,.627.08,10.637,10.637,0,0,0,2.448-.531.354.354,0,0,1-.168.137,8.842,8.842,0,0,0-2,1.088c-.086.009-.17.014-.252.017a2.758,2.758,0,0,1-.709-.053,1.273,1.273,0,0,1-.247-.086,1.121,1.121,0,0,1-.639-.9,3,3,0,0,1,.281-1.527.352.352,0,0,1,.57-.117l.009.008" transform="translate(-98.541 -26.107)" fill="#d46a43"/>
        <path id="Trazado_562865" data-name="Trazado 562865" d="M387.575,105.094a11.773,11.773,0,0,0,2.561,1.246,4.049,4.049,0,0,0,2.133.206,1.8,1.8,0,0,0,1.189-.91c.919-1.677-.326-3.525-1.151-4.478-.23.314-.359.5-.359.5s-.112-.063-.307-.157c.7.781,1.931,2.435,1.185,3.792a1.079,1.079,0,0,1-.73.558c-1.239.308-3.4-.871-4.124-1.352a.36.36,0,1,0-.4.6" transform="translate(-96.64 -25.234)" fill="#d46a43"/>
        <path id="Trazado_562866" data-name="Trazado 562866" d="M392.115,116.547a.36.36,0,0,0,.38-.583,3.239,3.239,0,0,1-.916-2.6c.274-2.368,3.109-4.375,3.138-4.4a.36.36,0,0,0-.412-.591c-.128.089-3.131,2.217-3.442,4.9a3.932,3.932,0,0,0,1.1,3.159.36.36,0,0,0,.157.1" transform="translate(-97.493 -27.02)" fill="#d46a43"/>
        <path id="Trazado_562867" data-name="Trazado 562867" d="M327.131,79.909l3.655,9.25q.822,2.323,1.667,4.628c.556,1.539,1.115,3.074,1.686,4.6s1.141,3.036,1.721,4.533,1.176,2.971,1.779,4.4,1.208,2.839,1.816,4.088c.3.62.6,1.2.86,1.656l.173.3.071.12a.219.219,0,0,1,.021.053.7.7,0,0,1,.038.131c.011.063-.012.1.014.153s.11.137.3.222a5.7,5.7,0,0,0,2.246.246,18.135,18.135,0,0,0,3.555-.582,39.027,39.027,0,0,0,4-1.274,73.339,73.339,0,0,0,8.294-3.817c2.769-1.46,4.8-2.641,7.495-4.326a12.056,12.056,0,0,0,7.779,8.758,97.438,97.438,0,0,1-8.259,6.713,75.742,75.742,0,0,1-9.3,5.826A48.3,48.3,0,0,1,351.413,128a33.9,33.9,0,0,1-6.2,1.729,23.741,23.741,0,0,1-3.637.351,20.121,20.121,0,0,1-4.105-.348,17.357,17.357,0,0,1-4.406-1.473,16.717,16.717,0,0,1-4.029-2.793,17.6,17.6,0,0,1-1.627-1.745l-.354-.45-.291-.393c-.1-.135-.18-.251-.27-.378s-.179-.252-.254-.368c-.647-.955-1.176-1.827-1.672-2.679-.981-1.7-1.819-3.308-2.625-4.915s-1.536-3.2-2.261-4.787-1.422-3.169-2.09-4.756-1.33-3.17-1.972-4.756-1.257-3.178-1.872-4.769-1.2-3.188-1.783-4.79L311.1,88.27l-.419-1.212c-.142-.411-.275-.8-.42-1.241Z" transform="translate(-77.395 -19.933)" fill="#21b573"/>
        <path id="Trazado_562868" data-name="Trazado 562868" d="M345.843,129.677a.461.461,0,0,0,.369-.185,19.945,19.945,0,0,1,3.313-3.453.461.461,0,0,0-.537-.751,20.466,20.466,0,0,0-3.514,3.651.461.461,0,0,0,.368.738" transform="translate(-86.155 -31.232)" fill="#217c58"/>
        <path id="Trazado_562869" data-name="Trazado 562869" d="M349.954,130.246a.462.462,0,0,0,.451-.561,8.459,8.459,0,0,1-.007-3.464.461.461,0,0,0-.887-.254,9.263,9.263,0,0,0-.007,3.917.461.461,0,0,0,.45.361" transform="translate(-87.129 -31.339)" fill="#217c58"/>
        <path id="Trazado_562870" data-name="Trazado 562870" d="M328.46,186.462c-8.539,4.917-29.187,7.449-42.655,2.1-4.942-1.962-5.807-3.168-5.433-12.039q.02-.5.046-.989c.037-.7.083-1.395.132-2.086.025-.334.052-.668.078-1,.1-1.238.221-2.452.351-3.618.036-.323.073-.639.109-.955a54.03,54.03,0,0,1,1.254-6.737c.082-.326.164-.636.242-.925.477-1.771.865-2.834.865-2.834a56.28,56.28,0,0,0,6.657.645c.319.014.636.025.955.032,11.648.308,23.5-2.33,28.993-3.758.332-.086.639-.168.922-.244,1.428-.384,2.233-.633,2.233-.633s.5.881,1.212,2.336c.13.269.267.557.408.863a48.331,48.331,0,0,1,3.357,9.515c.011.044.021.09.031.134.068.313.137.628.2.945.013.063.026.126.04.191.557,2.636,1.065,5.4,1.41,8.045h0c.046.34.086.678.126,1.012.674,5.8.775,8.669-1.536,10" transform="translate(-69.919 -38.271)" fill="#39393b"/>
        <path id="Trazado_562871" data-name="Trazado 562871" d="M341.674,167.615c-.021-.01-.042-.021-.063-.032a13.446,13.446,0,0,1-4.581-4.275q-.266-.387-.523-.8h0a29.363,29.363,0,0,1-3.239-8c.332-.086.639-.168.922-.245a28.114,28.114,0,0,0,3.182,7.82c.17.277.349.544.531.8a12.745,12.745,0,0,0,3.5,3.46c.011.044.021.09.031.134.068.313.137.628.2.945.013.063.026.126.04.191" transform="translate(-83.133 -38.481)" fill="#585859"/>
        <path id="Trazado_562872" data-name="Trazado 562872" d="M291.145,159.586a26.635,26.635,0,0,1-2.223,8.482c-.146.3-.3.6-.456.881a12.855,12.855,0,0,1-3.3,3.978,10.286,10.286,0,0,1-4.527,2.05c.026-.334.052-.668.079-1a9.338,9.338,0,0,0,3.878-1.817,11.782,11.782,0,0,0,2.887-3.4c.164-.283.323-.575.471-.877a25.245,25.245,0,0,0,2.241-8.33c.318.014.635.025.954.032" transform="translate(-70.004 -39.8)" fill="#585859"/>
        <path id="Trazado_562873" data-name="Trazado 562873" d="M325.508,157.4c-.658.29-1.367.592-2.123.9q-.438.178-.9.356a63.82,63.82,0,0,1-16.368,4.121c-.239.023-.477.047-.716.068a89.436,89.436,0,0,1-16.1-.164c-.339-.033-.673-.064-1-.1-2-.2-3.787-.438-5.277-.66.082-.326.164-.635.242-.925,1.529.225,3.371.466,5.424.672l.985.094a86.66,86.66,0,0,0,16.349.066,62.851,62.851,0,0,0,16-4.012h0c.305-.118.6-.236.892-.356.778-.311,1.508-.623,2.183-.921.13.269.267.558.408.862" transform="translate(-70.599 -39.047)" fill="#585859"/>
        <path id="Trazado_562874" data-name="Trazado 562874" d="M346.959,234.358c-1.247-19.258-4.077-37.113-8.222-51.585l-22.9,10.663a128.119,128.119,0,0,0,8.285,40.922Z" transform="translate(-78.785 -45.592)" fill="#39393b"/>
        <path id="Trazado_562875" data-name="Trazado 562875" d="M328.894,239.836a149.228,149.228,0,0,1-7.822-34.657.477.477,0,0,0-.952.067,150.226,150.226,0,0,0,7.766,34.591Z" transform="translate(-79.853 -51.071)" fill="#585859"/>
        <path id="Trazado_562876" data-name="Trazado 562876" d="M301.605,234.713c1.413-13.68,3.043-30.484,3.248-36.992l-25.3-13.523s-4.457,15.389-1.534,50.514Z" transform="translate(-69.105 -45.948)" fill="#39393b"/>
        <path id="Trazado_562877" data-name="Trazado 562877" d="M306.322,239.656l4.243-35.035a.542.542,0,1,0-1.076-.13l-4.259,35.165Z" transform="translate(-76.139 -50.891)" fill="#585859"/>
        <path id="Trazado_562878" data-name="Trazado 562878" d="M316.224,189.49a.478.478,0,0,0,.527.417h0a.477.477,0,0,0,.417-.531c-.212-1.778-.416-3.6-.609-5.423q-.052-.481-.1-.962c-.619-5.957-1.121-11.824-1.452-15.969-.026-.336-.053-.66-.077-.973-.071-.91-.133-1.717-.185-2.4-.32,0-.641.005-.958,0,.052.683.115,1.5.188,2.418.023.312.05.637.077.973.329,4.109.825,9.925,1.438,15.846.033.326.068.654.1.981.2,1.888.411,3.78.631,5.62" transform="translate(-78.274 -40.821)" fill="#585859"/>
        <path id="Trazado_562879" data-name="Trazado 562879" d="M313.744,183.464a12.188,12.188,0,0,0,1.753.369,9.217,9.217,0,0,0,.97.083,6.564,6.564,0,0,0,.91-.033,3.2,3.2,0,0,0,1.535-.528,2.024,2.024,0,0,0,.82-1.673c.037-1.876-.505-9.507-.913-14.9-.024-.332-.049-.655-.072-.97-.066-.862-.128-1.647-.179-2.313-.318.014-.636.029-.956.041.053.67.115,1.464.181,2.338q.035.468.074.97c.4,5.38.947,13,.911,14.818a1.066,1.066,0,0,1-.429.92,3.262,3.262,0,0,1-1.983.369c-.328-.017-.659-.055-.97-.1a11.105,11.105,0,0,1-1.378-.3.477.477,0,1,0-.274.914" transform="translate(-78.178 -40.785)" fill="#585859"/>
        <path id="Trazado_562880" data-name="Trazado 562880" d="M275.457,72.387l36.505-.941c-1.132-1.585-1.027-16.713-1.533-19.837-.522-3.224-.12-9.617.363-14.838a16.587,16.587,0,0,0-17.27-18.127c-.152.007-.3.016-.457.026-15.346.977-16.475,14.125-15.046,22.086,1.3,7.251,2.216,27.009-2.562,31.631" transform="translate(-68.712 -4.645)" fill="#39393b"/>
        <path id="Trazado_562881" data-name="Trazado 562881" d="M286.013,153.425l2.944,12.344c7.354-.587,16.054-1.652,22.607-5.038,0,0,8.73,2.936,13.156,1.566l-3.24-8.871Z" transform="translate(-71.345 -38.272)" fill="#fff"/>
        <path id="Trazado_562882" data-name="Trazado 562882" d="M324.049,142.077c-8.48-.056-13.571-1.155-18.2-4.942-8.673,9.013-30.1,9.358-30.1,9.358,2.146-6.922,2.844-19.159,2.844-19.159-.171-1.272-.26-2.593-.395-3.933a26.308,26.308,0,0,0-.661-4.032c-2.114-6.1-4.589-10.481-6.789-16.786-.141-.411-.287-.815-.434-1.226-.1-.266-.192-.531-.291-.8-.723-1.972-1.5-3.939-2.315-5.833-3.548-8.267-4.12-17.583,4.413-20.427.621-.206,1.231-.4,1.826-.594,4.036-1.276,7.4-2.114,8.337-2.339l.257-.062,17.914,1.484,1.7.142c2.5.28,5.157.209,6.833.578,1.475.325,2.367.245,3.869.688,3.531,1.045,3.431,5.791,4.529,11.691.017.1.036.2.054.307.008.032.015.068.021.1.194,1,.423,2,.681,2.976.29,1.1.613,2.18.951,3.237,2.066,6.479,4.557,9.453,4.132,13.53-.387,3.691-4.153,8.727-5.153,9.8-.232.247-.368.38-.368.38,0,.017,0,.037.008.056.014.146.031.3.053.465.076.623.185,1.362.323,2.2.309,3.118.748,5.942,1.249,8.459q.405,2.034.856,3.8a50.4,50.4,0,0,0,3.852,10.884" transform="translate(-66.17 -17.786)" fill="#21b573"/>
        <path id="Trazado_562883" data-name="Trazado 562883" d="M336.4,149.835c-2.422,1.286-4.382,2.14-4.382,2.14l-1.809-3.4a35.672,35.672,0,0,0,5.336-2.534,11.652,11.652,0,0,1,.856,3.8" transform="translate(-82.369 -36.428)" fill="#217c58"/>
        <path id="Trazado_562884" data-name="Trazado 562884" d="M286.18,146.84s8.152,3.459,14.183,4.044l-.921,3.744S289.56,153,285.6,150.18Z" transform="translate(-71.242 -36.629)" fill="#217c58"/>
        <path id="Trazado_562885" data-name="Trazado 562885" d="M336.009,119.26a.46.46,0,0,0,.334-.143c.221-.233,5.4-5.754,3.592-10.794-.5-1.4-1.084-2.814-1.7-4.311-1.873-4.545-4-9.7-4.543-16.379a.461.461,0,1,0-.919.075c.557,6.826,2.71,12.048,4.61,16.655.613,1.488,1.193,2.892,1.686,4.271,1.612,4.5-3.342,9.795-3.393,9.847a.462.462,0,0,0,.335.779" transform="translate(-83.009 -21.754)" fill="#217c58"/>
        <path id="Trazado_562886" data-name="Trazado 562886" d="M316.365,103.346a1.005,1.005,0,1,1-1.006-1.006,1.006,1.006,0,0,1,1.006,1.006" transform="translate(-78.415 -25.529)" fill="#217c58"/>
        <path id="Trazado_562887" data-name="Trazado 562887" d="M318.356,115.212a1.006,1.006,0,1,1-1.006-1.006,1.006,1.006,0,0,1,1.006,1.006" transform="translate(-78.912 -28.488)" fill="#217c58"/>
        <path id="Trazado_562888" data-name="Trazado 562888" d="M319.556,127.274a1.005,1.005,0,1,1-1.006-1.006,1.006,1.006,0,0,1,1.006,1.006" transform="translate(-79.211 -31.497)" fill="#217c58"/>
        <path id="Trazado_562889" data-name="Trazado 562889" d="M320.071,139.682a1.005,1.005,0,1,1-1.006-1.006,1.006,1.006,0,0,1,1.006,1.006" transform="translate(-79.34 -34.592)" fill="#217c58"/>
        <path id="Trazado_562890" data-name="Trazado 562890" d="M320.011,152.587A1.005,1.005,0,1,1,319,151.581a1.006,1.006,0,0,1,1.006,1.006" transform="translate(-79.325 -37.812)" fill="#217c58"/>
        <path id="Trazado_562891" data-name="Trazado 562891" d="M309.41,73.226a23.34,23.34,0,0,1,6.618.372l-.295,10.22-2.326.5,1.959,1.927L313.017,93.1s-3.21-11.41-3.607-19.876" transform="translate(-77.182 -18.245)" fill="#217c58"/>
        <path id="Trazado_562892" data-name="Trazado 562892" d="M285.918,71.3,278.8,73.249l8.358,11.11,6.267-.5-2.2,4.792,14.155,3.991s-16.394-15.567-17.7-21.195Z" transform="translate(-69.546 -17.786)" fill="#217c58"/>
        <path id="Trazado_562893" data-name="Trazado 562893" d="M289.935,72.411s4.088,8.706,18.224,20.509a111.991,111.991,0,0,0-3.6-19.237s-8.318,2.9-14.622-1.272" transform="translate(-72.324 -18.063)" fill="#fff"/>
        <path id="Trazado_562894" data-name="Trazado 562894" d="M311.952,106.906c-4.656,0-14.156-6.668-14.558-6.952a.382.382,0,0,1,.441-.624c.1.068,9.7,6.811,14.117,6.811,4.223,0,5.159-4.613,5.168-4.659a.382.382,0,1,1,.751.144c-.01.053-1.071,5.28-5.918,5.28" transform="translate(-74.144 -24.76)" fill="#217c58"/>
        <path id="Trazado_562895" data-name="Trazado 562895" d="M304.552,73.044l.191,2.413c.356,4.5-2.841,5.772-7.5,3.389-3.678-1.882-6.8-4.695-7.311-6.435Z" transform="translate(-72.324 -18.063)" fill="#ea9b7a"/>
        <path id="Trazado_562896" data-name="Trazado 562896" d="M300.508,133.346a.413.413,0,0,0,.36.206.4.4,0,0,0,.2-.053,23.851,23.851,0,0,1,15.005-2.225,25.833,25.833,0,0,0,10.471.116c-.021-.163-.04-.318-.054-.465,0-.021,0-.04-.006-.058,0,0,.137-.133.366-.378a24.649,24.649,0,0,1-10.618-.027,24.248,24.248,0,0,0-15.574,2.321.412.412,0,0,0-.153.564" transform="translate(-74.947 -32.439)" fill="#217c58"/>
        <path id="Trazado_562897" data-name="Trazado 562897" d="M318.8,33.262s2.067,8.113.743,9.527-3.28-1.623-3.28-1.623.964-7.579,2.537-7.9" transform="translate(-78.891 -8.297)" fill="#39393b"/>
        <path id="Trazado_562898" data-name="Trazado 562898" d="M316.606,47.2s2.136-2.524,3.344,0,.278,7.632-2.972,6.8Z" transform="translate(-78.977 -11.494)" fill="#d46a43"/>
        <path id="Trazado_562899" data-name="Trazado 562899" d="M313.228,55.619A3.471,3.471,0,1,0,314.9,55.3c-.083-.215-.155-.434-.247-.645l.041,0a4.125,4.125,0,1,1-2.039.543Z" transform="translate(-77.472 -13.633)" fill="#fff"/>
        <path id="Trazado_562900" data-name="Trazado 562900" d="M304.557,63.578v6.961s-3.669,6.01-14.622-1.272c2.075-2.316,2.138-6.793,1.3-9.462a15.273,15.273,0,0,0,2.129,1.133q.408.182.873.379c2.737,1.149,6.856,2.531,10.321,2.262" transform="translate(-72.324 -14.918)" fill="#ea9b7a"/>
        <path id="Trazado_562901" data-name="Trazado 562901" d="M305.7,63.954v3.258c-2.977-.663-8.2-2.287-11.194-5.9q.408.182.873.379c2.737,1.149,6.856,2.531,10.321,2.262" transform="translate(-73.463 -15.294)" fill="#39393b"/>
        <path id="Trazado_562902" data-name="Trazado 562902" d="M310.6,53.235c-5.848,6.049-18.828-1.171-19.245-1.405l-.01-.007q-.18-.812-.325-1.61a42.4,42.4,0,0,1-.42-12.65,9.578,9.578,0,0,1,6.213-9.523c4.082-1.487,7.742.308,9.942.985,3.32,1.024,5.409,5.315,5.427,11.428.023,7.5-.131,11.279-1.581,12.781" transform="translate(-72.419 -6.851)" fill="#ea9b7a"/>
        <path id="Trazado_562903" data-name="Trazado 562903" d="M311.557,32.362q-2.026.279-4.164.444l-.783-3.738-.252,3.813c-2.625.177-5.354.246-8.15.25l-.348-3.937-.766,3.935c-2.069-.01-4.172-.051-6.29-.109-1.693-7.842,6.806-11.259,13.957-9.629s6.8,8.97,6.8,8.97" transform="translate(-72.486 -5.736)" fill="#39393b"/>
        <path id="Trazado_562904" data-name="Trazado 562904" d="M295.393,33.224S292.759,36.738,294.2,40s.439,6.461-.251,8.844c0,0-1.494-5.252-5.012-6.233s-1.7-10.609,6.455-9.386" transform="translate(-71.65 -8.261)" fill="#39393b"/>
        <path id="Trazado_562905" data-name="Trazado 562905" d="M310.212,57.079a3.289,3.289,0,0,0,1.435-.1.25.25,0,1,0-.161-.473,2.665,2.665,0,0,1-2.231-.339.25.25,0,1,0-.295.4,2.811,2.811,0,0,0,1.251.511" transform="translate(-77.044 -13.998)" fill="#d46a43"/>
        <path id="Trazado_562906" data-name="Trazado 562906" d="M313.246,51.991s-4.066,1.42-7.122-.6c0,0,1.073,2.751,3.706,3.01a3.343,3.343,0,0,0,3.416-2.415" transform="translate(-76.362 -12.82)" fill="#fff"/>
        <path id="Trazado_562907" data-name="Trazado 562907" d="M305.7,37.362s1.214.12.787,1.232-2.861-.113-4.6,1.936c0,0-.741-2.668,3.816-3.168" transform="translate(-75.293 -9.32)" fill="#39393b"/>
        <path id="Trazado_562908" data-name="Trazado 562908" d="M314.017,37.362s-1.214.12-.787,1.232,2.861-.113,4.6,1.936c0,0,.741-2.668-3.816-3.168" transform="translate(-78.112 -9.32)" fill="#39393b"/>
        <g id="Grupo_841433" data-name="Grupo 841433" transform="translate(224.537 35.262)" opacity="0.8">
          <g id="Grupo_841432" data-name="Grupo 841432">
            <g id="Grupo_841431" data-name="Grupo 841431" clip-path="url(#clip-path-8)">
              <path id="Trazado_562909" data-name="Trazado 562909" d="M304.371,48.007c0,.566-1.166,1.025-2.6,1.025s-2.6-.459-2.6-1.025,1.166-1.025,2.6-1.025,2.6.459,2.6,1.025" transform="translate(-299.162 -46.982)" fill="#d46a43"/>
            </g>
          </g>
        </g>
        <path id="Trazado_562910" data-name="Trazado 562910" d="M319.167,49c-.2.02-.412.03-.627.03-1.437,0-2.6-.459-2.6-1.025s1.166-1.026,2.6-1.026c.194,0,.384.009.566.026Z" transform="translate(-78.81 -11.719)" fill="#d46a43"/>
        <path id="Trazado_562911" data-name="Trazado 562911" d="M305.975,44.3c0,.778-.353,1.408-.789,1.408s-.787-.63-.787-1.408.353-1.408.787-1.408.789.63.789,1.408" transform="translate(-75.932 -10.7)" fill="#39393b"/>
        <path id="Trazado_562912" data-name="Trazado 562912" d="M316.225,44.3c0,.778-.353,1.408-.787,1.408s-.788-.63-.788-1.408.353-1.408.788-1.408.787.63.787,1.408" transform="translate(-78.489 -10.7)" fill="#39393b"/>
        <path id="Trazado_562913" data-name="Trazado 562913" d="M312.181,47.362a2.828,2.828,0,0,0,.646-.068.321.321,0,0,0,.223-.416l-1.184-3.391a.32.32,0,0,0-.6.211l1.055,3.019a2.516,2.516,0,0,1-1.31-.282.32.32,0,1,0-.3.564,3.122,3.122,0,0,0,1.479.363" transform="translate(-77.462 -10.794)" fill="#39393b"/>
        <path id="Trazado_562914" data-name="Trazado 562914" d="M294.124,55.724c-.038.087-1.06,2.458-2.53,3.155l0,0-.008-.008q-.18-.812-.325-1.61a5.947,5.947,0,0,0,2.866-1.538" transform="translate(-72.654 -13.9)" fill="#39393b"/>
        <path id="Trazado_562915" data-name="Trazado 562915" d="M291.215,47.813s-3.11-4.177-5.387-.895c-1.877,2.7,1.657,9.905,5.458,7.274Z" transform="translate(-71.17 -11.39)" fill="#ea9b7a"/>
        <path id="Trazado_562916" data-name="Trazado 562916" d="M288,56.775a3.5,3.5,0,1,0,2.975.036,3.451,3.451,0,0,0-1.3-.339c-.083-.215-.155-.434-.247-.645h.041a4.078,4.078,0,0,1,1.609.328,4.119,4.119,0,1,1-5.728,3.792,4.187,4.187,0,0,1,2.1-3.6,4.514,4.514,0,0,0,.549.433" transform="translate(-71.18 -13.926)" fill="#fff"/>
        <path id="Trazado_562917" data-name="Trazado 562917" d="M291.406,53.705h.035a.32.32,0,0,0,.283-.354,5.986,5.986,0,0,0-3.5-4.832.32.32,0,1,0-.237.594,5.345,5.345,0,0,1,3.106,4.308.32.32,0,0,0,.317.285" transform="translate(-71.787 -12.097)" fill="#39393b"/>
        <path id="Trazado_562918" data-name="Trazado 562918" d="M288.528,52.4a.319.319,0,0,0,.2-.071c.278-.226,1.122-.78,1.674-.639a.32.32,0,1,0,.158-.62,3.078,3.078,0,0,0-2.235.762.32.32,0,0,0,.2.568" transform="translate(-71.893 -12.728)" fill="#39393b"/>
        <path id="Trazado_562919" data-name="Trazado 562919" d="M258.751,136.6s1.021,2.2-.158,7.021a27.5,27.5,0,0,1-3.155,7.836s-4.939-7.5,3.313-14.856" transform="translate(-63.353 -34.076)" fill="#217c58"/>
        <path id="Trazado_562920" data-name="Trazado 562920" d="M231.3,117.479c.012.242.029.486.051.724s.065.474.1.71c.02.116.039.236.065.349l.08.34a12.031,12.031,0,0,0,.9,2.483c.184.358.38.727.582,1.042.1.159.2.326.311.48l.317.444a16.051,16.051,0,0,0,2.645,2.778,24.806,24.806,0,0,0,2.62,1.9c.429.276.857.528,1.281.773s.844.476,1.263.7c.841.438,1.667.845,2.493,1.222,1.65.754,3.289,1.392,4.923,1.974s3.262,1.094,4.888,1.566,3.251.916,4.879,1.314,3.26.762,4.9,1.106a19.393,19.393,0,0,0,2.264.268c1.307.1,2.725.171,3.654.328.223-1.35-.917-2.44-.692-3.79.263-1.578.525-3.159.813-4.734l-.654-1.41c-.99-.236-1.985-.492-2.977-.762l-.09-.025c-1.446-.393-2.883-.826-4.307-1.289q-2.177-.7-4.305-1.5c-1.41-.534-2.8-1.106-4.138-1.71s-2.64-1.247-3.851-1.928c-.6-.34-1.193-.686-1.735-1.054-.269-.182-.537-.363-.787-.549s-.49-.375-.713-.564a8.993,8.993,0,0,1-.912-.865c-.076-.081-.145-.161-.208-.237l-.011-.014.232-.319.417-.57c.216-.3.429-.6.666-.9.463-.6.915-1.207,1.386-1.814l1.434-1.819c.976-1.211,1.942-2.432,2.939-3.643l.744-.911.754-.908,1.055-1.276.449-.543.548-.659.966-1.161,1.527-1.813q1.523-1.817,3.061-3.627l6.129-7.233.039-.046a7.237,7.237,0,0,0-10.976-9.436l-1.609,1.848-1.578,1.844q-.788.923-1.563,1.855c-.519.618-1.041,1.239-1.556,1.864q-1.546,1.87-3.077,3.758l-1.521,1.9-.2.255L243.9,95.847c-.505.635-1.006,1.28-1.5,1.924l-.747.967-.335.441-.408.536c-.991,1.295-1.976,2.612-2.952,3.939l-1.454,2.02c-.483.678-.962,1.378-1.442,2.068-.24.339-.479.7-.718,1.062l-.714,1.078-.179.271-.045.067-.023.035-.035.056-.149.242c-.1.161-.194.325-.29.487-.048.079-.1.17-.14.26l-.138.267c-.091.18-.182.354-.267.543s-.164.392-.243.589l-.116.3c-.036.1-.072.209-.107.315-.068.211-.134.425-.2.639s-.109.45-.158.675-.1.453-.127.694-.062.473-.086.71-.029.483-.035.726l0,.362c0,.122.008.242.013.364" transform="translate(-57.694 -19.555)" fill="#ea9b7a"/>
        <path id="Trazado_562921" data-name="Trazado 562921" d="M271.893,142.052a3.214,3.214,0,0,0-2.615-.845s-3.4,5.774-1.638,10.726a3.339,3.339,0,0,0,2.448.574s-1.65-5.954,1.806-10.455" transform="translate(-66.635 -35.211)"/>
        <path id="Trazado_562922" data-name="Trazado 562922" d="M264.664,147.855a3.441,3.441,0,1,0,3.244-3.628,3.442,3.442,0,0,0-3.244,3.628" transform="translate(-66.019 -35.976)"/>
        <path id="Trazado_562923" data-name="Trazado 562923" d="M268.532,150.521a2.574,2.574,0,1,0-2.713-2.426,2.576,2.576,0,0,0,2.713,2.426" transform="translate(-66.307 -36.264)" fill="#fff"/>
        <path id="Trazado_562924" data-name="Trazado 562924" d="M277.165,153.654c1.307.1,2.725.171,3.654.327.223-1.35-.917-2.44-.692-3.79.263-1.578.525-3.158.813-4.734l-.654-1.41c-.99-.236-1.984-.492-2.977-.762l-.09-.024c-.4,2.243-1.037,6.944-.053,10.392" transform="translate(-69.008 -35.736)" fill="#d46a43"/>
        <path id="Trazado_562925" data-name="Trazado 562925" d="M268.246,83.626a6.843,6.843,0,0,1-1.381,6.494c-2.9,3.349-8.438,9.816-11.508,13.878-4.289,5.675-9.715,12.8-9.715,12.8a79.8,79.8,0,0,0,6.639,5.242,13.513,13.513,0,0,0-3.312,14.857s-12.028-6.609-18.118-12.962c-4.446-4.639-3.213-10.428.849-15.964,2.05-2.793,17.861-20.811,23.476-27.114a7.76,7.76,0,0,1,8.288-2.243,7.339,7.339,0,0,1,4.783,5.017" transform="translate(-56.884 -19.507)" fill="#21b573"/>
        <path id="Trazado_562926" data-name="Trazado 562926" d="M277.7,142.789s.472-2.751,1.184-5.4a4.677,4.677,0,0,1,1.795-2.889,23.674,23.674,0,0,1,.678,5.141,2.188,2.188,0,0,1,1.882-.375c1.215.245,5.407,1.135,5.461,2.1.123,2.213-5.129,1.162-5.129,1.162s5.62,1.059,5.478,2.61c-.115,1.254-5.205,1.493-5.205,1.493s4.906.045,4.317,1.806c-.626,1.871-5.176.693-5.176.693s3.278,1.573,2.961,2.234c-.456.951-2.4,1.218-5.538.453-3.215-.784-2.709-9.032-2.709-9.032" transform="translate(-69.264 -33.552)" fill="#ea9b7a"/>
        <path id="Trazado_562927" data-name="Trazado 562927" d="M269.821,104.024a.434.434,0,0,1-.4-.709l7.264-8.623a.434.434,0,1,1,.664.559l-7.265,8.623a.433.433,0,0,1-.266.149" transform="translate(-67.182 -23.582)" fill="#217c58"/>
        <path id="Trazado_562928" data-name="Trazado 562928" d="M279.43,98.374l-2.745.421a.434.434,0,0,1-.132-.858l2.746-.421a.434.434,0,0,1,.131.858" transform="translate(-68.894 -24.324)" fill="#217c58"/>
        <path id="Trazado_562929" data-name="Trazado 562929" d="M241.1,130.64a.286.286,0,0,0,.174.109.28.28,0,0,0,.221-.052c2.071-1.539,5.757-1.7,7.582-1.68-.075-.08-.143-.16-.208-.236l-.011-.013.233-.32c-.165,0-.345,0-.539,0a15.868,15.868,0,0,0-4.355-2.209.282.282,0,1,0-.184.534,19.533,19.533,0,0,1,3.66,1.7c-2.008.088-4.755.468-6.515,1.777a.282.282,0,0,0-.059.4" transform="translate(-60.129 -31.486)" fill="#217c58"/>
        <path id="Trazado_562930" data-name="Trazado 562930" d="M45.616,195.793H40.147a.894.894,0,0,1-.894-.894V165.737a.894.894,0,0,1,.894-.894h5.469a.894.894,0,0,1,.894.894V194.9a.894.894,0,0,1-.894.894" transform="translate(-9.792 -41.12)" fill="#0875f7"/>
        <path id="Trazado_562931" data-name="Trazado 562931" d="M44.9,186.169H41.6a.876.876,0,0,1-.876-.876v-.368a.876.876,0,0,1,.876-.875h3.3a.876.876,0,0,1,.876.875v.368a.876.876,0,0,1-.876.876" transform="translate(-10.158 -45.911)" fill="#084fc7"/>
        <rect id="Rectángulo_279038" data-name="Rectángulo 279038" width="7.257" height="1.195" transform="translate(29.461 126.223)" fill="#084fc7"/>
        <rect id="Rectángulo_279039" data-name="Rectángulo 279039" width="7.257" height="1.195" transform="translate(29.461 128.722)" fill="#084fc7"/>
        <rect id="Rectángulo_279040" data-name="Rectángulo 279040" width="7.257" height="1.195" transform="translate(29.461 147.167)" fill="#084fc7"/>
        <rect id="Rectángulo_279041" data-name="Rectángulo 279041" width="7.257" height="1.195" transform="translate(29.461 149.666)" fill="#084fc7"/>
        <path id="Trazado_562932" data-name="Trazado 562932" d="M26.948,195.793h-6.81a.223.223,0,0,1-.224-.224v-30.5a.223.223,0,0,1,.224-.223h6.81a.224.224,0,0,1,.224.223v30.5a.224.224,0,0,1-.224.224" transform="translate(-4.968 -41.12)" fill="#21b573"/>
        <path id="Trazado_562933" data-name="Trazado 562933" d="M25.561,186.169h-3.3a.875.875,0,0,1-.875-.876v-.367a.875.875,0,0,1,.875-.876h3.3a.876.876,0,0,1,.876.876v.367a.876.876,0,0,1-.876.876" transform="translate(-5.334 -45.911)" fill="#217c58"/>
        <rect id="Rectángulo_279042" data-name="Rectángulo 279042" width="7.257" height="1.195" transform="translate(14.947 126.223)" fill="#217c58"/>
        <rect id="Rectángulo_279043" data-name="Rectángulo 279043" width="7.257" height="1.195" transform="translate(14.947 128.722)" fill="#217c58"/>
        <rect id="Rectángulo_279044" data-name="Rectángulo 279044" width="7.257" height="1.195" transform="translate(14.947 147.167)" fill="#217c58"/>
        <rect id="Rectángulo_279045" data-name="Rectángulo 279045" width="7.257" height="1.195" transform="translate(14.947 149.666)" fill="#217c58"/>
        <path id="Trazado_562934" data-name="Trazado 562934" d="M35.947,195.793H30.478a.894.894,0,0,1-.894-.894V165.736a.894.894,0,0,1,.894-.893h5.469a.894.894,0,0,1,.894.894V194.9a.894.894,0,0,1-.894.894" transform="translate(-7.38 -41.12)" fill="#df615c"/>
        <path id="Trazado_562935" data-name="Trazado 562935" d="M35.23,186.169h-3.3a.876.876,0,0,1-.876-.876v-.368a.876.876,0,0,1,.876-.875h3.3a.876.876,0,0,1,.876.876v.367a.876.876,0,0,1-.876.876" transform="translate(-7.746 -45.911)" fill="#a92f4b"/>
        <rect id="Rectángulo_279046" data-name="Rectángulo 279046" width="7.257" height="1.195" transform="translate(22.204 126.223)" fill="#a92f4b"/>
        <rect id="Rectángulo_279047" data-name="Rectángulo 279047" width="7.257" height="1.195" transform="translate(22.204 128.722)" fill="#a92f4b"/>
        <rect id="Rectángulo_279048" data-name="Rectángulo 279048" width="7.257" height="1.195" transform="translate(22.204 147.167)" fill="#a92f4b"/>
        <rect id="Rectángulo_279049" data-name="Rectángulo 279049" width="7.257" height="1.195" transform="translate(22.204 149.666)" fill="#a92f4b"/>
        <path id="Trazado_562936" data-name="Trazado 562936" d="M60.69,194.467l-6.723,1.084a.223.223,0,0,1-.256-.185l-4.855-30.115A.224.224,0,0,1,49.04,165l6.723-1.085a.223.223,0,0,1,.256.185l4.855,30.115a.223.223,0,0,1-.185.256" transform="translate(-12.186 -40.887)" fill="#faaf3a"/>
        <path id="Trazado_562937" data-name="Trazado 562937" d="M58.458,185.193l-4.6.742a.2.2,0,0,1-.224-.161l-.275-1.707a.2.2,0,0,1,.161-.223l4.6-.742a.194.194,0,0,1,.223.161l.275,1.707a.2.2,0,0,1-.161.223" transform="translate(-13.309 -45.674)" fill="#c77e2e"/>
        <rect id="Rectángulo_279050" data-name="Rectángulo 279050" width="7.257" height="1.195" transform="matrix(0.987, -0.159, 0.159, 0.987, 37.031, 126.611)" fill="#c77e2e"/>
        <rect id="Rectángulo_279051" data-name="Rectángulo 279051" width="7.257" height="1.195" transform="matrix(0.987, -0.159, 0.159, 0.987, 37.429, 129.079)" fill="#c77e2e"/>
        <rect id="Rectángulo_279052" data-name="Rectángulo 279052" width="7.257" height="1.195" transform="matrix(0.987, -0.159, 0.159, 0.987, 40.365, 147.289)" fill="#c77e2e"/>
        <rect id="Rectángulo_279053" data-name="Rectángulo 279053" width="7.257" height="1.195" transform="matrix(0.987, -0.159, 0.159, 0.987, 40.763, 149.757)" fill="#c77e2e"/>
        <g id="Grupo_841436" data-name="Grupo 841436" transform="translate(0 159.148)" opacity="0.8">
          <g id="Grupo_841435" data-name="Grupo 841435">
            <g id="Grupo_841434" data-name="Grupo 841434" clip-path="url(#clip-path-9)">
              <path id="Trazado_562938" data-name="Trazado 562938" d="M67.169,215.862H1.44L0,212.041H68.81Z" transform="translate(0 -212.041)" fill="#ced3e6"/>
            </g>
          </g>
        </g>
        <rect id="Rectángulo_279055" data-name="Rectángulo 279055" width="68.811" height="4.542" transform="translate(0 154.606)" fill="#39393b"/>
        <path id="Trazado_562939" data-name="Trazado 562939" d="M9.342,212.041l1.84,3.856h4.336l1.234-3.856Z" transform="translate(-2.33 -52.893)" fill="#39393b"/>
        <path id="Trazado_562940" data-name="Trazado 562940" d="M79.875,212.041l-1.84,3.856H73.7l-1.234-3.856Z" transform="translate(-18.076 -52.893)" fill="#39393b"/>
        <path id="Trazado_562941" data-name="Trazado 562941" d="M202.662,234.142h-6.934a1.247,1.247,0,0,1-1.248-1.247v-4.78a1.247,1.247,0,0,1,1.248-1.247h6.934a1.248,1.248,0,0,1,1.248,1.247v4.78a1.248,1.248,0,0,1-1.248,1.247" transform="translate(-48.513 -56.592)" fill="#fff"/>
        <path id="Trazado_562942" data-name="Trazado 562942" d="M209.705,226.866v7.275l-2.938-2.474V229.34Z" transform="translate(-51.578 -56.591)" fill="#fff"/>
        <path id="Trazado_562943" data-name="Trazado 562943" d="M219.475,229.7a6.057,6.057,0,1,0,6.057-6.057,6.057,6.057,0,0,0-6.057,6.057" transform="translate(-54.748 -55.787)" fill="#dd615c"/>
        <path id="Trazado_562944" data-name="Trazado 562944" d="M223.529,234.045a.634.634,0,0,0,.45-.186l5.712-5.712a.636.636,0,0,0-.9-.9l-5.712,5.712a.636.636,0,0,0,.45,1.086" transform="translate(-55.6 -56.64)" fill="#fff"/>
        <path id="Trazado_562945" data-name="Trazado 562945" d="M229.241,234.045a.636.636,0,0,0,.45-1.086l-5.712-5.712a.636.636,0,0,0-.9.9l5.712,5.712a.634.634,0,0,0,.45.186" transform="translate(-55.6 -56.64)" fill="#fff"/>
        <path id="Trazado_562946" data-name="Trazado 562946" d="M181.4,232.917h.579a1.382,1.382,0,0,0,1.377-1.377v-5.932a1.381,1.381,0,0,0-1.377-1.377H181.4a1.381,1.381,0,0,0-1.377,1.377v5.932a1.382,1.382,0,0,0,1.377,1.377" transform="translate(-44.905 -55.934)" fill="#fff"/>
        <path id="Trazado_562947" data-name="Trazado 562947" d="M182.066,237.194h.119a.283.283,0,0,0,.281-.281V233.4a.283.283,0,0,0-.281-.281h-.119a.283.283,0,0,0-.281.281v3.512a.283.283,0,0,0,.281.281" transform="translate(-45.346 -58.151)" fill="#fff"/>
        <path id="Trazado_562948" data-name="Trazado 562948" d="M178.371,238.49h5.51a.594.594,0,0,0,.592-.592v-.248a.594.594,0,0,0-.592-.592h-5.51a.594.594,0,0,0-.592.592v.248a.594.594,0,0,0,.592.592" transform="translate(-44.347 -59.133)" fill="#fff"/>
        <path id="Trazado_562949" data-name="Trazado 562949" d="M227.817,480.6c0,3.221-42.8,5.833-95.591,5.833s-95.591-2.612-95.591-5.833,42.8-5.833,95.591-5.833,95.591,2.612,95.591,5.833" transform="translate(-9.139 -118.429)" fill="#ced3e6"/>
        <path id="Trazado_562950" data-name="Trazado 562950" d="M164.177,239.656l.119.569.089.456.158.864q.145.84.269,1.658c.161,1.094.293,2.169.412,3.242.233,2.145.4,4.274.505,6.4s.128,4.251.1,6.374-.12,4.243-.263,6.36-.367,4.231-.633,6.339c-.149,1.053-.281,2.107-.459,3.157-.086.525-.165,1.051-.258,1.575l-.29,1.571c-.093.523-.208,1.045-.315,1.566s-.212,1.043-.335,1.563c-.242,1.039-.473,2.079-.749,3.111-.134.517-.261,1.035-.4,1.549l-.436,1.543-.109.385-.055.193-.116.393c-.11.366-.227.684-.351,1.009-.121.3-.25.611-.378.879-.131.285-.26.53-.395.787l-.2.356c-.068.12-.134.234-.2.341l-.2.327-.2.305c-.135.208-.263.387-.4.578a22.518,22.518,0,0,1-1.543,1.912c-.5.56-.994,1.059-1.479,1.524-.967.927-1.906,1.72-2.833,2.458a65.548,65.548,0,0,1-5.464,3.867c-3.606,2.306-7.184,4.294-10.787,6.161s-7.213,3.6-10.848,5.248q-2.731,1.229-5.478,2.4c-.916.391-1.834.781-2.758,1.163l-1.393.566-1.435.573-6.29-14.215,1.22-.624,1.254-.651,2.517-1.311q2.514-1.323,5-2.691c3.317-1.813,6.594-3.675,9.783-5.586,1.594-.955,3.159-1.936,4.692-2.92s3.022-1.992,4.435-3.013,2.752-2.06,3.9-3.065c.569-.5,1.088-.994,1.5-1.435a5.675,5.675,0,0,0,.774-.974c0-.01.014-.029.007-.027l0,0a.082.082,0,0,0-.014.014l-.02.025c-.008.012-.014.022-.023.037-.026.039-.041.07-.075.132s-.066.131-.1.208c-.043.1-.073.186-.118.319l-.028.093c-.007.029,0,0,0-.01l.009-.04.037-.16.073-.32.294-1.277c.1-.426.177-.858.267-1.286.185-.854.329-1.72.488-2.581.08-.431.139-.866.209-1.3s.142-.865.2-1.3c.253-1.737.447-3.485.611-5.236s.25-3.513.323-5.273.075-3.525.046-5.287-.1-3.522-.217-5.273-.272-3.493-.483-5.207c-.107-.855-.223-1.707-.357-2.533-.063-.414-.129-.82-.2-1.217l-.1-.57-.079-.4Z" transform="translate(-27.136 -59.782)" fill="#ea9b7a"/>
        <path id="Trazado_562951" data-name="Trazado 562951" d="M153.532,246.114l-3.576,27.1c5.336,2.989,10.4,5.129,15.046,5.974Z" transform="translate(-37.406 -61.393)" fill="#a92f4b"/>
        <path id="Trazado_562952" data-name="Trazado 562952" d="M162.438,300.66a.476.476,0,0,1-.227-.058,48.313,48.313,0,0,0-6.636-2.791.475.475,0,1,1,.3-.9,48.291,48.291,0,0,1,6.792,2.859.475.475,0,0,1-.227.893" transform="translate(-38.727 -74.057)" fill="#d46a43"/>
        <path id="Trazado_562953" data-name="Trazado 562953" d="M156.076,297.879a.475.475,0,0,1-.052-.948c1.971-.22,4.56-.233,4.669-.233h0a.475.475,0,0,1,0,.951c-.026,0-2.649.014-4.569.227a.429.429,0,0,1-.053,0" transform="translate(-38.814 -74.011)" fill="#d46a43"/>
        <path id="Trazado_562954" data-name="Trazado 562954" d="M83.005,444.9l-4.927,8.05-9.388-4.156,4.261-8.649Z" transform="translate(-17.135 -109.793)" fill="#ea9b7a"/>
        <path id="Trazado_562955" data-name="Trazado 562955" d="M29.073,455.349l35.508,15.717a5.413,5.413,0,0,0,1.34-1.765c1.551-2.9,2.715-8.122,3.585-11.352.1-.378.2-.73.29-1.045a11.441,11.441,0,0,1,.441-1.281,1.981,1.981,0,0,0-1.279-3.01c-5.153,1.933-6.883-5.152-10.025-4.47,0,0-1.348.281-5.29,1.569s-9.476.841-14.314.742c-6.244-.13-8.712,1.41-9.675,2.8a3.03,3.03,0,0,0-.581,2.1" transform="translate(-7.247 -111.777)" fill="#faaf3a"/>
        <path id="Trazado_562956" data-name="Trazado 562956" d="M29.073,457.062l35.508,15.717a5.412,5.412,0,0,0,1.34-1.765L29.654,454.961a3.03,3.03,0,0,0-.581,2.1" transform="translate(-7.247 -113.489)" fill="#c77e2e"/>
        <path id="Trazado_562957" data-name="Trazado 562957" d="M71.481,472.39l1.055.467a8.524,8.524,0,0,1,.608-6.531,10.953,10.953,0,0,1,6.884-5.451c.1-.378.2-.73.29-1.044a11.894,11.894,0,0,0-8,6.079,9.424,9.424,0,0,0-.836,6.479" transform="translate(-17.771 -114.704)" fill="#c77e2e"/>
        <path id="Trazado_562958" data-name="Trazado 562958" d="M60.6,452.478a.64.64,0,0,0,.651-1.091l-1.974-1.533a.64.64,0,1,0-.785,1.011l1.975,1.532a.642.642,0,0,0,.134.08" transform="translate(-14.528 -112.182)" fill="#fff"/>
        <path id="Trazado_562959" data-name="Trazado 562959" d="M64.623,451.317a.64.64,0,0,0,.651-1.091L63.3,448.694a.64.64,0,1,0-.785,1.011l1.975,1.532a.615.615,0,0,0,.134.08" transform="translate(-15.532 -111.892)" fill="#fff"/>
        <path id="Trazado_562960" data-name="Trazado 562960" d="M56.882,452.887a.64.64,0,0,0,.651-1.091l-1.974-1.532a.64.64,0,1,0-.785,1.011l1.975,1.532a.614.614,0,0,0,.134.08" transform="translate(-13.601 -112.284)" fill="#fff"/>
        <path id="Trazado_562961" data-name="Trazado 562961" d="M53.2,453.231a.64.64,0,0,0,.651-1.091l-1.974-1.532a.64.64,0,0,0-.785,1.011l1.975,1.532a.645.645,0,0,0,.134.08" transform="translate(-12.682 -112.37)" fill="#fff"/>
        <path id="Trazado_562962" data-name="Trazado 562962" d="M49.3,453.332a.64.64,0,0,0,.651-1.091l-1.974-1.532a.64.64,0,1,0-.785,1.01l1.975,1.533a.642.642,0,0,0,.134.08" transform="translate(-11.709 -112.395)" fill="#fff"/>
        <path id="Trazado_562963" data-name="Trazado 562963" d="M45.226,453.087A.64.64,0,0,0,45.877,452L43.9,450.464a.64.64,0,1,0-.785,1.011l1.975,1.532a.645.645,0,0,0,.134.08" transform="translate(-10.694 -112.334)" fill="#fff"/>
        <path id="Trazado_562964" data-name="Trazado 562964" d="M105.313,340.59c3.295-3.243,29.293-10.494,46.555-5.674a22.408,22.408,0,0,1-1.692,22.372c-22.691,3.708-35.353,11.341-35.353,11.341S106.777,387.222,102,394.045s-15.744,28.493-15.744,28.493l-16.517-7.057s26.607-66.061,35.578-74.892" transform="translate(-17.395 -83.143)" fill="#39393b"/>
        <path id="Trazado_562965" data-name="Trazado 562965" d="M88.565,444.2a.477.477,0,0,1-.182-.037l-16.165-6.72a.475.475,0,1,1,.365-.878l16.165,6.72a.476.476,0,0,1-.182.915" transform="translate(-17.941 -108.891)" fill="#585859"/>
        <path id="Trazado_562966" data-name="Trazado 562966" d="M90.318,427.11a.462.462,0,0,1-.175-.034.476.476,0,0,1-.267-.617,127.78,127.78,0,0,1,11.306-20.5c7.837-11.892,16.031-31.994,16.114-32.195a.475.475,0,1,1,.88.357c-.082.2-8.311,20.39-16.2,32.361A126.706,126.706,0,0,0,90.76,426.81a.477.477,0,0,1-.442.3" transform="translate(-22.411 -93.162)" fill="#585859"/>
        <path id="Trazado_562967" data-name="Trazado 562967" d="M139.484,448.276l-1.247,9.355H127.97l.4-9.633Z" transform="translate(-31.922 -111.752)" fill="#ea9b7a"/>
        <path id="Trazado_562968" data-name="Trazado 562968" d="M94.087,476.1h38.831a5.435,5.435,0,0,0,.511-2.156c.242-3.284-.8-8.527-1.318-11.832-.062-.387-.116-.747-.157-1.073a11.29,11.29,0,0,1-.116-1.35,1.981,1.981,0,0,0-2.388-2.235c-3.93,3.853-8.379-1.925-10.977-.03,0,0-1.119.8-4.2,3.576s-8.325,4.6-12.789,6.472c-5.762,2.409-7.4,4.815-7.715,6.472a3.031,3.031,0,0,0,.319,2.156" transform="translate(-23.374 -114.005)" fill="#faaf3a"/>
        <path id="Trazado_562969" data-name="Trazado 562969" d="M94.087,481.72h38.831a5.435,5.435,0,0,0,.511-2.156H93.768a3.031,3.031,0,0,0,.319,2.156" transform="translate(-23.374 -119.626)" fill="#c77e2e"/>
        <path id="Trazado_562970" data-name="Trazado 562970" d="M140.05,477.432H141.2a8.521,8.521,0,0,1-2.087-6.218,10.948,10.948,0,0,1,4.089-7.77c-.063-.387-.116-.747-.158-1.073a11.9,11.9,0,0,0-4.856,8.8,9.424,9.424,0,0,0,1.858,6.264" transform="translate(-34.468 -115.338)" fill="#c77e2e"/>
        <path id="Trazado_562971" data-name="Trazado 562971" d="M120.966,464.745a.64.64,0,0,0,.154-1.261l-2.426-.6a.64.64,0,1,0-.308,1.241l2.426.6a.646.646,0,0,0,.155.019" transform="translate(-29.41 -115.46)" fill="#fff"/>
        <path id="Trazado_562972" data-name="Trazado 562972" d="M124.178,462.054a.64.64,0,0,0,.154-1.261l-2.426-.6a.64.64,0,0,0-.308,1.242l2.426.6a.645.645,0,0,0,.155.019" transform="translate(-30.211 -114.789)" fill="#fff"/>
        <path id="Trazado_562973" data-name="Trazado 562973" d="M117.734,466.623a.64.64,0,0,0,.154-1.261l-2.426-.6a.64.64,0,1,0-.308,1.242l2.426.6a.61.61,0,0,0,.155.02" transform="translate(-28.604 -115.929)" fill="#fff"/>
        <path id="Trazado_562974" data-name="Trazado 562974" d="M114.5,468.429a.64.64,0,0,0,.154-1.261l-2.426-.6a.64.64,0,1,0-.308,1.241l2.426.6a.61.61,0,0,0,.155.02" transform="translate(-27.797 -116.379)" fill="#fff"/>
        <path id="Trazado_562975" data-name="Trazado 562975" d="M110.979,470.1a.64.64,0,0,0,.154-1.261l-2.426-.6a.64.64,0,1,0-.308,1.241l2.426.6a.646.646,0,0,0,.155.019" transform="translate(-26.919 -116.796)" fill="#fff"/>
        <path id="Trazado_562976" data-name="Trazado 562976" d="M107.157,471.524a.64.64,0,0,0,.154-1.261l-2.426-.6a.64.64,0,1,0-.308,1.241l2.426.6a.61.61,0,0,0,.155.02" transform="translate(-25.965 -117.151)" fill="#fff"/>
        <path id="Trazado_562977" data-name="Trazado 562977" d="M223.79,313.833c-.015.156-.038.307-.055.452-.079.062-.156.12-.231.176a54.3,54.3,0,0,1-20.244,9.449c-.252.062-.5.122-.756.179-1.235.284-2.473.531-3.705.738-1.674.278-3.35.492-5.009.636-1.47.13-2.932.207-4.375.233a53.85,53.85,0,0,1-17.089-2.285q-.286-.09-.569-.186a34.592,34.592,0,0,1-3.739-1.487c-.181-.083-.36-.165-.533-.254-.728-.356-1.426-.738-2.089-1.136.1-2.4.134-5.261.11-8.327,0-.254,0-.508-.006-.764-.041-4.264-.175-8.861-.34-13.069-.012-.2-.019-.395-.023-.594-.092-2.2-.192-4.285-.288-6.143-.014-.2-.021-.4-.032-.585-.083-1.572-.165-2.969-.242-4.119-.019-.292-.036-.582-.06-.868-.013-.226-.029-.45-.044-.67h0c-.06-.811-.13-1.6-.2-2.382-.1-1.244-.224-2.452-.352-3.628-.147-1.337-.3-2.64-.472-3.9q-.277-2.028-.58-3.913-.33-2.012-.681-3.874c-.835-4.371-1.774-8.122-2.712-11.36-.068-.222-.13-.438-.2-.657-.38-1.289-.758-2.486-1.129-3.609-.083-.248-.164-.489-.242-.732-2.084-6.193-3.813-9.93-3.841-12.438-.06-5.216,3.752-6.891,7.728-8.993.188-.1.377-.2.561-.3.67-.361,1.342-.742,1.993-1.155.275-.171.548-.352.814-.544.184-.13.363-.261.536-.39a11.75,11.75,0,0,0,3.856-4.9l15.037-3.169a21.52,21.52,0,0,0,3.848,1.389c.228.062.459.122.706.179.282.066.577.134.884.192.19.04.387.075.589.109.15.029.308.057.468.08a28.481,28.481,0,0,0,4.99.331c.188,0,.38-.007.573-.017l.409-.017a10.153,10.153,0,0,1,3.66.474h0c.224.069.447.149.664.239,4.885,1.954,8.726,7.79,11.215,16.757q1.036,3.74,2.032,7.3c.072.26.143.519.215.775.145.521.286,1.036.429,1.554h0c.055.188.1.375.155.563q.768,2.761,1.482,5.449v0l.153.574,0,0c.029.1.055.2.081.3l.272,1.049a171.645,171.645,0,0,1,3.946,18.84q.277,1.944.491,3.9c.036.317.074.672.111,1.065.008.071.015.145.025.218.013.135.028.272.043.416.008.069.015.141.021.212.241,2.361.551,5.637.854,9.245.017.191.036.384.049.576.7,8.408,1.321,18.407.826,22.8" transform="translate(-38.432 -54.696)" fill="#df615c"/>
        <path id="Trazado_562978" data-name="Trazado 562978" d="M182.885,232.055c6.008-1.266,9.248-8.777,9.386-9.1a.43.43,0,0,0-.792-.335c-.032.077-3.328,7.722-9.116,8.661-5.7.927-7.964-3.266-8.058-3.446a.43.43,0,0,0-.763.4,8.455,8.455,0,0,0,8.959,3.9q.194-.032.384-.072" transform="translate(-43.278 -55.466)" fill="#a92f4b"/>
        <path id="Trazado_562979" data-name="Trazado 562979" d="M189.535,334.106c5.646-1.189,11.477-4.087,17.306-8.643a75.839,75.839,0,0,0,13.306-13.577.43.43,0,0,0-.7-.5A74.819,74.819,0,0,1,206.3,324.8c-7.253,5.666-18.343,11.638-29.994,7.915a.429.429,0,1,0-.261.818,26.092,26.092,0,0,0,13.495.574" transform="translate(-43.838 -77.63)" fill="#a92f4b"/>
        <path id="Trazado_562980" data-name="Trazado 562980" d="M189.447,330.524h.007c8.79-2,13.514-15.271,13.711-15.835a.43.43,0,0,0-.812-.283c-.047.134-4.764,13.385-13.09,15.28a.43.43,0,0,0,.184.839" transform="translate(-47.128 -78.356)" fill="#a92f4b"/>
        <path id="Trazado_562981" data-name="Trazado 562981" d="M166.247,297.921a12.926,12.926,0,0,0,2.924-2.739c1.959-2.555,2.222-5.167.739-7.354-.3-.435-.571-.837-.829-1.21-3.022-4.413-3.339-4.873-3.074-12.13a6.593,6.593,0,0,0-1.911-5.332,7.206,7.206,0,0,0-3.084-1.619c.067.217.13.435.2.658a6.415,6.415,0,0,1,2.5,1.382,6.053,6.053,0,0,1,1.727,4.891c-.273,7.443.12,8.017,3.176,12.475.254.374.528.773.823,1.208,1.8,2.65.322,5.324-.721,6.683a12.235,12.235,0,0,1-2.512,2.414v0c.014.222.032.444.044.67" transform="translate(-40.164 -66.737)" fill="#a92f4b"/>
        <path id="Trazado_562982" data-name="Trazado 562982" d="M240.473,292.96a11.43,11.43,0,0,1-3.387,1.34,7.569,7.569,0,0,1-7.075-1.9,5.741,5.741,0,0,1-.383-7.967c2.24-2.557,1.276-3.919.059-5.646-1.2-1.7-2.692-3.812-1.14-7.524a7.51,7.51,0,0,1,4.083-4.336,7.644,7.644,0,0,1,2.7-.543c.051.19.1.382.153.573a7.2,7.2,0,0,0-2.64.5,6.974,6.974,0,0,0-3.767,4.024c-1.431,3.42-.152,5.226,1.082,6.974,1.256,1.776,2.441,3.459-.1,6.353a5.109,5.109,0,0,0,.357,7.184c2.1,2.119,5.847,2.849,9.992.341.013.135.028.272.043.416.007.07.015.141.021.212" transform="translate(-56.845 -66.448)" fill="#a92f4b"/>
        <path id="Trazado_562983" data-name="Trazado 562983" d="M192.155,293.475a6.55,6.55,0,0,0,7.455,2.85,12.089,12.089,0,0,0,1.352-.489c3.684-1.578,7.937-5.29,9.563-9.614a10.73,10.73,0,0,0-1.117-9.864c-2.941-4.611-4.646-8.892-4.932-12.377a4.543,4.543,0,0,0-8.549-1.743c-.053.1-.1.194-.155.294-2.477,4.834-1,8.33.306,11.414,1.368,3.224,2.547,6.013-1.188,9.633-3.4,3.3-4.424,7-2.736,9.9m3.134-9.484c4.02-3.893,2.706-6.991,1.317-10.271-1.317-3.113-2.68-6.331-.323-10.927l.148-.288a3.908,3.908,0,0,1,4.317-2.042,3.893,3.893,0,0,1,3.156,3.565,21.631,21.631,0,0,0,1.792,6.637,42.206,42.206,0,0,0,3.23,6,10.055,10.055,0,0,1,1.062,9.357,17.852,17.852,0,0,1-10.537,9.753,5.966,5.966,0,0,1-6.8-2.589c-1.547-2.659-.56-6.1,2.637-9.2" transform="translate(-47.733 -64.808)" fill="#a92f4b"/>
        <path id="Trazado_562984" data-name="Trazado 562984" d="M159.187,254.533c.08.241.16.482.242.731a9.085,9.085,0,0,0,5.325.459,10.224,10.224,0,0,0,1.933-.618c3.668-1.584,6.161-4.981,6.1-7.037a1.627,1.627,0,0,0-1.092-1.585c-3.945-1.437-5.557-4.045-6.155-9.967a5.143,5.143,0,0,0-1.9-3.711c-.187.1-.374.2-.561.3l.142.1a4.576,4.576,0,0,1,1.752,3.368c.625,6.189,2.334,8.923,6.529,10.451a1.044,1.044,0,0,1,.715,1.061c.055,1.87-2.394,5.044-5.754,6.5a8.782,8.782,0,0,1-7.272-.046" transform="translate(-39.709 -58.072)" fill="#a92f4b"/>
        <path id="Trazado_562985" data-name="Trazado 562985" d="M185.823,257.608a3.142,3.142,0,0,0,2.98.815,4.058,4.058,0,0,0,1.106-.414c1.816-1.006,2.493-3.1,1.807-5.615-.712-2.613.647-3.863,1.957-5.073,1.152-1.06,2.344-2.156,1.4-4.034a3.585,3.585,0,0,0-3.845-1.95,6.209,6.209,0,0,0-4.947,3.463c-1.679,3.325-3.288,9.744-.462,12.808m.974-12.55A5.764,5.764,0,0,1,190.7,242a5.2,5.2,0,0,1,.585-.088,3.016,3.016,0,0,1,3.281,1.633c.748,1.494-.1,2.276-1.281,3.358-1.3,1.2-2.926,2.7-2.121,5.646.609,2.237.038,4.094-1.531,4.959a2.836,2.836,0,0,1-3.387-.284c-2.631-2.854-1.058-8.975.552-12.163" transform="translate(-45.969 -60.195)" fill="#a92f4b"/>
        <path id="Trazado_562986" data-name="Trazado 562986" d="M174.985,285.529a4.854,4.854,0,0,0,1.982,3.364,6.35,6.35,0,0,0,4.263,1.046,2.277,2.277,0,0,0,1.221-.652c.928-1,.623-2.792-.844-4.921-1.7-2.467-.206-4.037,1.375-5.7,1.346-1.416,2.739-2.881,1.956-4.885-.563-1.439-1.855-2.109-3.737-1.941a6.967,6.967,0,0,0-6.192,6.038,24.436,24.436,0,0,0-.024,7.655m.593-7.578a6.49,6.49,0,0,1,1.653-3.534,6.27,6.27,0,0,1,3.314-1.907,5.957,5.957,0,0,1,.709-.105c1.647-.145,2.677.369,3.149,1.578.653,1.669-.555,2.939-1.834,4.286-1.591,1.674-3.4,3.573-1.431,6.423,1.3,1.886,1.625,3.419.891,4.2-.818.88-2.779.676-4.771-.5-1.831-1.078-2.429-4.787-1.68-10.448" transform="translate(-43.576 -67.803)" fill="#a92f4b"/>
        <path id="Trazado_562987" data-name="Trazado 562987" d="M168.732,318.987c2.3-.834,3.077.32,4.2,1.993,1,1.5,2.25,3.355,5.052,4.015a6.223,6.223,0,0,0,2.731.036,7.372,7.372,0,0,0,4.989-4.055,5.154,5.154,0,0,0-1.38-6.63,3.165,3.165,0,0,1-1.445-1.941c-.12-.9.556-1.774,1.276-2.7,1-1.282,2.129-2.735,1.263-4.59a4.153,4.153,0,0,0-3.615-2.458c-2.747-.2-5.825,1.657-7.844,4.729a10.084,10.084,0,0,1-5.569,4.274c.011.191.02.388.032.585a10.622,10.622,0,0,0,6.013-4.543,9.762,9.762,0,0,1,5.788-4.36,5.513,5.513,0,0,1,1.54-.114,3.609,3.609,0,0,1,3.138,2.129c.717,1.538-.214,2.733-1.2,4-.76.974-1.543,1.982-1.393,3.122a3.7,3.7,0,0,0,1.669,2.327,4.641,4.641,0,0,1,1.208,5.928,6.4,6.4,0,0,1-7.072,3.7c-2.583-.606-3.711-2.291-4.709-3.774-1.118-1.67-2.1-3.132-4.7-2.271.008.2.014.4.024.6" transform="translate(-42.004 -75.495)" fill="#a92f4b"/>
        <path id="Trazado_562988" data-name="Trazado 562988" d="M207.719,311.782A2.319,2.319,0,0,0,209.4,313.7a3.326,3.326,0,0,0,1.557.011,7.221,7.221,0,0,0,3.711-2.366c1.139-1.291,2.28-1.127,3.856-.9a9.561,9.561,0,0,0,5.869-.611,4.31,4.31,0,0,0,2.431-5.635,3.76,3.76,0,0,0-4.795-2.347,11.948,11.948,0,0,0-3.764,2.172A7.233,7.233,0,0,1,212.57,306a4.245,4.245,0,0,0-3.459,1.159c-1.623,1.663-1.406,4.47-1.4,4.589,0,.011,0,.02,0,.031m.565-.1c-.013-.214-.146-2.709,1.238-4.128a3.709,3.709,0,0,1,3.013-.983,7.789,7.789,0,0,0,6.081-2.095,11.359,11.359,0,0,1,3.592-2.084,3.206,3.206,0,0,1,4.078,2.016,3.749,3.749,0,0,1-2.132,4.9,8.923,8.923,0,0,1-5.55.567,7.186,7.186,0,0,0-2.478-.078,3.405,3.405,0,0,0-1.891,1.166c-1.446,1.64-3.374,2.535-4.687,2.183a1.751,1.751,0,0,1-1.262-1.464" transform="translate(-51.81 -75.243)" fill="#a92f4b"/>
        <path id="Trazado_562989" data-name="Trazado 562989" d="M239.908,328.7c-1.969,3.254-1.138,6.882.809,8.509a3.983,3.983,0,0,0,3.227.91c.079-.058.154-.117.232-.178.02-.144.041-.295.057-.454a3.448,3.448,0,0,1-3.149-.718c-1.759-1.47-2.5-4.781-.686-7.77,1.837-3.034.39-3.97-1.142-4.964-1.407-.913-2.865-1.855-2.645-4.578a4.425,4.425,0,0,1,1.619-3.21,6.952,6.952,0,0,1,2.965-1.3,13.2,13.2,0,0,1,2.211-.258c-.014-.193-.031-.386-.048-.575a9.393,9.393,0,0,0-5.492,1.693,4.975,4.975,0,0,0-1.828,3.608c-.247,3.064,1.5,4.195,2.905,5.105,1.512.981,2.512,1.628.964,4.185" transform="translate(-58.874 -78.355)" fill="#a92f4b"/>
        <path id="Trazado_562990" data-name="Trazado 562990" d="M177.637,355.679c.189.065.378.128.569.188a5.985,5.985,0,0,1,1.545-4.058c1.094-1.062,2.73-1.479,4.861-1.247a8.188,8.188,0,0,1,5.242,2.526c1.9,1.742,3.218,2.568,8.173-.671a15.332,15.332,0,0,1,5.156-2.273c2.464-.519,4.357-.011,5.348,1.01,1.219,1.256,1.157,3.24-.146,5.391.254-.057.505-.119.758-.18,1.178-2.207,1.121-4.253-.2-5.611-1.765-1.815-6.03-2.219-11.23,1.181-4.827,3.157-5.821,2.243-7.472.731a8.789,8.789,0,0,0-5.566-2.673c-2.313-.253-4.1.221-5.327,1.41a6.4,6.4,0,0,0-1.713,4.277" transform="translate(-44.311 -87.152)" fill="#a92f4b"/>
        <path id="Trazado_562991" data-name="Trazado 562991" d="M220.486,341.093a5.034,5.034,0,0,0,5.306,2.342c.1-.02.193-.044.287-.072,3.378-.955,5.322-3.692,5.472-7.707.116-3.1-.173-6.155-3.049-7.472a.263.263,0,0,0-.05-.016c-.133-.033-3.314-.806-5.3.543a3.45,3.45,0,0,0-1.474,2.532,6.393,6.393,0,0,0,.769,4.053c.538,1.081.783,1.575-.87,2.7a2.371,2.371,0,0,0-1.093,3.093m1.415-2.619c1.966-1.342,1.684-2.179,1.063-3.432a5.821,5.821,0,0,1-.718-3.722,2.91,2.91,0,0,1,1.231-2.135c1.687-1.146,4.515-.536,4.811-.467,2.057.955,2.837,2.962,2.689,6.916-.1,2.652-1.056,6.047-5.053,7.18a4.5,4.5,0,0,1-4.919-1.961c-.41-.877-.1-1.7.9-2.378" transform="translate(-54.943 -81.798)" fill="#a92f4b"/>
        <path id="Trazado_562992" data-name="Trazado 562992" d="M171.285,352.056c.174.09.352.173.531.255a5.563,5.563,0,0,0,1.463-4.536c-.375-2.6-2.548-4.771-3.979-5.944,0,.257.005.511.007.766,1.34,1.175,3.091,3.084,3.406,5.26A5.07,5.07,0,0,1,171.335,352c-.017.018-.033.039-.05.056" transform="translate(-42.232 -85.269)" fill="#a92f4b"/>
        <path id="Trazado_562993" data-name="Trazado 562993" d="M154.315,182.109s-8.522-1.8-8.718-5.05c-.182-3,3.363-2.685,3.363-2.685s-4.138-6.782-1.764-8.116,5.363,2.467,5.363,2.467-2.17-8.043.729-7.466,3.272,5,3.272,5,9.629-3.431,15.1-1.785a7.007,7.007,0,0,1,4.607,4.71s2.216-1.322,3.791-.507.134,3.575.134,3.575a4.894,4.894,0,0,1,1.686,4.84c-.744,2.969-2.868,8.841-2.868,8.841Z" transform="translate(-36.317 -40.219)" fill="#39393b"/>
        <path id="Trazado_562994" data-name="Trazado 562994" d="M173.233,216.255l.825,3.915a12.474,12.474,0,0,0,1.59.679c7.657,2.65,13.926-3.948,13.926-3.948l-2.86-13.572-11.872,11.385Z" transform="translate(-43.213 -50.72)" fill="#ea9b7a"/>
        <path id="Trazado_562995" data-name="Trazado 562995" d="M173.233,218.6l.825,3.915a12.474,12.474,0,0,0,1.59.679c5.3-3.51,8.238-10.47,8.238-10.47l-9.045,4.335Z" transform="translate(-43.213 -53.063)" fill="#39393b"/>
        <path id="Trazado_562996" data-name="Trazado 562996" d="M161.361,178.318s-9.271,2.884-3.771,12.058c0,0,4.534-9.518,3.771-12.058" transform="translate(-38.876 -44.481)" fill="#39393b"/>
        <path id="Trazado_562997" data-name="Trazado 562997" d="M160.644,198.555s-2.776-2.158-3.48.733,1.383,8,4.584,6.421Z" transform="translate(-39.17 -49.336)" fill="#d46a43"/>
        <path id="Trazado_562998" data-name="Trazado 562998" d="M160.243,202.572s1.693,8.1,10.108,6.3c8.363-1.778,12.679-9.549,12.912-9.916l.008-.01-.267-1.72-1.385-8.928-.739-4.773s-.722-8.721-9.123-8.569c-6.138.11-11.464,2.255-13.607,5.922a7.407,7.407,0,0,0-.951,4.652l1.525,8.531.374,2.09Z" transform="translate(-39.2 -43.643)" fill="#ea9b7a"/>
        <path id="Trazado_562999" data-name="Trazado 562999" d="M178.021,194.142s-1.24,4.972-3.979,4.741-5.782.079-7.894,1.663c0,0-4.243-.633-6.247,1.479-1.343,1.416,1.816,11.968,7.678,12.348s12.91-3.135,13.61-8.735a31.149,31.149,0,0,0-.352-10.02Z" transform="translate(-39.81 -48.428)" fill="#39393b"/>
        <path id="Trazado_563000" data-name="Trazado 563000" d="M166.024,205.231s4.734-.486,7.058-1.813c0,0,1.039,4.624-2.966,5.021-3.215.319-4.092-3.209-4.092-3.209" transform="translate(-41.414 -50.742)" fill="#fff"/>
        <path id="Trazado_563001" data-name="Trazado 563001" d="M174.165,198.127c.124.589,1.438.811,2.935.5s2.61-1.049,2.486-1.638-1.439-.811-2.935-.5-2.61,1.049-2.486,1.638" transform="translate(-43.443 -48.978)" fill="#d46a43"/>
        <path id="Trazado_563002" data-name="Trazado 563002" d="M159.62,202.407c.214-.023.435-.059.66-.107,1.5-.315,2.609-1.049,2.484-1.638s-1.438-.812-2.934-.5c-.2.043-.4.094-.584.15Z" transform="translate(-39.724 -49.895)" fill="#d46a43"/>
        <path id="Trazado_563003" data-name="Trazado 563003" d="M173.356,193.825c.17.809.675,1.388,1.129,1.292s.682-.829.511-1.638-.676-1.389-1.129-1.293-.682.829-.511,1.638" transform="translate(-43.229 -47.938)" fill="#39393b"/>
        <path id="Trazado_563004" data-name="Trazado 563004" d="M162.688,196.073c.17.809.675,1.388,1.129,1.292s.682-.829.511-1.638-.676-1.389-1.129-1.293-.682.829-.511,1.638" transform="translate(-40.568 -48.499)" fill="#39393b"/>
        <path id="Trazado_563005" data-name="Trazado 563005" d="M168.327,198.341a.34.34,0,0,0-.14-.666,2.332,2.332,0,0,1-2.183-.508c.751-3.018,1.489-6.055,1.5-6.085a.341.341,0,0,0-.662-.161c-.008.032-.774,3.185-1.539,6.259a.341.341,0,0,0,.058.287,2.909,2.909,0,0,0,2.969.874" transform="translate(-41.231 -47.56)" fill="#39393b"/>
        <path id="Trazado_563006" data-name="Trazado 563006" d="M176.14,187.655c-.365-.815-1.415-2.27-4.172-1.816a.733.733,0,0,0,.135,1.456,3.274,3.274,0,0,1,2.737,1.207.729.729,0,0,0,1.069.056l.071-.068a.736.736,0,0,0,.16-.835" transform="translate(-42.744 -46.336)" fill="#39393b"/>
        <path id="Trazado_563007" data-name="Trazado 563007" d="M159.077,191.1c.005-.893.379-2.648,3.086-3.345a.733.733,0,0,1,.463,1.387,3.276,3.276,0,0,0-2.017,2.209.729.729,0,0,1-.955.483l-.092-.034a.737.737,0,0,1-.483-.7" transform="translate(-39.681 -46.829)" fill="#39393b"/>
        <path id="Trazado_563008" data-name="Trazado 563008" d="M187.51,203.3c.057.081,1.643,2.328,3.327,2.728l.007-.01-.267-1.72a5.936,5.936,0,0,1-3.067-1" transform="translate(-46.774 -50.713)" fill="#39393b"/>
        <path id="Trazado_563009" data-name="Trazado 563009" d="M187.907,194.392s2.32-5.028,5.41-2.112c2.547,2.4.4,10.516-4,8.817Z" transform="translate(-46.873 -47.737)" fill="#ea9b7a"/>
        <path id="Trazado_563010" data-name="Trazado 563010" d="M189.864,200.417a.34.34,0,0,0,.268-.366,5.683,5.683,0,0,1,2.288-5.165.34.34,0,0,0-.378-.567,6.368,6.368,0,0,0-2.587,5.8.34.34,0,0,0,.372.305l.037-.006" transform="translate(-47.251 -48.458)" fill="#39393b"/>
        <path id="Trazado_563011" data-name="Trazado 563011" d="M192.721,198.536a.34.34,0,0,0,.086-.636,3.272,3.272,0,0,0-2.493-.3.34.34,0,1,0,.3.61,2.706,2.706,0,0,1,1.881.3.337.337,0,0,0,.226.031" transform="translate(-47.426 -49.25)" fill="#39393b"/>
        <path id="Trazado_563012" data-name="Trazado 563012" d="M158.482,180.88a1.5,1.5,0,0,0,.521.648c2,1.371,5.734-.053,9.084-1.914a6.433,6.433,0,0,1,6.413.208c-.273,3.64,3.159,3.206,2.988,5.956a21.2,21.2,0,0,0,.828,6.124l2.044-.721a5.24,5.24,0,0,1,1.592-2.881l-.74-4.773s-.722-8.721-9.123-8.57c-6.137.112-11.463,2.256-13.606,5.923" transform="translate(-39.533 -43.642)" fill="#39393b"/>
        <path id="Trazado_563013" data-name="Trazado 563013" d="M212,335.173s8.014,31.622-33.542,31.622c-22.2,0-32.746-2.143-32.746-2.143s-.534,19.6-1.566,27.867-4.692,28.869-4.692,28.869l-17.482,1.354s-2.793-71.75,7.921-78.358,26.118-6.8,52.568-9.341c0,0,23.746-4.02,29.538.13" transform="translate(-30.344 -83.14)" fill="#39393b"/>
        <path id="Trazado_563014" data-name="Trazado 563014" d="M142.026,416.037a.477.477,0,0,1-.463-.586c2.415-10.093,3.374-24.552,4.146-36.171.76-11.453,1.213-17.478,2.4-18.531,1.31-1.159,5.2-.745,11.652-.059,7.99.85,20.064,2.134,33.084.641,6.467-.742,11.424-3.275,14.734-7.528,5.938-7.629,4.575-18.34,4.561-18.448a.476.476,0,0,1,.943-.128c.062.454,1.434,11.2-4.749,19.153-3.473,4.467-8.648,7.123-15.38,7.894-13.124,1.5-25.261.215-33.294-.639-5.544-.59-9.923-1.055-10.921-.174-.225.2-.672,1.183-1.136,5.529-.342,3.21-.624,7.447-.949,12.353-.774,11.655-1.736,26.158-4.169,36.329a.477.477,0,0,1-.462.365" transform="translate(-35.309 -83.519)" fill="#585859"/>
        <path id="Trazado_563015" data-name="Trazado 563015" d="M122.176,444.257a.476.476,0,0,1-.029-.95l17.877-1.078a.476.476,0,0,1,.058.949l-17.877,1.078h-.029" transform="translate(-30.358 -110.313)" fill="#585859"/>
        <path id="Trazado_563016" data-name="Trazado 563016" d="M168.934,345.569H116.568a.216.216,0,0,1-.216-.216V338.9a.215.215,0,0,1,.216-.215h52.366a.215.215,0,0,1,.215.215v6.449a.216.216,0,0,1-.215.216" transform="translate(-29.024 -84.485)" fill="#ced3e6"/>
        <path id="Trazado_563017" data-name="Trazado 563017" d="M104.279,333a4.387,4.387,0,0,1-4.239-3.255l-9.874-36.977a3.559,3.559,0,0,1,3.439-4.477h23.639a3.559,3.559,0,0,1,3.427,2.6L132.5,333Z" transform="translate(-22.461 -71.913)" fill="#fff"/>
        <path id="Trazado_563018" data-name="Trazado 563018" d="M129.713,290.883l11.731,41.766h2.7l-11.731-41.766a3.564,3.564,0,0,0-3.428-2.6h-2.7a3.565,3.565,0,0,1,3.428,2.6" transform="translate(-31.502 -71.912)" fill="#ced3e6"/>
        <path id="Trazado_563019" data-name="Trazado 563019" d="M119.122,317.473a3.236,3.236,0,0,1-3.231,4.2,5.614,5.614,0,0,1-5.178-4.2,3.236,3.236,0,0,1,3.232-4.2,5.613,5.613,0,0,1,5.177,4.2" transform="translate(-27.589 -78.144)" fill="#ced3e6"/>
        <path id="Trazado_563020" data-name="Trazado 563020" d="M160.216,327.781s-10.716.738-14.142,4.013l2.083,7.416s6.409-2.619,8.184-2.366,2.835,3.17,8.771,1.395Z" transform="translate(-36.438 -81.764)" fill="#ea9b7a"/>
        <path id="Trazado_563021" data-name="Trazado 563021" d="M163.683,303.631l1.208-.492,1.255-.527q1.258-.535,2.513-1.092,2.509-1.115,4.983-2.3c3.293-1.584,6.528-3.262,9.648-5.046a93.237,93.237,0,0,0,8.881-5.7c.685-.507,1.357-1.02,2-1.542s1.271-1.051,1.867-1.584a27.821,27.821,0,0,0,3.1-3.228,13.873,13.873,0,0,0,1.073-1.525,10.513,10.513,0,0,0,.7-1.432,17.89,17.89,0,0,0,.976-3.688,38.3,38.3,0,0,0,.172-9.217,74.9,74.9,0,0,0-1.623-10.008c-.383-1.68-.815-3.361-1.289-5.024-.237-.831-.486-1.658-.743-2.472-.129-.406-.26-.81-.393-1.2l-.2-.581-.1-.275-.047-.127-.021-.057-.01-.021a9.468,9.468,0,1,1,17.613-6.792l.286.984.076.261.059.212.109.4.2.781c.131.514.255,1.021.375,1.528.239,1.013.462,2.019.669,3.028.417,2.016.78,4.038,1.088,6.079a91.968,91.968,0,0,1,1.07,12.527,63.988,63.988,0,0,1-.242,6.555,46.989,46.989,0,0,1-1.109,6.829,33.391,33.391,0,0,1-2.562,7.077,25.97,25.97,0,0,1-2.119,3.492,30.048,30.048,0,0,1-2.439,2.932,43.321,43.321,0,0,1-5.121,4.585c-1.735,1.332-3.489,2.523-5.252,3.629a107.384,107.384,0,0,1-10.689,5.8c-3.6,1.714-7.217,3.259-10.866,4.692q-2.738,1.073-5.5,2.062-1.383.494-2.778.968l-1.4.469-1.463.471a6.044,6.044,0,0,1-4.158-11.34Z" transform="translate(-39.849 -58.101)" fill="#ea9b7a"/>
        <path id="Trazado_563022" data-name="Trazado 563022" d="M220.664,299.448a.385.385,0,0,1-.108-.016,27.081,27.081,0,0,0-7.778-.925.375.375,0,0,1-.035-.75,27.3,27.3,0,0,1,8.028.956.375.375,0,0,1-.107.735" transform="translate(-52.979 -74.272)" fill="#d46a43"/>
        <path id="Trazado_563023" data-name="Trazado 563023" d="M214.014,297.951a.375.375,0,0,1-.245-.659,9.49,9.49,0,0,1,3.149-1.717.375.375,0,0,1,.213.72,8.875,8.875,0,0,0-2.872,1.565.374.374,0,0,1-.245.092" transform="translate(-53.292 -73.727)" fill="#d46a43"/>
        <path id="Trazado_563024" data-name="Trazado 563024" d="M232.418,257.664l-7.768,2.132-.57.158-5.366,1.471-.653.18-6.905,1.891-.533-2.447-.12-.585-1.246-5.749-.128-.578-2.349-10.845a22.976,22.976,0,0,1-.706-8.2,10.644,10.644,0,0,1,9.975-9.037,7.65,7.65,0,0,1,3.085.458,5.415,5.415,0,0,1,.578.225,12.335,12.335,0,0,1,4.841,4.376c.113.158.218.315.315.48,2.627,3.993,4.421,9.577,5.622,14.8.053.2.1.405.143.608.555,2.484.976,4.879,1.291,6.95q.079.484.135.946c.15,1.028.27,1.959.36,2.77" transform="translate(-51.373 -56.385)" fill="#df615c"/>
        <path id="Trazado_563025" data-name="Trazado 563025" d="M237.314,260.563a4.468,4.468,0,0,0-4.091-1.081c-2.282.405-4.076-.33-4.8-1.974a2.838,2.838,0,0,1,.585-3.347c1.756-1.351,4.451-1.238,7.01-.548-.045-.2-.09-.405-.143-.608-2.627-.668-5.374-.713-7.22.7a3.15,3.15,0,0,0-1.073,2.9,4.227,4.227,0,0,0,.308,1.141c.841,1.9,2.875,2.762,5.434,2.3a4.006,4.006,0,0,1,4.121,1.464q-.056-.462-.135-.946" transform="translate(-56.765 -62.999)" fill="#a92f4b"/>
        <path id="Trazado_563026" data-name="Trazado 563026" d="M227.446,237.12c-1.591-2.3-.4-3.828,1.058-5.374-.1-.165-.2-.323-.315-.48-1.539,1.614-3.092,3.468-1.216,6.185,1.3,1.884,1.621,3.415.893,4.2-.818.878-2.785.676-4.773-.5-1.831-1.081-2.424-4.789-1.681-10.448a6.514,6.514,0,0,1,1.651-3.535c.09-.1.188-.2.285-.285a5.417,5.417,0,0,0-.578-.225,7.046,7.046,0,0,0-1.929,3.963,24.713,24.713,0,0,0-.023,7.656,4.892,4.892,0,0,0,1.981,3.37,6.372,6.372,0,0,0,4.263,1.043,2.285,2.285,0,0,0,1.223-.653c.931-1,.623-2.792-.841-4.924" transform="translate(-55.01 -56.541)" fill="#a92f4b"/>
        <path id="Trazado_563027" data-name="Trazado 563027" d="M209.223,258.59c-1.274-7.584-2.888-14.689-2.905-14.766a.282.282,0,0,0-.55.125c.017.077,1.62,7.136,2.89,14.686.084.3.565.314.565-.046" transform="translate(-51.327 -60.767)" fill="#a92f4b"/>
        <path id="Trazado_563028" data-name="Trazado 563028" d="M206.569,250.56a.278.278,0,0,1-.152-.044l-2.929-1.876a.283.283,0,0,1,.3-.476l2.929,1.876a.282.282,0,0,1-.152.52" transform="translate(-50.727 -61.893)" fill="#a92f4b"/>
        <path id="Trazado_563029" data-name="Trazado 563029" d="M179.929,244.06a4.019,4.019,0,0,1-2.711-1.074c-4.628-4.078-4.608-18.89-4.605-19.519a.539.539,0,0,1,.538-.536h0a.539.539,0,0,1,.535.541c0,.149-.021,14.95,4.241,18.706a2.917,2.917,0,0,0,2.418.776c5.694-.751,8.288-17.329,8.808-23.654a.538.538,0,0,1,1.073.088,91.351,91.351,0,0,1-1.885,11.788c-1.91,8.089-4.553,12.411-7.855,12.846a4.351,4.351,0,0,1-.561.038" transform="translate(-43.058 -54.581)" fill="#fff"/>
        <path id="Trazado_563030" data-name="Trazado 563030" d="M220.241,435.252H164.117a2.377,2.377,0,0,1,0-4.755h56.124a2.377,2.377,0,0,1,0,4.755" transform="translate(-40.346 -107.387)" fill="#084fc7"/>
        <path id="Trazado_563031" data-name="Trazado 563031" d="M157.236,458.254a2.377,2.377,0,0,1-2.359-2.693L165.1,379.227a2.378,2.378,0,0,1,2.356-2.062h45.79a2.378,2.378,0,0,1,2.357,2.066l10.064,76.334a2.377,2.377,0,0,1-4.713.621l-9.792-74.267H169.537l-9.948,74.272a2.378,2.378,0,0,1-2.353,2.063" transform="translate(-38.628 -94.083)" fill="#0875f7"/>
        <path id="Trazado_563032" data-name="Trazado 563032" d="M189.314,353.105h29.739c9.422,0,19.511-5.156,20.957-14.466a176.659,176.659,0,0,0,1.873-35.569c-.611-12.512-5.472-24.127-15.308-31.885,0,0,4.247,48.26.416,61.593-5.12,17.815-37.676,20.327-37.676,20.327" transform="translate(-47.224 -67.647)" fill="#0875f7"/>
        <path id="Trazado_563033" data-name="Trazado 563033" d="M68.056,246.782v14.276a3.419,3.419,0,0,0,3.418,3.418H97.4l7.826,2.808a1,1,0,0,0,1.265-1.3l-2.961-7.644V246.782a3.419,3.419,0,0,0-3.42-3.418H71.474a3.419,3.419,0,0,0-3.418,3.418" transform="translate(-16.976 -60.707)" fill="#0875f7"/>
        <path id="Trazado_563034" data-name="Trazado 563034" d="M98.06,257.147a2.473,2.473,0,1,0,2.472-2.472,2.473,2.473,0,0,0-2.472,2.472" transform="translate(-24.461 -63.528)" fill="#084fc7"/>
        <path id="Trazado_563035" data-name="Trazado 563035" d="M87.631,257.147a2.473,2.473,0,1,0,2.472-2.472,2.473,2.473,0,0,0-2.472,2.472" transform="translate(-21.859 -63.528)" fill="#084fc7"/>
        <path id="Trazado_563036" data-name="Trazado 563036" d="M77.2,257.147a2.473,2.473,0,1,0,2.473-2.472,2.473,2.473,0,0,0-2.473,2.472" transform="translate(-19.258 -63.528)" fill="#084fc7"/>
      </g>
    </g>
  </g>
</svg>
