<svg xmlns="http://www.w3.org/2000/svg" xmlns:xlink="http://www.w3.org/1999/xlink" width="610" height="491.284" viewBox="0 0 610 491.284">
  <defs>
    <clipPath id="clip-path">
      <rect id="Rectángulo_278895" data-name="Rectángulo 278895" width="67.5" height="67.52" fill="none"/>
    </clipPath>
  </defs>
  <g id="Grupo_841444" data-name="Grupo 841444" transform="translate(-495 -1193.698)">
    <path id="Trazado_151776" data-name="Trazado 151776" d="M422.271,376.174l-17.819,30.788h36.909Z" transform="translate(554.201 1248.76)" fill="#147dc4"/>
    <path id="Trazado_151777" data-name="Trazado 151777" d="M407.983,133.052h68.575l53.761,93.115-53.761,93.115H407.976l-9.758-16.9H466.8l44-76.215-44-76.217H398.225Z" transform="translate(553.288 1213.173)" fill="#fff2be"/>
    <path id="Trazado_151778" data-name="Trazado 151778" d="M72.4,133.046h68.6l9.757,16.9h-68.6l-44,76.222,44,76.217h68.6l-9.757,16.9H72.4L18.636,226.168Z" transform="translate(497.728 1213.172)" fill="#67ebfd"/>
    <path id="Trazado_151779" data-name="Trazado 151779" d="M300.332.013,266.056,59.381l9.758,16.9L310.09,16.912H398.1l44,76.217-34.29,59.4h19.515l34.291-59.4L407.856.013Z" transform="translate(533.943 1193.7)" fill="#ffd947"/>
    <path id="Trazado_151780" data-name="Trazado 151780" d="M149.22,0,95.459,93.123l34.29,59.4h19.516l-34.291-59.4,44-76.223h88.009l34.283,59.39,9.757-16.907L256.743,0Z" transform="translate(508.973 1193.698)" fill="#a5f4ff"/>
    <path id="Trazado_151781" data-name="Trazado 151781" d="M407.806,295.5l34.3,59.4-44,76.222H310.092l-34.283-59.382-9.758,16.9,34.283,59.382H407.858l53.761-93.122-34.3-59.4Z" transform="translate(533.942 1236.951)" fill="#147dc4"/>
    <path id="Trazado_151782" data-name="Trazado 151782" d="M129.749,295.5l-34.29,59.4,53.761,93.115H256.743l34.277-59.368-9.75-16.907-34.283,59.375H158.977l-44-76.215,34.29-59.4Z" transform="translate(508.973 1236.951)" fill="#e2f2ff"/>
    <path id="Trazado_151784" data-name="Trazado 151784" d="M471.29,294.212H389.449l-40.921-70.877,40.921-70.877H471.29l40.921,70.877Z" transform="translate(546.015 1216.014)" fill="none" stroke="#e8e8e8" stroke-linecap="round" stroke-linejoin="round" stroke-width="1.22"/>
    <path id="Trazado_151785" data-name="Trazado 151785" d="M467.391,288.147h-75.63l-37.815-65.5,37.815-65.5h75.63l37.815,65.5Z" transform="translate(546.808 1216.7)" fill="none" stroke="#fff2be" stroke-linecap="round" stroke-linejoin="round" stroke-width="2.44"/>
    <path id="Trazado_151787" data-name="Trazado 151787" d="M164.056,294.21H82.216L41.295,223.333l40.921-70.877h81.841l40.921,70.877Z" transform="translate(501.044 1216.014)" fill="none" stroke="#e8e8e8" stroke-linecap="round" stroke-linejoin="round" stroke-width="1.22"/>
    <path id="Trazado_151788" data-name="Trazado 151788" d="M160.158,288.145H84.528l-37.815-65.5,37.815-65.5h75.63l37.815,65.5Z" transform="translate(501.837 1216.7)" fill="none" stroke="#67ebfd" stroke-linecap="round" stroke-linejoin="round" stroke-width="2.44"/>
    <path id="Trazado_151790" data-name="Trazado 151790" d="M394.485,161.176H312.645L271.724,90.3l40.921-70.877h81.841L435.406,90.3Z" transform="translate(534.773 1196.541)" fill="none" stroke="#e8e8e8" stroke-linecap="round" stroke-linejoin="round" stroke-width="1.22"/>
    <path id="Trazado_151791" data-name="Trazado 151791" d="M390.587,155.11h-75.63l-37.815-65.5,37.815-65.5h75.63l37.815,65.5Z" transform="translate(535.566 1197.228)" fill="none" stroke="#f9d963" stroke-linecap="round" stroke-linejoin="round" stroke-width="2.44"/>
    <path id="Trazado_151793" data-name="Trazado 151793" d="M240.884,161.164H159.044L118.123,90.288l40.921-70.877h81.841l40.921,70.877Z" transform="translate(512.29 1196.539)" fill="none" stroke="#e8e8e8" stroke-linecap="round" stroke-linejoin="round" stroke-width="1.22"/>
    <path id="Trazado_151794" data-name="Trazado 151794" d="M236.986,155.1h-75.63L123.541,89.6l37.815-65.5h75.63L274.8,89.6Z" transform="translate(513.083 1197.227)" fill="none" stroke="#a5f4ff" stroke-linecap="round" stroke-linejoin="round" stroke-width="2.44"/>
    <path id="Trazado_151796" data-name="Trazado 151796" d="M394.485,427.261H312.645l-40.921-70.877,40.921-70.877h81.841l40.921,70.877Z" transform="translate(534.773 1235.488)" fill="none" stroke="#e8e8e8" stroke-linecap="round" stroke-linejoin="round" stroke-width="1.22"/>
    <path id="Trazado_151797" data-name="Trazado 151797" d="M390.587,421.2h-75.63l-37.815-65.5,37.815-65.5h75.63L428.4,355.7Z" transform="translate(535.566 1236.175)" fill="none" stroke="#147dc4" stroke-linecap="round" stroke-linejoin="round" stroke-width="2.44"/>
    <path id="Trazado_151799" data-name="Trazado 151799" d="M240.884,427.249H159.044l-40.921-70.877L159.044,285.5h81.841l40.921,70.877Z" transform="translate(512.29 1235.486)" fill="none" stroke="#e8e8e8" stroke-linecap="round" stroke-linejoin="round" stroke-width="1.22"/>
    <path id="Trazado_151800" data-name="Trazado 151800" d="M236.986,421.184h-75.63l-37.815-65.5,37.815-65.5h75.63l37.815,65.5Z" transform="translate(513.083 1236.174)" fill="none" stroke="#e2f2ff" stroke-linecap="round" stroke-linejoin="round" stroke-width="2.44"/>
    <path id="Trazado_151801" data-name="Trazado 151801" d="M422.271,56.313,404.452,25.525h36.909Z" transform="translate(554.201 1197.435)" fill="#ffd947"/>
    <path id="Trazado_151802" data-name="Trazado 151802" d="M503.906,234.874l32.336-16.331-31.5-19.232Z" transform="translate(568.758 1222.872)" fill="#fff2be"/>
    <path id="Trazado_151803" data-name="Trazado 151803" d="M0,218.543l32.336,16.331L31.5,199.312Z" transform="translate(495 1222.872)" fill="#67ebfd"/>
    <path id="Trazado_151804" data-name="Trazado 151804" d="M114.554,56.313l17.819-30.788H95.465Z" transform="translate(508.974 1197.435)" fill="#a5f4ff"/>
    <path id="Trazado_151805" data-name="Trazado 151805" d="M114.554,376.174l17.819,30.788H95.465Z" transform="translate(508.974 1248.76)" fill="#e2f2ff"/>
    <path id="Trazado_563038" data-name="Trazado 563038" d="M58.89,13.771H53.827V19H51.19V6.2h8.332V8.339h-5.7v3.3H58.89Zm1.415.387a5.64,5.64,0,0,1,.545-2.522,3.989,3.989,0,0,1,1.569-1.714A4.577,4.577,0,0,1,64.8,9.314a4.33,4.33,0,0,1,3.142,1.178,4.727,4.727,0,0,1,1.358,3.2l.018.65a4.97,4.97,0,0,1-1.222,3.511,4.735,4.735,0,0,1-6.561,0A5.058,5.058,0,0,1,60.3,14.271Zm2.54.18a3.555,3.555,0,0,0,.51,2.073,1.831,1.831,0,0,0,2.9.009,3.89,3.89,0,0,0,.519-2.267,3.519,3.519,0,0,0-.519-2.06,1.686,1.686,0,0,0-1.459-.731,1.658,1.658,0,0,0-1.441.726A3.955,3.955,0,0,0,62.845,14.338Zm13.377-2.465a6.9,6.9,0,0,0-.914-.07,1.86,1.86,0,0,0-1.89.976V19h-2.54V9.49h2.4l.07,1.134a2.354,2.354,0,0,1,2.118-1.31,2.662,2.662,0,0,1,.791.114Zm3.6-2.382.079,1.063a3.342,3.342,0,0,1,2.733-1.239,2.536,2.536,0,0,1,2.522,1.45,3.265,3.265,0,0,1,2.856-1.45,2.836,2.836,0,0,1,2.3.9,4.141,4.141,0,0,1,.756,2.711V19H88.526V12.936a1.811,1.811,0,0,0-.316-1.182,1.4,1.4,0,0,0-1.116-.374,1.585,1.585,0,0,0-1.582,1.09L85.521,19H82.98V12.944a1.789,1.789,0,0,0-.325-1.2,1.416,1.416,0,0,0-1.107-.369,1.646,1.646,0,0,0-1.564.9V19h-2.54V9.49ZM98.537,19a2.821,2.821,0,0,1-.255-.853,3.073,3.073,0,0,1-2.4,1.028,3.376,3.376,0,0,1-2.316-.809,2.6,2.6,0,0,1-.918-2.039,2.687,2.687,0,0,1,1.121-2.32,5.529,5.529,0,0,1,3.239-.817h1.169v-.545a1.567,1.567,0,0,0-.338-1.055,1.331,1.331,0,0,0-1.068-.4,1.513,1.513,0,0,0-1.006.308,1.045,1.045,0,0,0-.365.844h-2.54a2.551,2.551,0,0,1,.51-1.529,3.37,3.37,0,0,1,1.441-1.1,5.253,5.253,0,0,1,2.092-.4,4.15,4.15,0,0,1,2.791.883,3.09,3.09,0,0,1,1.033,2.483V16.8a4.546,4.546,0,0,0,.378,2.048V19Zm-2.1-1.767a2.188,2.188,0,0,0,1.037-.25,1.645,1.645,0,0,0,.7-.672V14.676h-.949q-1.907,0-2.03,1.318l-.009.149a1.017,1.017,0,0,0,.334.782A1.3,1.3,0,0,0,96.437,17.233Zm9.281-10.081V9.49h1.626v1.863h-1.626V16.1a1.133,1.133,0,0,0,.2.756,1.015,1.015,0,0,0,.773.229,4.051,4.051,0,0,0,.747-.062v1.925a5.229,5.229,0,0,1-1.538.229,2.425,2.425,0,0,1-2.725-2.7V11.354h-1.389V9.49h1.389V7.152Zm2.382,7a5.64,5.64,0,0,1,.545-2.522,3.989,3.989,0,0,1,1.569-1.714,4.577,4.577,0,0,1,2.377-.606,4.33,4.33,0,0,1,3.142,1.178,4.727,4.727,0,0,1,1.358,3.2l.018.65a4.97,4.97,0,0,1-1.222,3.511,4.735,4.735,0,0,1-6.561,0,5.058,5.058,0,0,1-1.226-3.586Zm2.54.18a3.555,3.555,0,0,0,.51,2.073,1.831,1.831,0,0,0,2.9.009,3.89,3.89,0,0,0,.519-2.267,3.519,3.519,0,0,0-.519-2.06,1.686,1.686,0,0,0-1.459-.731,1.658,1.658,0,0,0-1.441.726A3.955,3.955,0,0,0,110.64,14.338Zm13.184,2.035a.818.818,0,0,0-.461-.734,5.241,5.241,0,0,0-1.481-.479q-3.393-.712-3.393-2.883a2.613,2.613,0,0,1,1.05-2.114,4.237,4.237,0,0,1,2.747-.848,4.56,4.56,0,0,1,2.9.853,2.687,2.687,0,0,1,1.085,2.215h-2.54a1.229,1.229,0,0,0-.352-.9,1.488,1.488,0,0,0-1.1-.356,1.52,1.52,0,0,0-.993.29.916.916,0,0,0-.352.738.783.783,0,0,0,.4.681,4.114,4.114,0,0,0,1.349.448,11.019,11.019,0,0,1,1.6.426,2.628,2.628,0,0,1,2.013,2.558,2.481,2.481,0,0,1-1.116,2.1,4.815,4.815,0,0,1-2.883.8,5.029,5.029,0,0,1-2.123-.426,3.561,3.561,0,0,1-1.455-1.169,2.716,2.716,0,0,1-.527-1.6H120.6a1.326,1.326,0,0,0,.5,1.037,1.987,1.987,0,0,0,1.248.36,1.839,1.839,0,0,0,1.1-.277A.861.861,0,0,0,123.823,16.372Zm-77.2,21.8a5.731,5.731,0,0,1,1-3.542,3.237,3.237,0,0,1,2.729-1.318,2.913,2.913,0,0,1,2.294,1.037V29.5h2.549V43H52.9l-.123-1.011a2.989,2.989,0,0,1-2.443,1.187,3.228,3.228,0,0,1-2.694-1.323A5.916,5.916,0,0,1,46.62,38.175Zm2.54.189a3.754,3.754,0,0,0,.466,2.051,1.517,1.517,0,0,0,1.354.713,1.7,1.7,0,0,0,1.661-.995V36.375A1.675,1.675,0,0,0,51,35.38Q49.16,35.38,49.16,38.364Zm12.375,4.812a4.668,4.668,0,0,1-3.406-1.283,4.561,4.561,0,0,1-1.314-3.419v-.246a5.745,5.745,0,0,1,.554-2.562,4.064,4.064,0,0,1,1.569-1.74,4.4,4.4,0,0,1,2.316-.611,3.947,3.947,0,0,1,3.072,1.23,5,5,0,0,1,1.121,3.489v1.037H59.391a2.36,2.36,0,0,0,.743,1.494,2.245,2.245,0,0,0,1.569.563A2.742,2.742,0,0,0,64,40.064l1.248,1.4A3.813,3.813,0,0,1,63.7,42.723,5.075,5.075,0,0,1,61.535,43.176Zm-.29-7.813a1.587,1.587,0,0,0-1.226.512,2.651,2.651,0,0,0-.6,1.466H62.95v-.2a1.891,1.891,0,0,0-.457-1.311A1.638,1.638,0,0,0,61.245,35.362ZM74.341,43H71.7V30.2h2.637ZM79,33.49l.079,1.063a3.342,3.342,0,0,1,2.733-1.239,2.536,2.536,0,0,1,2.522,1.45,3.265,3.265,0,0,1,2.856-1.45,2.836,2.836,0,0,1,2.3.9,4.141,4.141,0,0,1,.756,2.711V43H87.7V36.936a1.811,1.811,0,0,0-.316-1.182,1.4,1.4,0,0,0-1.116-.374,1.585,1.585,0,0,0-1.582,1.09L84.694,43h-2.54V36.944a1.789,1.789,0,0,0-.325-1.2,1.416,1.416,0,0,0-1.107-.369,1.646,1.646,0,0,0-1.564.9V43h-2.54V33.49ZM97.711,43a2.821,2.821,0,0,1-.255-.853,3.073,3.073,0,0,1-2.4,1.028,3.376,3.376,0,0,1-2.316-.809,2.6,2.6,0,0,1-.918-2.039,2.687,2.687,0,0,1,1.121-2.32,5.529,5.529,0,0,1,3.239-.817h1.169v-.545a1.567,1.567,0,0,0-.338-1.055,1.331,1.331,0,0,0-1.068-.4,1.513,1.513,0,0,0-1.006.308,1.045,1.045,0,0,0-.365.844h-2.54a2.551,2.551,0,0,1,.51-1.529,3.37,3.37,0,0,1,1.441-1.1,5.253,5.253,0,0,1,2.092-.4,4.15,4.15,0,0,1,2.791.883A3.09,3.09,0,0,1,99.9,36.681V40.8a4.546,4.546,0,0,0,.378,2.048V43Zm-2.1-1.767a2.188,2.188,0,0,0,1.037-.25,1.645,1.645,0,0,0,.7-.672V38.676H96.4q-1.907,0-2.03,1.318l-.009.149a1.017,1.017,0,0,0,.334.782A1.3,1.3,0,0,0,95.61,41.233Zm5.871-3.059a5.573,5.573,0,0,1,1.042-3.524,3.375,3.375,0,0,1,2.808-1.336,2.96,2.96,0,0,1,2.435,1.072l.105-.9h2.3v9.193a4.064,4.064,0,0,1-.567,2.171,3.641,3.641,0,0,1-1.6,1.406,5.608,5.608,0,0,1-2.408.483,5.215,5.215,0,0,1-2.039-.417,3.619,3.619,0,0,1-1.5-1.077l1.125-1.547a2.975,2.975,0,0,0,2.3,1.063,2.178,2.178,0,0,0,1.573-.541,2.027,2.027,0,0,0,.563-1.534v-.51a2.938,2.938,0,0,1-2.312.993,3.366,3.366,0,0,1-2.773-1.34,5.572,5.572,0,0,1-1.059-3.555Zm2.54.189a3.47,3.47,0,0,0,.519,2.029,1.65,1.65,0,0,0,1.424.735,1.764,1.764,0,0,0,1.661-.871V36.251a1.76,1.76,0,0,0-1.644-.871,1.66,1.66,0,0,0-1.437.748A3.911,3.911,0,0,0,104.021,38.364Zm12.48,4.812a4.668,4.668,0,0,1-3.406-1.283,4.561,4.561,0,0,1-1.314-3.419v-.246a5.745,5.745,0,0,1,.554-2.562,4.064,4.064,0,0,1,1.569-1.74,4.4,4.4,0,0,1,2.316-.611,3.947,3.947,0,0,1,3.072,1.23,5,5,0,0,1,1.121,3.489v1.037h-6.056a2.36,2.36,0,0,0,.743,1.494,2.245,2.245,0,0,0,1.569.563,2.742,2.742,0,0,0,2.294-1.063l1.248,1.4a3.813,3.813,0,0,1-1.547,1.261A5.075,5.075,0,0,1,116.5,43.176Zm-.29-7.813a1.587,1.587,0,0,0-1.226.512,2.651,2.651,0,0,0-.6,1.466h3.533v-.2a1.891,1.891,0,0,0-.457-1.311A1.638,1.638,0,0,0,116.212,35.362Zm7.98-1.872.079,1.1A3.32,3.32,0,0,1,127,33.314a2.759,2.759,0,0,1,2.25.888,4.142,4.142,0,0,1,.756,2.654V43h-2.54V36.918a1.648,1.648,0,0,0-.352-1.173,1.574,1.574,0,0,0-1.169-.365,1.747,1.747,0,0,0-1.608.914V43H121.8V33.49Z" transform="translate(711.5 1413.465)" fill="#12263f"/>
    <g id="Grupo_144943" data-name="Grupo 144943" transform="translate(157.5 258.465)">
      <circle id="Elipse_4886" data-name="Elipse 4886" cx="2.5" cy="2.5" r="2.5" transform="translate(615 1213)" fill="#12263f"/>
      <circle id="Elipse_4891" data-name="Elipse 4891" cx="2.5" cy="2.5" r="2.5" transform="translate(645 1213)" fill="#12263f"/>
      <circle id="Elipse_4887" data-name="Elipse 4887" cx="2.5" cy="2.5" r="2.5" transform="translate(625 1213)" fill="#12263f"/>
      <circle id="Elipse_4890" data-name="Elipse 4890" cx="2.5" cy="2.5" r="2.5" transform="translate(655 1213)" fill="#12263f"/>
      <circle id="Elipse_4888" data-name="Elipse 4888" cx="2.5" cy="2.5" r="2.5" transform="translate(635 1213)" fill="#12263f"/>
      <circle id="Elipse_4889" data-name="Elipse 4889" cx="2.5" cy="2.5" r="2.5" transform="translate(665 1213)" fill="#12263f"/>
    </g>
    <path id="Trazado_151850" data-name="Trazado 151850" d="M34.828,0,0,60.326l34.829,60.324h69.657l34.828-60.324L104.486,0Z" transform="translate(907.451 1379)" fill="#f6f6f6"/>
    <g id="Grupo_841297" data-name="Grupo 841297" transform="translate(548.384 -689.65)">
      <rect id="Rectángulo_278861" data-name="Rectángulo 278861" width="80" height="80" transform="translate(388 2089)" fill="none"/>
      <g id="Grupo_841302" data-name="Grupo 841302" transform="translate(394.25 2095.24)">
        <g id="Grupo_841302-2" data-name="Grupo 841302" clip-path="url(#clip-path)">
          <path id="Trazado_562745" data-name="Trazado 562745" d="M67.5,56.705a17.584,17.584,0,0,1-1.3,2.909A6.07,6.07,0,0,1,61.236,62.3c-1.316.063-2.636.034-3.954.021a1.325,1.325,0,0,1-1.355-.855,1.265,1.265,0,0,1,1.257-1.708c1.164-.029,2.329,0,3.494-.01A3.925,3.925,0,0,0,64.9,55.563q.011-19.022,0-38.045c0-.193-.02-.386-.034-.654h-.733c-2.285,0-4.571.006-6.856,0a6.512,6.512,0,0,1-6.64-6.626c-.009-2.286,0-4.572,0-6.857V2.631c-.278-.014-.491-.035-.7-.035-10.042,0-20.085.022-30.127-.018a4.01,4.01,0,0,0-4.217,3.582c-.007.084,0,.168,0,.329h.868q11.734,0,23.469.005a6.358,6.358,0,0,1,6.112,3.7,5.716,5.716,0,0,1,.614,2.261c.081,2.437.116,4.88.023,7.315a6.428,6.428,0,0,1-6.459,6.18c-2.68.026-5.362.006-8.043.006H15.548v.757q0,14.341,0,28.682A4,4,0,0,0,19.9,59.747c1.143,0,2.286-.016,3.428.01a1.266,1.266,0,0,1,1.3,1.222,1.191,1.191,0,0,1-1.145,1.283,26.2,26.2,0,0,1-5.378-.158c-3.263-.651-5.118-3.229-5.124-6.651q-.018-10.154,0-20.308V25.96h-.75c-1.846,0-3.692.007-5.538,0A6.527,6.527,0,0,1,0,19.237Q0,16.2,0,13.171a6.538,6.538,0,0,1,6.668-6.68c1.846-.015,3.692,0,5.538,0h.559a21.009,21.009,0,0,1,1.054-3.063,6.115,6.115,0,0,1,5.684-3.4C24.077-.02,28.648.011,33.219.011q9.757,0,19.513-.01a2.29,2.29,0,0,1,1.751.728Q60.6,6.876,66.733,13a10.277,10.277,0,0,1,.767.975ZM23.343,23.339c5.58,0,11.16-.033,16.74.018a3.944,3.944,0,0,0,4.052-3.95c.057-2.108.044-4.219,0-6.328a3.87,3.87,0,0,0-3.76-3.966Q23.341,9.1,6.3,9.114a3.78,3.78,0,0,0-3.662,3.608c-.038,2.35-.011,4.7,0,7.052a2.432,2.432,0,0,0,.091.644,3.773,3.773,0,0,0,3.807,2.916q8.4.017,16.806,0" transform="translate(0 0)" fill="#12263f"/>
          <path id="Trazado_562746" data-name="Trazado 562746" d="M133.392,230.338a8.1,8.1,0,0,1-3.459-1.648,6.109,6.109,0,0,1-2.173-4.494q-.09-6.851,0-13.7a6.38,6.38,0,0,1,6.136-6.085q8.1-.116,16.2,0a6.334,6.334,0,0,1,6.1,5.894c.129,2.475.063,4.961.069,7.443,0,2.108.062,4.22-.039,6.324a6.406,6.406,0,0,1-5.207,6.133,2.647,2.647,0,0,0-.356.138Zm8.57-2.6c2.483,0,4.966,0,7.449,0a3.955,3.955,0,0,0,4.286-4.322q.006-6.066,0-12.132a3.951,3.951,0,0,0-4.291-4.318q-7.416-.006-14.833,0a3.9,3.9,0,0,0-4.262,4.256q-.011,6.132,0,12.264a3.9,3.9,0,0,0,4.266,4.252c2.461.006,4.922,0,7.383,0" transform="translate(-101.757 -162.818)" fill="#12263f"/>
          <path id="Trazado_562747" data-name="Trazado 562747" d="M152.134,237.989c-2.461,0-4.922,0-7.383,0a3.9,3.9,0,0,1-4.266-4.252q-.012-6.132,0-12.264a3.9,3.9,0,0,1,4.262-4.256q7.416-.007,14.833,0a3.951,3.951,0,0,1,4.29,4.318q.006,6.066,0,12.132a3.955,3.955,0,0,1-4.286,4.322c-2.483.006-4.966,0-7.449,0m-3.886-14.3h2.546v-2.527h-5.057v5.1h2.511Zm-2.519,5.21v5.14H150.8v-2.552H148.27c0-.766.024-1.448-.018-2.125-.01-.161-.232-.433-.371-.442-.7-.046-1.4-.021-2.153-.021m7.791-7.79v2.613h2.586v2.531h2.533c0-1.623.009-3.2-.018-4.771a.543.543,0,0,0-.392-.357c-1.552-.026-3.1-.016-4.71-.016m5.076,12.954V228.94h-2.52v2.568h-2.564v2.555Z" transform="translate(-111.929 -173.068)" fill="#fff"/>
          <path id="Trazado_562748" data-name="Trazado 562748" d="M54.416,48.775a3.87,3.87,0,0,0-3.76-3.966q-17.037-.017-34.073,0a3.78,3.78,0,0,0-3.662,3.607c-.038,2.35-.011,4.7,0,7.052a2.425,2.425,0,0,0,.091.644,3.772,3.772,0,0,0,3.807,2.916q8.4.017,16.806,0c5.58,0,11.16-.032,16.74.019a3.944,3.944,0,0,0,4.052-3.95c.057-2.108.044-4.219,0-6.328" transform="translate(-10.28 -35.695)" fill="#fff2be"/>
          <path id="Trazado_562749" data-name="Trazado 562749" d="M168.863,239.178v2.569h-2.51v-5.1h5.056v2.527Z" transform="translate(-132.544 -188.555)" fill="#12263f"/>
          <path id="Trazado_562750" data-name="Trazado 562750" d="M166.307,274.694c.756,0,1.457-.025,2.153.021.139.009.361.281.371.442.042.677.018,1.359.018,2.125h2.533v2.553h-5.075Z" transform="translate(-132.508 -218.861)" fill="#12263f"/>
          <path id="Trazado_562751" data-name="Trazado 562751" d="M204.642,236.382c1.6,0,3.157-.009,4.71.016a.544.544,0,0,1,.392.356c.027,1.574.018,3.148.018,4.772h-2.533V239h-2.586Z" transform="translate(-163.052 -188.34)" fill="#12263f"/>
          <path id="Trazado_562752" data-name="Trazado 562752" d="M209.686,280.041H204.6v-2.555h2.564v-2.568h2.52Z" transform="translate(-163.02 -219.044)" fill="#12263f"/>
        </g>
      </g>
    </g>
    <path id="Trazado_563039" data-name="Trazado 563039" d="M1.926,9.307a.71.71,0,0,1,.227-.547.806.806,0,0,1,.569-.21.812.812,0,0,1,.574.21.71.71,0,0,1,.227.547.7.7,0,0,1-.225.54.816.816,0,0,1-.576.208.809.809,0,0,1-.571-.208A.7.7,0,0,1,1.926,9.307ZM7.717,2.891H9.182V7.813a2.354,2.354,0,0,1-.3,1.2,2.038,2.038,0,0,1-.847.8A2.647,2.647,0,0,1,6.8,10.1a2.515,2.515,0,0,1-1.758-.574A2.085,2.085,0,0,1,4.412,7.9H5.886a1.143,1.143,0,0,0,.22.771.879.879,0,0,0,.693.249.839.839,0,0,0,.669-.288,1.217,1.217,0,0,0,.249-.82ZM11.9,7.5V10H10.437V2.891H13.21a3.209,3.209,0,0,1,1.409.293,2.159,2.159,0,0,1,.935.833,2.321,2.321,0,0,1,.327,1.228,2.041,2.041,0,0,1-.715,1.648,2.979,2.979,0,0,1-1.98.6Zm0-1.187H13.21a1.287,1.287,0,0,0,.886-.273,1,1,0,0,0,.305-.781,1.173,1.173,0,0,0-.308-.845,1.149,1.149,0,0,0-.85-.332H11.9ZM22.512,9.1a2.543,2.543,0,0,1-1.118.735,4.683,4.683,0,0,1-1.6.261,3.173,3.173,0,0,1-1.619-.4A2.687,2.687,0,0,1,17.1,8.525a4.116,4.116,0,0,1-.388-1.8V6.24A4.371,4.371,0,0,1,17.07,4.4a2.655,2.655,0,0,1,1.035-1.191,2.982,2.982,0,0,1,1.584-.413,2.969,2.969,0,0,1,1.978.6,2.577,2.577,0,0,1,.845,1.755H21.086a1.418,1.418,0,0,0-.432-.894,1.38,1.38,0,0,0-.92-.283,1.3,1.3,0,0,0-1.138.562,2.953,2.953,0,0,0-.4,1.67V6.66a2.811,2.811,0,0,0,.425,1.689,1.455,1.455,0,0,0,1.245.571,1.625,1.625,0,0,0,1.177-.352V7.344H19.714V6.265h2.8Zm5.464-2.183H25.164v1.9h3.3V10H23.7V2.891h4.756V4.077H25.164V5.771h2.813Z" transform="translate(948.384 1414.885)" fill="#12263f"/>
    <g id="Grupo_841297-2" data-name="Grupo 841297" transform="translate(459.941 -537.142)">
      <rect id="Rectángulo_278861-2" data-name="Rectángulo 278861" width="80" height="80" transform="translate(388 2089)" fill="none"/>
      <g id="Grupo_841302-3" data-name="Grupo 841302" transform="translate(394.25 2095.24)">
        <g id="Grupo_841302-4" data-name="Grupo 841302" clip-path="url(#clip-path)">
          <path id="Trazado_562745-2" data-name="Trazado 562745" d="M67.5,56.705a17.584,17.584,0,0,1-1.3,2.909A6.07,6.07,0,0,1,61.236,62.3c-1.316.063-2.636.034-3.954.021a1.325,1.325,0,0,1-1.355-.855,1.265,1.265,0,0,1,1.257-1.708c1.164-.029,2.329,0,3.494-.01A3.925,3.925,0,0,0,64.9,55.563q.011-19.022,0-38.045c0-.193-.02-.386-.034-.654h-.733c-2.285,0-4.571.006-6.856,0a6.512,6.512,0,0,1-6.64-6.626c-.009-2.286,0-4.572,0-6.857V2.631c-.278-.014-.491-.035-.7-.035-10.042,0-20.085.022-30.127-.018a4.01,4.01,0,0,0-4.217,3.582c-.007.084,0,.168,0,.329h.868q11.734,0,23.469.005a6.358,6.358,0,0,1,6.112,3.7,5.716,5.716,0,0,1,.614,2.261c.081,2.437.116,4.88.023,7.315a6.428,6.428,0,0,1-6.459,6.18c-2.68.026-5.362.006-8.043.006H15.548v.757q0,14.341,0,28.682A4,4,0,0,0,19.9,59.747c1.143,0,2.286-.016,3.428.01a1.266,1.266,0,0,1,1.3,1.222,1.191,1.191,0,0,1-1.145,1.283,26.2,26.2,0,0,1-5.378-.158c-3.263-.651-5.118-3.229-5.124-6.651q-.018-10.154,0-20.308V25.96h-.75c-1.846,0-3.692.007-5.538,0A6.527,6.527,0,0,1,0,19.237Q0,16.2,0,13.171a6.538,6.538,0,0,1,6.668-6.68c1.846-.015,3.692,0,5.538,0h.559a21.009,21.009,0,0,1,1.054-3.063,6.115,6.115,0,0,1,5.684-3.4C24.077-.02,28.648.011,33.219.011q9.757,0,19.513-.01a2.29,2.29,0,0,1,1.751.728Q60.6,6.876,66.733,13a10.277,10.277,0,0,1,.767.975ZM23.343,23.339c5.58,0,11.16-.033,16.74.018a3.944,3.944,0,0,0,4.052-3.95c.057-2.108.044-4.219,0-6.328a3.87,3.87,0,0,0-3.76-3.966Q23.341,9.1,6.3,9.114a3.78,3.78,0,0,0-3.662,3.608c-.038,2.35-.011,4.7,0,7.052a2.432,2.432,0,0,0,.091.644,3.773,3.773,0,0,0,3.807,2.916q8.4.017,16.806,0" transform="translate(0 0)" fill="#12263f"/>
          <path id="Trazado_562746-2" data-name="Trazado 562746" d="M133.392,230.338a8.1,8.1,0,0,1-3.459-1.648,6.109,6.109,0,0,1-2.173-4.494q-.09-6.851,0-13.7a6.38,6.38,0,0,1,6.136-6.085q8.1-.116,16.2,0a6.334,6.334,0,0,1,6.1,5.894c.129,2.475.063,4.961.069,7.443,0,2.108.062,4.22-.039,6.324a6.406,6.406,0,0,1-5.207,6.133,2.647,2.647,0,0,0-.356.138Zm8.57-2.6c2.483,0,4.966,0,7.449,0a3.955,3.955,0,0,0,4.286-4.322q.006-6.066,0-12.132a3.951,3.951,0,0,0-4.291-4.318q-7.416-.006-14.833,0a3.9,3.9,0,0,0-4.262,4.256q-.011,6.132,0,12.264a3.9,3.9,0,0,0,4.266,4.252c2.461.006,4.922,0,7.383,0" transform="translate(-101.757 -162.818)" fill="#12263f"/>
          <path id="Trazado_562747-2" data-name="Trazado 562747" d="M152.134,237.989c-2.461,0-4.922,0-7.383,0a3.9,3.9,0,0,1-4.266-4.252q-.012-6.132,0-12.264a3.9,3.9,0,0,1,4.262-4.256q7.416-.007,14.833,0a3.951,3.951,0,0,1,4.29,4.318q.006,6.066,0,12.132a3.955,3.955,0,0,1-4.286,4.322c-2.483.006-4.966,0-7.449,0m-3.886-14.3h2.546v-2.527h-5.057v5.1h2.511Zm-2.519,5.21v5.14H150.8v-2.552H148.27c0-.766.024-1.448-.018-2.125-.01-.161-.232-.433-.371-.442-.7-.046-1.4-.021-2.153-.021m7.791-7.79v2.613h2.586v2.531h2.533c0-1.623.009-3.2-.018-4.771a.543.543,0,0,0-.392-.357c-1.552-.026-3.1-.016-4.71-.016m5.076,12.954V228.94h-2.52v2.568h-2.564v2.555Z" transform="translate(-111.929 -173.068)" fill="#fff"/>
          <path id="Trazado_562748-2" data-name="Trazado 562748" d="M54.416,48.775a3.87,3.87,0,0,0-3.76-3.966q-17.037-.017-34.073,0a3.78,3.78,0,0,0-3.662,3.607c-.038,2.35-.011,4.7,0,7.052a2.425,2.425,0,0,0,.091.644,3.772,3.772,0,0,0,3.807,2.916q8.4.017,16.806,0c5.58,0,11.16-.032,16.74.019a3.944,3.944,0,0,0,4.052-3.95c.057-2.108.044-4.219,0-6.328" transform="translate(-10.28 -35.695)" fill="#50b8ff"/>
          <path id="Trazado_562749-2" data-name="Trazado 562749" d="M168.863,239.178v2.569h-2.51v-5.1h5.056v2.527Z" transform="translate(-132.544 -188.555)" fill="#12263f"/>
          <path id="Trazado_562750-2" data-name="Trazado 562750" d="M166.307,274.694c.756,0,1.457-.025,2.153.021.139.009.361.281.371.442.042.677.018,1.359.018,2.125h2.533v2.553h-5.075Z" transform="translate(-132.508 -218.861)" fill="#12263f"/>
          <path id="Trazado_562751-2" data-name="Trazado 562751" d="M204.642,236.382c1.6,0,3.157-.009,4.71.016a.544.544,0,0,1,.392.356c.027,1.574.018,3.148.018,4.772h-2.533V239h-2.586Z" transform="translate(-163.052 -188.34)" fill="#12263f"/>
          <path id="Trazado_562752-2" data-name="Trazado 562752" d="M209.686,280.041H204.6v-2.555h2.564v-2.568h2.52Z" transform="translate(-163.02 -219.044)" fill="#12263f"/>
        </g>
      </g>
    </g>
    <path id="Trazado_563037" data-name="Trazado 563037" d="M4,9.307a.71.71,0,0,1,.227-.547A.806.806,0,0,1,4.8,8.55a.812.812,0,0,1,.574.21.71.71,0,0,1,.227.547.7.7,0,0,1-.225.54.816.816,0,0,1-.576.208.809.809,0,0,1-.571-.208A.7.7,0,0,1,4,9.307ZM8.391,7.5V10H6.926V2.891H9.7a3.209,3.209,0,0,1,1.409.293,2.159,2.159,0,0,1,.935.833,2.321,2.321,0,0,1,.327,1.228,2.041,2.041,0,0,1-.715,1.648,2.979,2.979,0,0,1-1.98.6Zm0-1.187H9.7a1.287,1.287,0,0,0,.886-.273,1,1,0,0,0,.305-.781,1.173,1.173,0,0,0-.308-.845,1.149,1.149,0,0,0-.85-.332H8.391ZM19.158,10H17.693L14.841,5.322V10H13.376V2.891h1.465L17.7,7.578V2.891h1.46Zm6.9-.9a2.543,2.543,0,0,1-1.118.735,4.683,4.683,0,0,1-1.6.261,3.173,3.173,0,0,1-1.619-.4,2.687,2.687,0,0,1-1.074-1.169,4.116,4.116,0,0,1-.388-1.8V6.24A4.371,4.371,0,0,1,20.62,4.4a2.655,2.655,0,0,1,1.035-1.191,2.982,2.982,0,0,1,1.584-.413,2.969,2.969,0,0,1,1.978.6,2.577,2.577,0,0,1,.845,1.755H24.636a1.418,1.418,0,0,0-.432-.894,1.38,1.38,0,0,0-.92-.283,1.3,1.3,0,0,0-1.138.562,2.953,2.953,0,0,0-.4,1.67V6.66a2.811,2.811,0,0,0,.425,1.689,1.455,1.455,0,0,0,1.245.571A1.625,1.625,0,0,0,24.6,8.569V7.344H23.264V6.265h2.8Z" transform="translate(859.941 1567.394)" fill="#12263f"/>
    <g id="Grupo_841297-3" data-name="Grupo 841297" transform="translate(278.021 -537.142)">
      <rect id="Rectángulo_278861-3" data-name="Rectángulo 278861" width="80" height="80" transform="translate(388 2089)" fill="none"/>
      <g id="Grupo_841302-5" data-name="Grupo 841302" transform="translate(394.25 2095.24)">
        <g id="Grupo_841302-6" data-name="Grupo 841302" clip-path="url(#clip-path)">
          <path id="Trazado_562745-3" data-name="Trazado 562745" d="M67.5,56.705a17.584,17.584,0,0,1-1.3,2.909A6.07,6.07,0,0,1,61.236,62.3c-1.316.063-2.636.034-3.954.021a1.325,1.325,0,0,1-1.355-.855,1.265,1.265,0,0,1,1.257-1.708c1.164-.029,2.329,0,3.494-.01A3.925,3.925,0,0,0,64.9,55.563q.011-19.022,0-38.045c0-.193-.02-.386-.034-.654h-.733c-2.285,0-4.571.006-6.856,0a6.512,6.512,0,0,1-6.64-6.626c-.009-2.286,0-4.572,0-6.857V2.631c-.278-.014-.491-.035-.7-.035-10.042,0-20.085.022-30.127-.018a4.01,4.01,0,0,0-4.217,3.582c-.007.084,0,.168,0,.329h.868q11.734,0,23.469.005a6.358,6.358,0,0,1,6.112,3.7,5.716,5.716,0,0,1,.614,2.261c.081,2.437.116,4.88.023,7.315a6.428,6.428,0,0,1-6.459,6.18c-2.68.026-5.362.006-8.043.006H15.548v.757q0,14.341,0,28.682A4,4,0,0,0,19.9,59.747c1.143,0,2.286-.016,3.428.01a1.266,1.266,0,0,1,1.3,1.222,1.191,1.191,0,0,1-1.145,1.283,26.2,26.2,0,0,1-5.378-.158c-3.263-.651-5.118-3.229-5.124-6.651q-.018-10.154,0-20.308V25.96h-.75c-1.846,0-3.692.007-5.538,0A6.527,6.527,0,0,1,0,19.237Q0,16.2,0,13.171a6.538,6.538,0,0,1,6.668-6.68c1.846-.015,3.692,0,5.538,0h.559a21.009,21.009,0,0,1,1.054-3.063,6.115,6.115,0,0,1,5.684-3.4C24.077-.02,28.648.011,33.219.011q9.757,0,19.513-.01a2.29,2.29,0,0,1,1.751.728Q60.6,6.876,66.733,13a10.277,10.277,0,0,1,.767.975ZM23.343,23.339c5.58,0,11.16-.033,16.74.018a3.944,3.944,0,0,0,4.052-3.95c.057-2.108.044-4.219,0-6.328a3.87,3.87,0,0,0-3.76-3.966Q23.341,9.1,6.3,9.114a3.78,3.78,0,0,0-3.662,3.608c-.038,2.35-.011,4.7,0,7.052a2.432,2.432,0,0,0,.091.644,3.773,3.773,0,0,0,3.807,2.916q8.4.017,16.806,0" transform="translate(0 0)" fill="#12263f"/>
          <path id="Trazado_562746-3" data-name="Trazado 562746" d="M133.392,230.338a8.1,8.1,0,0,1-3.459-1.648,6.109,6.109,0,0,1-2.173-4.494q-.09-6.851,0-13.7a6.38,6.38,0,0,1,6.136-6.085q8.1-.116,16.2,0a6.334,6.334,0,0,1,6.1,5.894c.129,2.475.063,4.961.069,7.443,0,2.108.062,4.22-.039,6.324a6.406,6.406,0,0,1-5.207,6.133,2.647,2.647,0,0,0-.356.138Zm8.57-2.6c2.483,0,4.966,0,7.449,0a3.955,3.955,0,0,0,4.286-4.322q.006-6.066,0-12.132a3.951,3.951,0,0,0-4.291-4.318q-7.416-.006-14.833,0a3.9,3.9,0,0,0-4.262,4.256q-.011,6.132,0,12.264a3.9,3.9,0,0,0,4.266,4.252c2.461.006,4.922,0,7.383,0" transform="translate(-101.757 -162.818)" fill="#12263f"/>
          <path id="Trazado_562747-3" data-name="Trazado 562747" d="M152.134,237.989c-2.461,0-4.922,0-7.383,0a3.9,3.9,0,0,1-4.266-4.252q-.012-6.132,0-12.264a3.9,3.9,0,0,1,4.262-4.256q7.416-.007,14.833,0a3.951,3.951,0,0,1,4.29,4.318q.006,6.066,0,12.132a3.955,3.955,0,0,1-4.286,4.322c-2.483.006-4.966,0-7.449,0m-3.886-14.3h2.546v-2.527h-5.057v5.1h2.511Zm-2.519,5.21v5.14H150.8v-2.552H148.27c0-.766.024-1.448-.018-2.125-.01-.161-.232-.433-.371-.442-.7-.046-1.4-.021-2.153-.021m7.791-7.79v2.613h2.586v2.531h2.533c0-1.623.009-3.2-.018-4.771a.543.543,0,0,0-.392-.357c-1.552-.026-3.1-.016-4.71-.016m5.076,12.954V228.94h-2.52v2.568h-2.564v2.555Z" transform="translate(-111.929 -173.068)" fill="#fff"/>
          <path id="Trazado_562748-3" data-name="Trazado 562748" d="M54.416,48.775a3.87,3.87,0,0,0-3.76-3.966q-17.037-.017-34.073,0a3.78,3.78,0,0,0-3.662,3.607c-.038,2.35-.011,4.7,0,7.052a2.425,2.425,0,0,0,.091.644,3.772,3.772,0,0,0,3.807,2.916q8.4.017,16.806,0c5.58,0,11.16-.032,16.74.019a3.944,3.944,0,0,0,4.052-3.95c.057-2.108.044-4.219,0-6.328" transform="translate(-10.28 -35.695)" fill="#e2f2ff"/>
          <path id="Trazado_562749-3" data-name="Trazado 562749" d="M168.863,239.178v2.569h-2.51v-5.1h5.056v2.527Z" transform="translate(-132.544 -188.555)" fill="#12263f"/>
          <path id="Trazado_562750-3" data-name="Trazado 562750" d="M166.307,274.694c.756,0,1.457-.025,2.153.021.139.009.361.281.371.442.042.677.018,1.359.018,2.125h2.533v2.553h-5.075Z" transform="translate(-132.508 -218.861)" fill="#12263f"/>
          <path id="Trazado_562751-3" data-name="Trazado 562751" d="M204.642,236.382c1.6,0,3.157-.009,4.71.016a.544.544,0,0,1,.392.356c.027,1.574.018,3.148.018,4.772h-2.533V239h-2.586Z" transform="translate(-163.052 -188.34)" fill="#12263f"/>
          <path id="Trazado_562752-3" data-name="Trazado 562752" d="M209.686,280.041H204.6v-2.555h2.564v-2.568h2.52Z" transform="translate(-163.02 -219.044)" fill="#12263f"/>
        </g>
      </g>
    </g>
    <path id="Trazado_563040" data-name="Trazado 563040" d="M4.133,9.307A.71.71,0,0,1,4.36,8.76a.806.806,0,0,1,.569-.21.812.812,0,0,1,.574.21.71.71,0,0,1,.227.547.7.7,0,0,1-.225.54.816.816,0,0,1-.576.208.809.809,0,0,1-.571-.208A.7.7,0,0,1,4.133,9.307ZM12.41,4.077H10.232V10H8.767V4.077H6.619V2.891H12.41ZM14.8,10H13.337V2.891H14.8Zm5.635-2.905H17.625V10H16.16V2.891h4.629V4.077H17.625V5.913h2.813Zm5.479,0H23.1V10H21.638V2.891h4.629V4.077H23.1V5.913h2.813Z" transform="translate(678.021 1567.394)" fill="#12263f"/>
    <g id="Grupo_841297-4" data-name="Grupo 841297" transform="translate(278.021 -841.676)">
      <rect id="Rectángulo_278861-4" data-name="Rectángulo 278861" width="80" height="80" transform="translate(388 2089)" fill="none"/>
      <g id="Grupo_841302-7" data-name="Grupo 841302" transform="translate(394.25 2095.24)">
        <g id="Grupo_841302-8" data-name="Grupo 841302" clip-path="url(#clip-path)">
          <path id="Trazado_562745-4" data-name="Trazado 562745" d="M67.5,56.705a17.584,17.584,0,0,1-1.3,2.909A6.07,6.07,0,0,1,61.236,62.3c-1.316.063-2.636.034-3.954.021a1.325,1.325,0,0,1-1.355-.855,1.265,1.265,0,0,1,1.257-1.708c1.164-.029,2.329,0,3.494-.01A3.925,3.925,0,0,0,64.9,55.563q.011-19.022,0-38.045c0-.193-.02-.386-.034-.654h-.733c-2.285,0-4.571.006-6.856,0a6.512,6.512,0,0,1-6.64-6.626c-.009-2.286,0-4.572,0-6.857V2.631c-.278-.014-.491-.035-.7-.035-10.042,0-20.085.022-30.127-.018a4.01,4.01,0,0,0-4.217,3.582c-.007.084,0,.168,0,.329h.868q11.734,0,23.469.005a6.358,6.358,0,0,1,6.112,3.7,5.716,5.716,0,0,1,.614,2.261c.081,2.437.116,4.88.023,7.315a6.428,6.428,0,0,1-6.459,6.18c-2.68.026-5.362.006-8.043.006H15.548v.757q0,14.341,0,28.682A4,4,0,0,0,19.9,59.747c1.143,0,2.286-.016,3.428.01a1.266,1.266,0,0,1,1.3,1.222,1.191,1.191,0,0,1-1.145,1.283,26.2,26.2,0,0,1-5.378-.158c-3.263-.651-5.118-3.229-5.124-6.651q-.018-10.154,0-20.308V25.96h-.75c-1.846,0-3.692.007-5.538,0A6.527,6.527,0,0,1,0,19.237Q0,16.2,0,13.171a6.538,6.538,0,0,1,6.668-6.68c1.846-.015,3.692,0,5.538,0h.559a21.009,21.009,0,0,1,1.054-3.063,6.115,6.115,0,0,1,5.684-3.4C24.077-.02,28.648.011,33.219.011q9.757,0,19.513-.01a2.29,2.29,0,0,1,1.751.728Q60.6,6.876,66.733,13a10.277,10.277,0,0,1,.767.975ZM23.343,23.339c5.58,0,11.16-.033,16.74.018a3.944,3.944,0,0,0,4.052-3.95c.057-2.108.044-4.219,0-6.328a3.87,3.87,0,0,0-3.76-3.966Q23.341,9.1,6.3,9.114a3.78,3.78,0,0,0-3.662,3.608c-.038,2.35-.011,4.7,0,7.052a2.432,2.432,0,0,0,.091.644,3.773,3.773,0,0,0,3.807,2.916q8.4.017,16.806,0" transform="translate(0 0)" fill="#12263f"/>
          <path id="Trazado_562746-4" data-name="Trazado 562746" d="M133.392,230.338a8.1,8.1,0,0,1-3.459-1.648,6.109,6.109,0,0,1-2.173-4.494q-.09-6.851,0-13.7a6.38,6.38,0,0,1,6.136-6.085q8.1-.116,16.2,0a6.334,6.334,0,0,1,6.1,5.894c.129,2.475.063,4.961.069,7.443,0,2.108.062,4.22-.039,6.324a6.406,6.406,0,0,1-5.207,6.133,2.647,2.647,0,0,0-.356.138Zm8.57-2.6c2.483,0,4.966,0,7.449,0a3.955,3.955,0,0,0,4.286-4.322q.006-6.066,0-12.132a3.951,3.951,0,0,0-4.291-4.318q-7.416-.006-14.833,0a3.9,3.9,0,0,0-4.262,4.256q-.011,6.132,0,12.264a3.9,3.9,0,0,0,4.266,4.252c2.461.006,4.922,0,7.383,0" transform="translate(-101.757 -162.818)" fill="#12263f"/>
          <path id="Trazado_562747-4" data-name="Trazado 562747" d="M152.134,237.989c-2.461,0-4.922,0-7.383,0a3.9,3.9,0,0,1-4.266-4.252q-.012-6.132,0-12.264a3.9,3.9,0,0,1,4.262-4.256q7.416-.007,14.833,0a3.951,3.951,0,0,1,4.29,4.318q.006,6.066,0,12.132a3.955,3.955,0,0,1-4.286,4.322c-2.483.006-4.966,0-7.449,0m-3.886-14.3h2.546v-2.527h-5.057v5.1h2.511Zm-2.519,5.21v5.14H150.8v-2.552H148.27c0-.766.024-1.448-.018-2.125-.01-.161-.232-.433-.371-.442-.7-.046-1.4-.021-2.153-.021m7.791-7.79v2.613h2.586v2.531h2.533c0-1.623.009-3.2-.018-4.771a.543.543,0,0,0-.392-.357c-1.552-.026-3.1-.016-4.71-.016m5.076,12.954V228.94h-2.52v2.568h-2.564v2.555Z" transform="translate(-111.929 -173.068)" fill="#fff"/>
          <path id="Trazado_562748-4" data-name="Trazado 562748" d="M54.416,48.775a3.87,3.87,0,0,0-3.76-3.966q-17.037-.017-34.073,0a3.78,3.78,0,0,0-3.662,3.607c-.038,2.35-.011,4.7,0,7.052a2.425,2.425,0,0,0,.091.644,3.772,3.772,0,0,0,3.807,2.916q8.4.017,16.806,0c5.58,0,11.16-.032,16.74.019a3.944,3.944,0,0,0,4.052-3.95c.057-2.108.044-4.219,0-6.328" transform="translate(-10.28 -35.695)" fill="#a5f4ff"/>
          <path id="Trazado_562749-4" data-name="Trazado 562749" d="M168.863,239.178v2.569h-2.51v-5.1h5.056v2.527Z" transform="translate(-132.544 -188.555)" fill="#12263f"/>
          <path id="Trazado_562750-4" data-name="Trazado 562750" d="M166.307,274.694c.756,0,1.457-.025,2.153.021.139.009.361.281.371.442.042.677.018,1.359.018,2.125h2.533v2.553h-5.075Z" transform="translate(-132.508 -218.861)" fill="#12263f"/>
          <path id="Trazado_562751-4" data-name="Trazado 562751" d="M204.642,236.382c1.6,0,3.157-.009,4.71.016a.544.544,0,0,1,.392.356c.027,1.574.018,3.148.018,4.772h-2.533V239h-2.586Z" transform="translate(-163.052 -188.34)" fill="#12263f"/>
          <path id="Trazado_562752-4" data-name="Trazado 562752" d="M209.686,280.041H204.6v-2.555h2.564v-2.568h2.52Z" transform="translate(-163.02 -219.044)" fill="#12263f"/>
        </g>
      </g>
    </g>
    <path id="Trazado_563042" data-name="Trazado 563042" d="M3.33,9.307a.71.71,0,0,1,.227-.547.806.806,0,0,1,.569-.21.812.812,0,0,1,.574.21.71.71,0,0,1,.227.547.7.7,0,0,1-.225.54.816.816,0,0,1-.576.208.809.809,0,0,1-.571-.208A.7.7,0,0,1,3.33,9.307ZM8.887,7.4H7.72V10H6.255V2.891H8.9a2.986,2.986,0,0,1,1.943.562,1.938,1.938,0,0,1,.684,1.587,2.187,2.187,0,0,1-.315,1.213,2.148,2.148,0,0,1-.955.774l1.538,2.905V10H10.22ZM7.72,6.211H8.9a1.21,1.21,0,0,0,.854-.281,1,1,0,0,0,.3-.774,1.074,1.074,0,0,0-.286-.791A1.187,1.187,0,0,0,8.9,4.077H7.72ZM16.65,8.535H14.082L13.594,10H12.036l2.646-7.109H16.04L18.7,10H17.144ZM14.478,7.349h1.777l-.894-2.661Zm10.234.6.957-5.059h1.46L25.552,10H24.077L22.92,5.244,21.763,10H20.288L18.711,2.891h1.46l.962,5.049L22.3,2.891h1.24Z" transform="translate(678.021 1262.859)" fill="#12263f"/>
    <g id="Grupo_841297-5" data-name="Grupo 841297" transform="translate(194.893 -689.035)">
      <rect id="Rectángulo_278861-5" data-name="Rectángulo 278861" width="80" height="80" transform="translate(388 2089)" fill="none"/>
      <g id="Grupo_841302-9" data-name="Grupo 841302" transform="translate(394.25 2095.24)">
        <g id="Grupo_841302-10" data-name="Grupo 841302" clip-path="url(#clip-path)">
          <path id="Trazado_562745-5" data-name="Trazado 562745" d="M67.5,56.705a17.584,17.584,0,0,1-1.3,2.909A6.07,6.07,0,0,1,61.236,62.3c-1.316.063-2.636.034-3.954.021a1.325,1.325,0,0,1-1.355-.855,1.265,1.265,0,0,1,1.257-1.708c1.164-.029,2.329,0,3.494-.01A3.925,3.925,0,0,0,64.9,55.563q.011-19.022,0-38.045c0-.193-.02-.386-.034-.654h-.733c-2.285,0-4.571.006-6.856,0a6.512,6.512,0,0,1-6.64-6.626c-.009-2.286,0-4.572,0-6.857V2.631c-.278-.014-.491-.035-.7-.035-10.042,0-20.085.022-30.127-.018a4.01,4.01,0,0,0-4.217,3.582c-.007.084,0,.168,0,.329h.868q11.734,0,23.469.005a6.358,6.358,0,0,1,6.112,3.7,5.716,5.716,0,0,1,.614,2.261c.081,2.437.116,4.88.023,7.315a6.428,6.428,0,0,1-6.459,6.18c-2.68.026-5.362.006-8.043.006H15.548v.757q0,14.341,0,28.682A4,4,0,0,0,19.9,59.747c1.143,0,2.286-.016,3.428.01a1.266,1.266,0,0,1,1.3,1.222,1.191,1.191,0,0,1-1.145,1.283,26.2,26.2,0,0,1-5.378-.158c-3.263-.651-5.118-3.229-5.124-6.651q-.018-10.154,0-20.308V25.96h-.75c-1.846,0-3.692.007-5.538,0A6.527,6.527,0,0,1,0,19.237Q0,16.2,0,13.171a6.538,6.538,0,0,1,6.668-6.68c1.846-.015,3.692,0,5.538,0h.559a21.009,21.009,0,0,1,1.054-3.063,6.115,6.115,0,0,1,5.684-3.4C24.077-.02,28.648.011,33.219.011q9.757,0,19.513-.01a2.29,2.29,0,0,1,1.751.728Q60.6,6.876,66.733,13a10.277,10.277,0,0,1,.767.975ZM23.343,23.339c5.58,0,11.16-.033,16.74.018a3.944,3.944,0,0,0,4.052-3.95c.057-2.108.044-4.219,0-6.328a3.87,3.87,0,0,0-3.76-3.966Q23.341,9.1,6.3,9.114a3.78,3.78,0,0,0-3.662,3.608c-.038,2.35-.011,4.7,0,7.052a2.432,2.432,0,0,0,.091.644,3.773,3.773,0,0,0,3.807,2.916q8.4.017,16.806,0" transform="translate(0 0)" fill="#12263f"/>
          <path id="Trazado_562746-5" data-name="Trazado 562746" d="M133.392,230.338a8.1,8.1,0,0,1-3.459-1.648,6.109,6.109,0,0,1-2.173-4.494q-.09-6.851,0-13.7a6.38,6.38,0,0,1,6.136-6.085q8.1-.116,16.2,0a6.334,6.334,0,0,1,6.1,5.894c.129,2.475.063,4.961.069,7.443,0,2.108.062,4.22-.039,6.324a6.406,6.406,0,0,1-5.207,6.133,2.647,2.647,0,0,0-.356.138Zm8.57-2.6c2.483,0,4.966,0,7.449,0a3.955,3.955,0,0,0,4.286-4.322q.006-6.066,0-12.132a3.951,3.951,0,0,0-4.291-4.318q-7.416-.006-14.833,0a3.9,3.9,0,0,0-4.262,4.256q-.011,6.132,0,12.264a3.9,3.9,0,0,0,4.266,4.252c2.461.006,4.922,0,7.383,0" transform="translate(-101.757 -162.818)" fill="#12263f"/>
          <path id="Trazado_562747-5" data-name="Trazado 562747" d="M152.134,237.989c-2.461,0-4.922,0-7.383,0a3.9,3.9,0,0,1-4.266-4.252q-.012-6.132,0-12.264a3.9,3.9,0,0,1,4.262-4.256q7.416-.007,14.833,0a3.951,3.951,0,0,1,4.29,4.318q.006,6.066,0,12.132a3.955,3.955,0,0,1-4.286,4.322c-2.483.006-4.966,0-7.449,0m-3.886-14.3h2.546v-2.527h-5.057v5.1h2.511Zm-2.519,5.21v5.14H150.8v-2.552H148.27c0-.766.024-1.448-.018-2.125-.01-.161-.232-.433-.371-.442-.7-.046-1.4-.021-2.153-.021m7.791-7.79v2.613h2.586v2.531h2.533c0-1.623.009-3.2-.018-4.771a.543.543,0,0,0-.392-.357c-1.552-.026-3.1-.016-4.71-.016m5.076,12.954V228.94h-2.52v2.568h-2.564v2.555Z" transform="translate(-111.929 -173.068)" fill="#fff"/>
          <path id="Trazado_562748-5" data-name="Trazado 562748" d="M54.416,48.775a3.87,3.87,0,0,0-3.76-3.966q-17.037-.017-34.073,0a3.78,3.78,0,0,0-3.662,3.607c-.038,2.35-.011,4.7,0,7.052a2.425,2.425,0,0,0,.091.644,3.772,3.772,0,0,0,3.807,2.916q8.4.017,16.806,0c5.58,0,11.16-.032,16.74.019a3.944,3.944,0,0,0,4.052-3.95c.057-2.108.044-4.219,0-6.328" transform="translate(-10.28 -35.695)" fill="#67ebfd"/>
          <path id="Trazado_562749-5" data-name="Trazado 562749" d="M168.863,239.178v2.569h-2.51v-5.1h5.056v2.527Z" transform="translate(-132.544 -188.555)" fill="#12263f"/>
          <path id="Trazado_562750-5" data-name="Trazado 562750" d="M166.307,274.694c.756,0,1.457-.025,2.153.021.139.009.361.281.371.442.042.677.018,1.359.018,2.125h2.533v2.553h-5.075Z" transform="translate(-132.508 -218.861)" fill="#12263f"/>
          <path id="Trazado_562751-5" data-name="Trazado 562751" d="M204.642,236.382c1.6,0,3.157-.009,4.71.016a.544.544,0,0,1,.392.356c.027,1.574.018,3.148.018,4.772h-2.533V239h-2.586Z" transform="translate(-163.052 -188.34)" fill="#12263f"/>
          <path id="Trazado_562752-5" data-name="Trazado 562752" d="M209.686,280.041H204.6v-2.555h2.564v-2.568h2.52Z" transform="translate(-163.02 -219.044)" fill="#12263f"/>
        </g>
      </g>
    </g>
    <path id="Trazado_563041" data-name="Trazado 563041" d="M3.367,9.307a.71.71,0,0,1,.227-.547.806.806,0,0,1,.569-.21.812.812,0,0,1,.574.21.71.71,0,0,1,.227.547.7.7,0,0,1-.225.54.816.816,0,0,1-.576.208.809.809,0,0,1-.571-.208A.7.7,0,0,1,3.367,9.307ZM6.292,10V2.891h2.49a3.27,3.27,0,0,1,1.963.5,1.7,1.7,0,0,1,.669,1.453,1.606,1.606,0,0,1-.269.92,1.551,1.551,0,0,1-.747.583,1.5,1.5,0,0,1,.862.552,1.631,1.631,0,0,1,.315,1.016,1.876,1.876,0,0,1-.654,1.553A2.946,2.946,0,0,1,9.055,10ZM7.756,6.9V8.823H9.011a1.211,1.211,0,0,0,.808-.247A.846.846,0,0,0,10.11,7.9.893.893,0,0,0,9.1,6.9Zm0-1.035H8.84q1.108-.02,1.108-.884a.817.817,0,0,0-.281-.7,1.477,1.477,0,0,0-.886-.212H7.756Zm6.831-2.979,1.826,5.156L18.23,2.891h1.924V10h-1.47V8.057L18.831,4.7,16.912,10H15.906L13.992,4.707l.146,3.35V10H12.673V2.891ZM22.9,7.5V10H21.433V2.891h2.773a3.209,3.209,0,0,1,1.409.293,2.159,2.159,0,0,1,.935.833,2.321,2.321,0,0,1,.327,1.228,2.041,2.041,0,0,1-.715,1.648,2.979,2.979,0,0,1-1.98.6Zm0-1.187h1.309a1.287,1.287,0,0,0,.886-.273,1,1,0,0,0,.305-.781,1.173,1.173,0,0,0-.308-.845,1.149,1.149,0,0,0-.85-.332H22.9Z" transform="translate(594.893 1415.5)" fill="#12263f"/>
    <g id="Grupo_841303" data-name="Grupo 841303" transform="translate(459.941 -845.058)">
      <rect id="Rectángulo_278861-6" data-name="Rectángulo 278861" width="80" height="80" transform="translate(388 2089)" fill="none"/>
      <g id="Grupo_841302-11" data-name="Grupo 841302" transform="translate(394.25 2095.24)">
        <g id="Grupo_841302-12" data-name="Grupo 841302" clip-path="url(#clip-path)">
          <path id="Trazado_562745-6" data-name="Trazado 562745" d="M67.5,56.705a17.584,17.584,0,0,1-1.3,2.909A6.07,6.07,0,0,1,61.236,62.3c-1.316.063-2.636.034-3.954.021a1.325,1.325,0,0,1-1.355-.855,1.265,1.265,0,0,1,1.257-1.708c1.164-.029,2.329,0,3.494-.01A3.925,3.925,0,0,0,64.9,55.563q.011-19.022,0-38.045c0-.193-.02-.386-.034-.654h-.733c-2.285,0-4.571.006-6.856,0a6.512,6.512,0,0,1-6.64-6.626c-.009-2.286,0-4.572,0-6.857V2.631c-.278-.014-.491-.035-.7-.035-10.042,0-20.085.022-30.127-.018a4.01,4.01,0,0,0-4.217,3.582c-.007.084,0,.168,0,.329h.868q11.734,0,23.469.005a6.358,6.358,0,0,1,6.112,3.7,5.716,5.716,0,0,1,.614,2.261c.081,2.437.116,4.88.023,7.315a6.428,6.428,0,0,1-6.459,6.18c-2.68.026-5.362.006-8.043.006H15.548v.757q0,14.341,0,28.682A4,4,0,0,0,19.9,59.747c1.143,0,2.286-.016,3.428.01a1.266,1.266,0,0,1,1.3,1.222,1.191,1.191,0,0,1-1.145,1.283,26.2,26.2,0,0,1-5.378-.158c-3.263-.651-5.118-3.229-5.124-6.651q-.018-10.154,0-20.308V25.96h-.75c-1.846,0-3.692.007-5.538,0A6.527,6.527,0,0,1,0,19.237Q0,16.2,0,13.171a6.538,6.538,0,0,1,6.668-6.68c1.846-.015,3.692,0,5.538,0h.559a21.009,21.009,0,0,1,1.054-3.063,6.115,6.115,0,0,1,5.684-3.4C24.077-.02,28.648.011,33.219.011q9.757,0,19.513-.01a2.29,2.29,0,0,1,1.751.728Q60.6,6.876,66.733,13a10.277,10.277,0,0,1,.767.975ZM23.343,23.339c5.58,0,11.16-.033,16.74.018a3.944,3.944,0,0,0,4.052-3.95c.057-2.108.044-4.219,0-6.328a3.87,3.87,0,0,0-3.76-3.966Q23.341,9.1,6.3,9.114a3.78,3.78,0,0,0-3.662,3.608c-.038,2.35-.011,4.7,0,7.052a2.432,2.432,0,0,0,.091.644,3.773,3.773,0,0,0,3.807,2.916q8.4.017,16.806,0" transform="translate(0 0)" fill="#12263f"/>
          <path id="Trazado_562746-6" data-name="Trazado 562746" d="M133.392,230.338a8.1,8.1,0,0,1-3.459-1.648,6.109,6.109,0,0,1-2.173-4.494q-.09-6.851,0-13.7a6.38,6.38,0,0,1,6.136-6.085q8.1-.116,16.2,0a6.334,6.334,0,0,1,6.1,5.894c.129,2.475.063,4.961.069,7.443,0,2.108.062,4.22-.039,6.324a6.406,6.406,0,0,1-5.207,6.133,2.647,2.647,0,0,0-.356.138Zm8.57-2.6c2.483,0,4.966,0,7.449,0a3.955,3.955,0,0,0,4.286-4.322q.006-6.066,0-12.132a3.951,3.951,0,0,0-4.291-4.318q-7.416-.006-14.833,0a3.9,3.9,0,0,0-4.262,4.256q-.011,6.132,0,12.264a3.9,3.9,0,0,0,4.266,4.252c2.461.006,4.922,0,7.383,0" transform="translate(-101.757 -162.818)" fill="#12263f"/>
          <path id="Trazado_562747-6" data-name="Trazado 562747" d="M152.134,237.989c-2.461,0-4.922,0-7.383,0a3.9,3.9,0,0,1-4.266-4.252q-.012-6.132,0-12.264a3.9,3.9,0,0,1,4.262-4.256q7.416-.007,14.833,0a3.951,3.951,0,0,1,4.29,4.318q.006,6.066,0,12.132a3.955,3.955,0,0,1-4.286,4.322c-2.483.006-4.966,0-7.449,0m-3.886-14.3h2.546v-2.527h-5.057v5.1h2.511Zm-2.519,5.21v5.14H150.8v-2.552H148.27c0-.766.024-1.448-.018-2.125-.01-.161-.232-.433-.371-.442-.7-.046-1.4-.021-2.153-.021m7.791-7.79v2.613h2.586v2.531h2.533c0-1.623.009-3.2-.018-4.771a.543.543,0,0,0-.392-.357c-1.552-.026-3.1-.016-4.71-.016m5.076,12.954V228.94h-2.52v2.568h-2.564v2.555Z" transform="translate(-111.929 -173.068)" fill="#fff"/>
          <path id="Trazado_562748-6" data-name="Trazado 562748" d="M54.416,48.775a3.87,3.87,0,0,0-3.76-3.966q-17.037-.017-34.073,0a3.78,3.78,0,0,0-3.662,3.607c-.038,2.35-.011,4.7,0,7.052a2.425,2.425,0,0,0,.091.644,3.772,3.772,0,0,0,3.807,2.916q8.4.017,16.806,0c5.58,0,11.16-.032,16.74.019a3.944,3.944,0,0,0,4.052-3.95c.057-2.108.044-4.219,0-6.328" transform="translate(-10.28 -35.695)" fill="#ffe16e"/>
          <path id="Trazado_562749-6" data-name="Trazado 562749" d="M168.863,239.178v2.569h-2.51v-5.1h5.056v2.527Z" transform="translate(-132.544 -188.555)" fill="#12263f"/>
          <path id="Trazado_562750-6" data-name="Trazado 562750" d="M166.307,274.694c.756,0,1.457-.025,2.153.021.139.009.361.281.371.442.042.677.018,1.359.018,2.125h2.533v2.553h-5.075Z" transform="translate(-132.508 -218.861)" fill="#12263f"/>
          <path id="Trazado_562751-6" data-name="Trazado 562751" d="M204.642,236.382c1.6,0,3.157-.009,4.71.016a.544.544,0,0,1,.392.356c.027,1.574.018,3.148.018,4.772h-2.533V239h-2.586Z" transform="translate(-163.052 -188.34)" fill="#12263f"/>
          <path id="Trazado_562752-6" data-name="Trazado 562752" d="M209.686,280.041H204.6v-2.555h2.564v-2.568h2.52Z" transform="translate(-163.02 -219.044)" fill="#12263f"/>
        </g>
      </g>
    </g>
    <path id="Trazado_563043" data-name="Trazado 563043" d="M1.239,9.307a.71.71,0,0,1,.227-.547.806.806,0,0,1,.569-.21.812.812,0,0,1,.574.21.71.71,0,0,1,.227.547.7.7,0,0,1-.225.54.816.816,0,0,1-.576.208.809.809,0,0,1-.571-.208A.7.7,0,0,1,1.239,9.307ZM7.03,2.891H8.495V7.813a2.354,2.354,0,0,1-.3,1.2,2.038,2.038,0,0,1-.847.8,2.647,2.647,0,0,1-1.235.283,2.515,2.515,0,0,1-1.758-.574A2.085,2.085,0,0,1,3.724,7.9H5.2a1.143,1.143,0,0,0,.22.771.879.879,0,0,0,.693.249.839.839,0,0,0,.669-.288,1.217,1.217,0,0,0,.249-.82Zm4.185,4.6V10H9.75V2.891h2.773a3.209,3.209,0,0,1,1.409.293,2.159,2.159,0,0,1,.935.833,2.321,2.321,0,0,1,.327,1.228,2.041,2.041,0,0,1-.715,1.648,2.979,2.979,0,0,1-1.98.6Zm0-1.187h1.309a1.287,1.287,0,0,0,.886-.273,1,1,0,0,0,.305-.781,1.173,1.173,0,0,0-.308-.845,1.149,1.149,0,0,0-.85-.332H11.214ZM21.825,9.1a2.543,2.543,0,0,1-1.118.735,4.683,4.683,0,0,1-1.6.261,3.173,3.173,0,0,1-1.619-.4,2.687,2.687,0,0,1-1.074-1.169,4.116,4.116,0,0,1-.388-1.8V6.24A4.371,4.371,0,0,1,16.383,4.4a2.655,2.655,0,0,1,1.035-1.191A2.982,2.982,0,0,1,19,2.793a2.969,2.969,0,0,1,1.978.6,2.577,2.577,0,0,1,.845,1.755H20.4a1.418,1.418,0,0,0-.432-.894,1.38,1.38,0,0,0-.92-.283,1.3,1.3,0,0,0-1.138.562,2.953,2.953,0,0,0-.4,1.67V6.66a2.811,2.811,0,0,0,.425,1.689,1.455,1.455,0,0,0,1.245.571,1.625,1.625,0,0,0,1.177-.352V7.344H19.027V6.265h2.8Z" transform="translate(863.941 1259.478)" fill="#12263f"/>
  </g>
</svg>
