<svg xmlns="http://www.w3.org/2000/svg" xmlns:xlink="http://www.w3.org/1999/xlink" width="83" height="83" viewBox="0 0 83 83">
  <defs>
    <clipPath id="clip-path">
      <circle id="Elipse_6554" data-name="Elipse 6554" cx="41.5" cy="41.5" r="41.5" transform="translate(-5696 -4146)" fill="#cfcdff" opacity="0.31"/>
    </clipPath>
    <clipPath id="clip-path-2">
      <rect id="Rectángulo_276249" data-name="Rectángulo 276249" width="164" height="164" transform="translate(0 -0.179)" fill="none"/>
    </clipPath>
  </defs>
  <g id="Grupo_720569" data-name="Grupo 720569" transform="translate(5272 4288)">
    <g id="Enmascarar_grupo_180885" data-name="Enmascarar grupo 180885" transform="translate(424 -142)" clip-path="url(#clip-path)">
      <circle id="Elipse_6552" data-name="Elipse 6552" cx="41.5" cy="41.5" r="41.5" transform="translate(-5696 -4146)" fill="#cfcdff" opacity="0.75"/>
      <circle id="Elipse_6553" data-name="Elipse 6553" cx="41.5" cy="41.5" r="41.5" transform="translate(-5696 -4146)" fill="#cfcdff" opacity="0.31"/>
      <g id="Grupo_720565" data-name="Grupo 720565" transform="translate(-5764 -4200.821)" opacity="0.56">
        <g id="Grupo_720564" data-name="Grupo 720564" clip-path="url(#clip-path-2)">
          <path id="Trazado_553021" data-name="Trazado 553021" d="M163.524,0H.054A.054.054,0,0,0,0,.054v163.47a.054.054,0,0,0,.054.054H163.524a.054.054,0,0,0,.054-.054V.054A.054.054,0,0,0,163.524,0" transform="translate(0.243 0.243)" fill="#ced7dc" fill-rule="evenodd"/>
          <path id="Trazado_553022" data-name="Trazado 553022" d="M152.449,163.635h-.124v-2.311H138.351v2.311h-.123v-2.311H124.254v2.311h-.123v-2.311H110.157v2.311h-.123v-2.311H96.059v2.311h-.124v-2.311H81.962v2.311h-.124v-2.311H67.864v2.311h-.123v-2.311H53.767v2.311h-.123v-2.311H39.67v2.311h-.123v-2.311H25.573v2.311h-.124v-2.311H11.475v2.311h-.123v-2.311H.165V161.2H4.3v-4.053H.165v-.123H11.352V152.97H.165v-.123H4.3v-4.053H.165v-.123H11.352v-4.054H.165v-.123H4.3v-4.053H.165v-.123H11.352v-4.054H.165v-.123H4.3v-4.054H.165v-.123H11.352v-4.053H.165v-.124H4.3v-4.054H.165v-.123H11.352v-4.054H.165v-.123H4.3v-4.054H.165v-.124H11.352V111.2H.165v-.124H4.3v-4.053H.165V106.9H11.352v-4.054H.165v-.123H4.3V98.67H.165v-.124H11.352V94.493H.165v-.124H4.3V90.316H.165v-.123H11.352V86.138H.165v-.123H4.3V81.962H.165v-.123H11.352V77.785H.165v-.123H4.3V73.608H.165v-.123H11.352V69.431H.165v-.123H4.3V65.254H.165V65.13H11.352V61.077H.165v-.124H4.3V56.9H.165v-.123H11.352V52.723H.165V52.6H4.3V48.546H.165v-.123H11.352V44.369H.165v-.124H4.3V40.192H.165v-.123H11.352V36.015H.165v-.123H4.3V31.838H.165v-.123H11.352V27.661H.165v-.123H4.3V23.484H.165v-.123H11.352V19.307H.165v-.124H4.3V15.13H.165v-.123H11.352V10.953H.165V10.83H4.3V6.777H.165V6.653H11.352V2.6H.165V2.476H4.3V.165h.123V2.476H18.4V.165h.124V2.476H32.5V.165h.123V2.476H46.6V.165h.123V2.476H60.693V.165h.123V2.476H74.79V.165h.123V2.476H88.887V.165h.124V2.476h13.974V.165h.123V2.476h13.974V.165h.123V2.476h13.974V.165h.123V2.476h13.974V.165h.123V2.476h13.974V.165h.124V2.476h4.138V2.6H152.449V6.653h11.187v.123H159.5V10.83h4.138v.123H152.449v4.053h11.187v.123H159.5v4.053h4.138v.124H152.449v4.053h11.187v.123H159.5v4.054h4.138v.123H152.449v4.053h11.187v.123H159.5v4.054h4.138v.123H152.449v4.053h11.187v.123H159.5v4.053h4.138v.124H152.449v4.053h11.187v.123H159.5V52.6h4.138v.123H152.449v4.054h11.187V56.9H159.5v4.053h4.138v.124H152.449V65.13h11.187v.123H159.5v4.054h4.138v.123H152.449v4.054h11.187v.123H159.5v4.053h4.138v.123H152.449v4.054h11.187v.123H159.5v4.053h4.138v.123H152.449v4.054h11.187v.123H159.5v4.053h4.138v.124H152.449v4.053h11.187v.124H159.5v4.054h4.138v.123H152.449V106.9h11.187v.123H159.5v4.053h4.138v.124H152.449v4.053h11.187v.124H159.5v4.054h4.138v.123H152.449v4.054h11.187v.123H159.5v4.054h4.138v.124H152.449v4.053h11.187v.123H159.5v4.054h4.138v.123H152.449v4.054h11.187v.123H159.5v4.053h4.138v.123H152.449v4.054h11.187v.123H159.5v4.053h4.138v.123H152.449v4.054h11.187v.123H159.5V161.2h4.138v.124H152.449Zm6.925-6.488H145.4V161.2h13.974Zm-14.1,0H131.3V161.2h13.974Zm-14.1,0H117.206V161.2h13.974Zm-14.1,0H103.108V161.2h13.974Zm-14.1,0H89.011V161.2h13.974Zm-14.1,0H74.913V161.2H88.887Zm-14.1,0H60.816V161.2H74.79Zm-14.1,0H46.718V161.2H60.693Zm-14.1,0H32.621V161.2H46.6Zm-14.1,0H18.524V161.2H32.5Zm-14.1,0H4.426V161.2H18.4Zm133.925-4.177H138.351v4.054h13.974Zm-14.1,0H124.254v4.054h13.975Zm-14.1,0H110.157v4.054h13.974Zm-14.1,0H96.059v4.054h13.974Zm-14.1,0H81.962v4.054H95.936Zm-14.1,0H67.864v4.054H81.838Zm-14.1,0H53.767v4.054H67.741Zm-14.1,0H39.67v4.054H53.644Zm-14.1,0H25.573v4.054H39.546Zm-14.1,0H11.475v4.054H25.449Zm133.925-4.176H145.4v4.053h13.974Zm-14.1,0H131.3v4.053h13.974Zm-14.1,0H117.206v4.053h13.974Zm-14.1,0H103.108v4.053h13.974Zm-14.1,0H89.011v4.053h13.974Zm-14.1,0H74.913v4.053H88.887Zm-14.1,0H60.816v4.053H74.79Zm-14.1,0H46.718v4.053H60.693Zm-14.1,0H32.621v4.053H46.6Zm-14.1,0H18.524v4.053H32.5Zm-14.1,0H4.426v4.053H18.4Zm133.925-4.177H138.351v4.054h13.974Zm-14.1,0H124.254v4.054h13.975Zm-14.1,0H110.157v4.054h13.974Zm-14.1,0H96.059v4.054h13.974Zm-14.1,0H81.962v4.054H95.936Zm-14.1,0H67.864v4.054H81.838Zm-14.1,0H53.767v4.054H67.741Zm-14.1,0H39.67v4.054H53.644Zm-14.1,0H25.573v4.054H39.546Zm-14.1,0H11.475v4.054H25.449Zm133.925-4.177H145.4v4.053h13.974Zm-14.1,0H131.3v4.053h13.974Zm-14.1,0H117.206v4.053h13.974Zm-14.1,0H103.108v4.053h13.974Zm-14.1,0H89.011v4.053h13.974Zm-14.1,0H74.913v4.053H88.887Zm-14.1,0H60.816v4.053H74.79Zm-14.1,0H46.718v4.053H60.693Zm-14.1,0H32.621v4.053H46.6Zm-14.1,0H18.524v4.053H32.5Zm-14.1,0H4.426v4.053H18.4Zm133.925-4.177H138.351v4.054h13.974Zm-14.1,0H124.254v4.054h13.975Zm-14.1,0H110.157v4.054h13.974Zm-14.1,0H96.059v4.054h13.974Zm-14.1,0H81.962v4.054H95.936Zm-14.1,0H67.864v4.054H81.838Zm-14.1,0H53.767v4.054H67.741Zm-14.1,0H39.67v4.054H53.644Zm-14.1,0H25.573v4.054H39.546Zm-14.1,0H11.475v4.054H25.449Zm133.925-4.177H145.4v4.054h13.974Zm-14.1,0H131.3v4.054h13.974Zm-14.1,0H117.206v4.054h13.974Zm-14.1,0H103.108v4.054h13.974Zm-14.1,0H89.011v4.054h13.974Zm-14.1,0H74.913v4.054H88.887Zm-14.1,0H60.816v4.054H74.79Zm-14.1,0H46.718v4.054H60.693Zm-14.1,0H32.621v4.054H46.6Zm-14.1,0H18.524v4.054H32.5Zm-14.1,0H4.426v4.054H18.4Zm133.925-4.177H138.351v4.053h13.974Zm-14.1,0H124.254v4.053h13.975Zm-14.1,0H110.157v4.053h13.974Zm-14.1,0H96.059v4.053h13.974Zm-14.1,0H81.962v4.053H95.936Zm-14.1,0H67.864v4.053H81.838Zm-14.1,0H53.767v4.053H67.741Zm-14.1,0H39.67v4.053H53.644Zm-14.1,0H25.573v4.053H39.546Zm-14.1,0H11.475v4.053H25.449Zm133.925-4.177H145.4v4.054h13.974Zm-14.1,0H131.3v4.054h13.974Zm-14.1,0H117.206v4.054h13.974Zm-14.1,0H103.108v4.054h13.974Zm-14.1,0H89.011v4.054h13.974Zm-14.1,0H74.913v4.054H88.887Zm-14.1,0H60.816v4.054H74.79Zm-14.1,0H46.718v4.054H60.693Zm-14.1,0H32.621v4.054H46.6Zm-14.1,0H18.524v4.054H32.5Zm-14.1,0H4.426v4.054H18.4Zm133.925-4.177H138.351v4.054h13.974Zm-14.1,0H124.254v4.054h13.975Zm-14.1,0H110.157v4.054h13.974Zm-14.1,0H96.059v4.054h13.974Zm-14.1,0H81.962v4.054H95.936Zm-14.1,0H67.864v4.054H81.838Zm-14.1,0H53.767v4.054H67.741Zm-14.1,0H39.67v4.054H53.644Zm-14.1,0H25.573v4.054H39.546Zm-14.1,0H11.475v4.054H25.449Zm133.925-4.177H145.4v4.054h13.974Zm-14.1,0H131.3v4.054h13.974Zm-14.1,0H117.206v4.054h13.974Zm-14.1,0H103.108v4.054h13.974Zm-14.1,0H89.011v4.054h13.974Zm-14.1,0H74.913v4.054H88.887Zm-14.1,0H60.816v4.054H74.79Zm-14.1,0H46.718v4.054H60.693Zm-14.1,0H32.621v4.054H46.6Zm-14.1,0H18.524v4.054H32.5Zm-14.1,0H4.426v4.054H18.4ZM152.325,111.2H138.351v4.053h13.974Zm-14.1,0H124.254v4.053h13.975Zm-14.1,0H110.157v4.053h13.974Zm-14.1,0H96.059v4.053h13.974Zm-14.1,0H81.962v4.053H95.936Zm-14.1,0H67.864v4.053H81.838Zm-14.1,0H53.767v4.053H67.741Zm-14.1,0H39.67v4.053H53.644Zm-14.1,0H25.573v4.053H39.546Zm-14.1,0H11.475v4.053H25.449Zm133.925-4.177H145.4v4.053h13.974Zm-14.1,0H131.3v4.053h13.974Zm-14.1,0H117.206v4.053h13.974Zm-14.1,0H103.108v4.053h13.974Zm-14.1,0H89.011v4.053h13.974Zm-14.1,0H74.913v4.053H88.887Zm-14.1,0H60.816v4.053H74.79Zm-14.1,0H46.718v4.053H60.693Zm-14.1,0H32.621v4.053H46.6Zm-14.1,0H18.524v4.053H32.5Zm-14.1,0H4.426v4.053H18.4Zm133.925-4.177H138.351V106.9h13.974Zm-14.1,0H124.254V106.9h13.975Zm-14.1,0H110.157V106.9h13.974Zm-14.1,0H96.059V106.9h13.974Zm-14.1,0H81.962V106.9H95.936Zm-14.1,0H67.864V106.9H81.838Zm-14.1,0H53.767V106.9H67.741Zm-14.1,0H39.67V106.9H53.644Zm-14.1,0H25.573V106.9H39.546Zm-14.1,0H11.475V106.9H25.449ZM159.374,98.67H145.4v4.054h13.974Zm-14.1,0H131.3v4.054h13.974Zm-14.1,0H117.206v4.054h13.974Zm-14.1,0H103.108v4.054h13.974Zm-14.1,0H89.011v4.054h13.974Zm-14.1,0H74.913v4.054H88.887Zm-14.1,0H60.816v4.054H74.79Zm-14.1,0H46.718v4.054H60.693Zm-14.1,0H32.621v4.054H46.6Zm-14.1,0H18.524v4.054H32.5Zm-14.1,0H4.426v4.054H18.4Zm133.925-4.177H138.351v4.053h13.974Zm-14.1,0H124.254v4.053h13.975Zm-14.1,0H110.157v4.053h13.974Zm-14.1,0H96.059v4.053h13.974Zm-14.1,0H81.962v4.053H95.936Zm-14.1,0H67.864v4.053H81.838Zm-14.1,0H53.767v4.053H67.741Zm-14.1,0H39.67v4.053H53.644Zm-14.1,0H25.573v4.053H39.546Zm-14.1,0H11.475v4.053H25.449Zm133.925-4.177H145.4v4.053h13.974Zm-14.1,0H131.3v4.053h13.974Zm-14.1,0H117.206v4.053h13.974Zm-14.1,0H103.108v4.053h13.974Zm-14.1,0H89.011v4.053h13.974Zm-14.1,0H74.913v4.053H88.887Zm-14.1,0H60.816v4.053H74.79Zm-14.1,0H46.718v4.053H60.693Zm-14.1,0H32.621v4.053H46.6Zm-14.1,0H18.524v4.053H32.5Zm-14.1,0H4.426v4.053H18.4Zm133.925-4.177H138.351v4.054h13.974Zm-14.1,0H124.254v4.054h13.975Zm-14.1,0H110.157v4.054h13.974Zm-14.1,0H96.059v4.054h13.974Zm-14.1,0H81.962v4.054H95.936Zm-14.1,0H67.864v4.054H81.838Zm-14.1,0H53.767v4.054H67.741Zm-14.1,0H39.67v4.054H53.644Zm-14.1,0H25.573v4.054H39.546Zm-14.1,0H11.475v4.054H25.449Zm133.925-4.177H145.4v4.053h13.974Zm-14.1,0H131.3v4.053h13.974Zm-14.1,0H117.206v4.053h13.974Zm-14.1,0H103.108v4.053h13.974Zm-14.1,0H89.011v4.053h13.974Zm-14.1,0H74.913v4.053H88.887Zm-14.1,0H60.816v4.053H74.79Zm-14.1,0H46.718v4.053H60.693Zm-14.1,0H32.621v4.053H46.6Zm-14.1,0H18.524v4.053H32.5Zm-14.1,0H4.426v4.053H18.4Zm133.925-4.177H138.351v4.054h13.974Zm-14.1,0H124.254v4.054h13.975Zm-14.1,0H110.157v4.054h13.974Zm-14.1,0H96.059v4.054h13.974Zm-14.1,0H81.962v4.054H95.936Zm-14.1,0H67.864v4.054H81.838Zm-14.1,0H53.767v4.054H67.741Zm-14.1,0H39.67v4.054H53.644Zm-14.1,0H25.573v4.054H39.546Zm-14.1,0H11.475v4.054H25.449Zm133.925-4.177H145.4v4.053h13.974Zm-14.1,0H131.3v4.053h13.974Zm-14.1,0H117.206v4.053h13.974Zm-14.1,0H103.108v4.053h13.974Zm-14.1,0H89.011v4.053h13.974Zm-14.1,0H74.913v4.053H88.887Zm-14.1,0H60.816v4.053H74.79Zm-14.1,0H46.718v4.053H60.693Zm-14.1,0H32.621v4.053H46.6Zm-14.1,0H18.524v4.053H32.5Zm-14.1,0H4.426v4.053H18.4Zm133.925-4.177H138.351v4.054h13.974Zm-14.1,0H124.254v4.054h13.975Zm-14.1,0H110.157v4.054h13.974Zm-14.1,0H96.059v4.054h13.974Zm-14.1,0H81.962v4.054H95.936Zm-14.1,0H67.864v4.054H81.838Zm-14.1,0H53.767v4.054H67.741Zm-14.1,0H39.67v4.054H53.644Zm-14.1,0H25.573v4.054H39.546Zm-14.1,0H11.475v4.054H25.449Zm133.925-4.177H145.4v4.054h13.974Zm-14.1,0H131.3v4.054h13.974Zm-14.1,0H117.206v4.054h13.974Zm-14.1,0H103.108v4.054h13.974Zm-14.1,0H89.011v4.054h13.974Zm-14.1,0H74.913v4.054H88.887Zm-14.1,0H60.816v4.054H74.79Zm-14.1,0H46.718v4.054H60.693Zm-14.1,0H32.621v4.054H46.6Zm-14.1,0H18.524v4.054H32.5Zm-14.1,0H4.426v4.054H18.4Zm133.925-4.177H138.351V65.13h13.974Zm-14.1,0H124.254V65.13h13.975Zm-14.1,0H110.157V65.13h13.974Zm-14.1,0H96.059V65.13h13.974Zm-14.1,0H81.962V65.13H95.936Zm-14.1,0H67.864V65.13H81.838Zm-14.1,0H53.767V65.13H67.741Zm-14.1,0H39.67V65.13H53.644Zm-14.1,0H25.573V65.13H39.546Zm-14.1,0H11.475V65.13H25.449ZM159.374,56.9H145.4v4.053h13.974Zm-14.1,0H131.3v4.053h13.974Zm-14.1,0H117.206v4.053h13.974Zm-14.1,0H103.108v4.053h13.974Zm-14.1,0H89.011v4.053h13.974Zm-14.1,0H74.913v4.053H88.887Zm-14.1,0H60.816v4.053H74.79Zm-14.1,0H46.718v4.053H60.693Zm-14.1,0H32.621v4.053H46.6Zm-14.1,0H18.524v4.053H32.5Zm-14.1,0H4.426v4.053H18.4Zm133.925-4.177H138.351v4.054h13.974Zm-14.1,0H124.254v4.054h13.975Zm-14.1,0H110.157v4.054h13.974Zm-14.1,0H96.059v4.054h13.974Zm-14.1,0H81.962v4.054H95.936Zm-14.1,0H67.864v4.054H81.838Zm-14.1,0H53.767v4.054H67.741Zm-14.1,0H39.67v4.054H53.644Zm-14.1,0H25.573v4.054H39.546Zm-14.1,0H11.475v4.054H25.449Zm133.925-4.177H145.4V52.6h13.974Zm-14.1,0H131.3V52.6h13.974Zm-14.1,0H117.206V52.6h13.974Zm-14.1,0H103.108V52.6h13.974Zm-14.1,0H89.011V52.6h13.974Zm-14.1,0H74.913V52.6H88.887Zm-14.1,0H60.816V52.6H74.79Zm-14.1,0H46.718V52.6H60.693Zm-14.1,0H32.621V52.6H46.6Zm-14.1,0H18.524V52.6H32.5Zm-14.1,0H4.426V52.6H18.4Zm133.925-4.177H138.351v4.053h13.974Zm-14.1,0H124.254v4.053h13.975Zm-14.1,0H110.157v4.053h13.974Zm-14.1,0H96.059v4.053h13.974Zm-14.1,0H81.962v4.053H95.936Zm-14.1,0H67.864v4.053H81.838Zm-14.1,0H53.767v4.053H67.741Zm-14.1,0H39.67v4.053H53.644Zm-14.1,0H25.573v4.053H39.546Zm-14.1,0H11.475v4.053H25.449Zm133.925-4.177H145.4v4.053h13.974Zm-14.1,0H131.3v4.053h13.974Zm-14.1,0H117.206v4.053h13.974Zm-14.1,0H103.108v4.053h13.974Zm-14.1,0H89.011v4.053h13.974Zm-14.1,0H74.913v4.053H88.887Zm-14.1,0H60.816v4.053H74.79Zm-14.1,0H46.718v4.053H60.693Zm-14.1,0H32.621v4.053H46.6Zm-14.1,0H18.524v4.053H32.5Zm-14.1,0H4.426v4.053H18.4Zm133.925-4.177H138.351v4.053h13.974Zm-14.1,0H124.254v4.053h13.975Zm-14.1,0H110.157v4.053h13.974Zm-14.1,0H96.059v4.053h13.974Zm-14.1,0H81.962v4.053H95.936Zm-14.1,0H67.864v4.053H81.838Zm-14.1,0H53.767v4.053H67.741Zm-14.1,0H39.67v4.053H53.644Zm-14.1,0H25.573v4.053H39.546Zm-14.1,0H11.475v4.053H25.449Zm133.925-4.177H145.4v4.054h13.974Zm-14.1,0H131.3v4.054h13.974Zm-14.1,0H117.206v4.054h13.974Zm-14.1,0H103.108v4.054h13.974Zm-14.1,0H89.011v4.054h13.974Zm-14.1,0H74.913v4.054H88.887Zm-14.1,0H60.816v4.054H74.79Zm-14.1,0H46.718v4.054H60.693Zm-14.1,0H32.621v4.054H46.6Zm-14.1,0H18.524v4.054H32.5Zm-14.1,0H4.426v4.054H18.4Zm133.925-4.177H138.351v4.053h13.974Zm-14.1,0H124.254v4.053h13.975Zm-14.1,0H110.157v4.053h13.974Zm-14.1,0H96.059v4.053h13.974Zm-14.1,0H81.962v4.053H95.936Zm-14.1,0H67.864v4.053H81.838Zm-14.1,0H53.767v4.053H67.741Zm-14.1,0H39.67v4.053H53.644Zm-14.1,0H25.573v4.053H39.546Zm-14.1,0H11.475v4.053H25.449Zm133.925-4.177H145.4v4.054h13.974Zm-14.1,0H131.3v4.054h13.974Zm-14.1,0H117.206v4.054h13.974Zm-14.1,0H103.108v4.054h13.974Zm-14.1,0H89.011v4.054h13.974Zm-14.1,0H74.913v4.054H88.887Zm-14.1,0H60.816v4.054H74.79Zm-14.1,0H46.718v4.054H60.693Zm-14.1,0H32.621v4.054H46.6Zm-14.1,0H18.524v4.054H32.5Zm-14.1,0H4.426v4.054H18.4Zm133.925-4.177H138.351v4.053h13.974Zm-14.1,0H124.254v4.053h13.975Zm-14.1,0H110.157v4.053h13.974Zm-14.1,0H96.059v4.053h13.974Zm-14.1,0H81.962v4.053H95.936Zm-14.1,0H67.864v4.053H81.838Zm-14.1,0H53.767v4.053H67.741Zm-14.1,0H39.67v4.053H53.644Zm-14.1,0H25.573v4.053H39.546Zm-14.1,0H11.475v4.053H25.449ZM159.374,15.13H145.4v4.053h13.974Zm-14.1,0H131.3v4.053h13.974Zm-14.1,0H117.206v4.053h13.974Zm-14.1,0H103.108v4.053h13.974Zm-14.1,0H89.011v4.053h13.974Zm-14.1,0H74.913v4.053H88.887Zm-14.1,0H60.816v4.053H74.79Zm-14.1,0H46.718v4.053H60.693Zm-14.1,0H32.621v4.053H46.6Zm-14.1,0H18.524v4.053H32.5Zm-14.1,0H4.426v4.053H18.4Zm133.925-4.177H138.351v4.053h13.974Zm-14.1,0H124.254v4.053h13.975Zm-14.1,0H110.157v4.053h13.974Zm-14.1,0H96.059v4.053h13.974Zm-14.1,0H81.962v4.053H95.936Zm-14.1,0H67.864v4.053H81.838Zm-14.1,0H53.767v4.053H67.741Zm-14.1,0H39.67v4.053H53.644Zm-14.1,0H25.573v4.053H39.546Zm-14.1,0H11.475v4.053H25.449ZM159.374,6.777H145.4V10.83h13.974Zm-14.1,0H131.3V10.83h13.974Zm-14.1,0H117.206V10.83h13.974Zm-14.1,0H103.108V10.83h13.974Zm-14.1,0H89.011V10.83h13.974Zm-14.1,0H74.913V10.83H88.887Zm-14.1,0H60.816V10.83H74.79Zm-14.1,0H46.718V10.83H60.693Zm-14.1,0H32.621V10.83H46.6Zm-14.1,0H18.524V10.83H32.5Zm-14.1,0H4.426V10.83H18.4ZM152.325,2.6H138.351V6.653h13.974Zm-14.1,0H124.254V6.653h13.975Zm-14.1,0H110.157V6.653h13.974Zm-14.1,0H96.059V6.653h13.974Zm-14.1,0H81.962V6.653H95.936Zm-14.1,0H67.864V6.653H81.838Zm-14.1,0H53.767V6.653H67.741Zm-14.1,0H39.67V6.653H53.644Zm-14.1,0H25.573V6.653H39.546Zm-14.1,0H11.475V6.653H25.449Z" transform="translate(0.131 0.132)" fill="#aebac8" fill-rule="evenodd"/>
          <path id="Trazado_553023" data-name="Trazado 553023" d="M163.524,413.789H.054c-.029,0-.053.005-.054.011H0v28.14a.054.054,0,0,0,.054.053H163.524a.054.054,0,0,0,.054-.053V413.8h0c0-.006-.025-.011-.054-.011" transform="translate(0.243 -278.173)" fill="#0f1630" fill-rule="evenodd"/>
          <path id="Trazado_553024" data-name="Trazado 553024" d="M61.271,53.052h0a.288.288,0,0,0-.287.287V177.09a.288.288,0,0,0,.287.287h0a.287.287,0,0,0,.286-.287V53.339a.287.287,0,0,0-.286-.287" transform="translate(82.313 -35.453)" fill="#01020e" fill-rule="evenodd"/>
          <path id="Trazado_553025" data-name="Trazado 553025" d="M188.267,75.293H74.147a.7.7,0,1,0,0,1.4h114.12a.7.7,0,1,0,0-1.4" transform="translate(-49.175 -50.418)" fill="#01020e" fill-rule="evenodd"/>
          <path id="Trazado_553230" data-name="Trazado 553230" d="M116.677,122.217h0Z" transform="translate(23.592 17.688)" fill="#fff"/>
          <path id="Trazado_553026" data-name="Trazado 553026" d="M184.4,46.922H67.014a1.891,1.891,0,0,0,0,3.781H184.4a1.891,1.891,0,1,0,0-3.781" transform="translate(-43.779 -31.329)" fill="#fff" fill-rule="evenodd"/>
          <path id="Trazado_553027" data-name="Trazado 553027" d="M437.407,48.15h0a.638.638,0,0,0-.636.636v1.532a.638.638,0,0,0,.636.636h0a.638.638,0,0,0,.635-.636V48.786a.638.638,0,0,0-.635-.636" transform="translate(-417.114 -32.155)" fill="#01020e" fill-rule="evenodd"/>
          <path id="Trazado_553028" data-name="Trazado 553028" d="M60.74,48.15h0a.638.638,0,0,0-.636.636v1.532a.638.638,0,0,0,.636.636h0a.638.638,0,0,0,.635-.636V48.786a.638.638,0,0,0-.635-.636" transform="translate(82.782 -32.155)" fill="#01020e" fill-rule="evenodd"/>
          <path id="Trazado_553031" data-name="Trazado 553031" d="M420.981,73.15h0a.638.638,0,0,1,.636.636v1.532a.636.636,0,1,1-1.272,0V73.786a.638.638,0,0,1,.636-.636" transform="translate(-395.314 -48.976)" fill="#0f1630" fill-rule="evenodd"/>
          <path id="Trazado_553032" data-name="Trazado 553032" d="M76.042,64.425V176.955H71.991V58.48H188.668v2.466H79.521a3.49,3.49,0,0,0-3.48,3.48" transform="translate(-48.399 -39.105)" fill="#ebf0f3" fill-rule="evenodd"/>
          <path id="Trazado_553033" data-name="Trazado 553033" d="M373.758,0V18.763a.381.381,0,0,0,.379.379h0a.381.381,0,0,0,.38-.379V0Z" transform="translate(-332.974 0.243)" fill="#01020e" fill-rule="evenodd"/>
          <path id="Trazado_553034" data-name="Trazado 553034" d="M366.131,61.016a.224.224,0,0,1-.447,0V59.952a1.511,1.511,0,0,1,.445-1.07h0a1.508,1.508,0,0,1,2.139,0h0a1.512,1.512,0,0,1,.445,1.071v1.065a.224.224,0,0,1-.447,0V59.952a1.068,1.068,0,0,0-2.136,0Z" transform="translate(-324.53 -39.076)" fill="#01020e" fill-rule="evenodd"/>
          <path id="Trazado_553035" data-name="Trazado 553035" d="M369.938,56.621a.223.223,0,0,1,.206-.4l1.411.733a.224.224,0,1,1-.206.4Z" transform="translate(-328.842 -37.57)" fill="#01020e" fill-rule="evenodd"/>
          <path id="Trazado_553036" data-name="Trazado 553036" d="M354.235,58.054a.223.223,0,1,1,.206-.4l5.646,2.909a.223.223,0,1,1-.206.4Z" transform="translate(-312.238 -38.535)" fill="#01020e" fill-rule="evenodd"/>
          <path id="Trazado_553037" data-name="Trazado 553037" d="M349.158,72.2l-2.067,2.067a.489.489,0,0,1-.689,0l-4.087-4.087a.489.489,0,0,1,0-.689l2.067-2.067a.489.489,0,0,1,.689,0l4.087,4.087a.489.489,0,0,1,0,.689" transform="translate(-297.423 -45.028)" fill="#ced7dc" fill-rule="evenodd"/>
          <path id="Trazado_553038" data-name="Trazado 553038" d="M357.165,78.322l.667.667a1.254,1.254,0,0,1,.443.93c.032.314.186,1.827.186,1.827s.019.3-.2.077l-1.193-1.193a1.89,1.89,0,0,1-.484-1c-.045-.34-.2-1.135-.2-1.135Z" transform="translate(-311.234 -52.456)" fill="#01020e" fill-rule="evenodd"/>
          <path id="Trazado_553039" data-name="Trazado 553039" d="M341.972,69.293l.667.667a1.255,1.255,0,0,0,.93.443l1.828.186s.3.019.077-.2L344.281,69.2a1.893,1.893,0,0,0-1-.484c-.34-.045-1.135-.2-1.135-.2Z" transform="translate(-293.611 -45.857)" fill="#01020e" fill-rule="evenodd"/>
          <path id="Trazado_553040" data-name="Trazado 553040" d="M350.1,69.227,347.41,71.92a.637.637,0,0,1-.9,0L342.1,67.508a.636.636,0,0,1,0-.9l2.693-2.693a.637.637,0,0,1,.9,0l4.412,4.412a.637.637,0,0,1,0,.9" transform="translate(-298.327 -42.639)" fill="#0f1630" fill-rule="evenodd"/>
          <path id="Trazado_553041" data-name="Trazado 553041" d="M359.418,57.391l-3.771,3.771a.893.893,0,0,1-1.257,0l-4.053-4.053a.891.891,0,0,1,0-1.257l3.771-3.771a.891.891,0,0,1,1.256,0l4.053,4.053a.892.892,0,0,1,0,1.257" transform="translate(-310.387 -34.626)" fill="#272d47" fill-rule="evenodd"/>
          <path id="Trazado_553042" data-name="Trazado 553042" d="M350.341,72.451l-3.628,3.628a.236.236,0,0,1-.333,0l-.334-.334a.236.236,0,0,1,0-.333l3.628-3.628a.237.237,0,0,1,.333,0l.333.334a.236.236,0,0,1,0,.333" transform="translate(-299.778 -48.01)" fill="#ced7dc" fill-rule="evenodd"/>
          <path id="Trazado_553043" data-name="Trazado 553043" d="M363.32,57.725a.892.892,0,0,1,0-1.257l3.591-3.591-.8-.8a.891.891,0,0,0-1.257,0l-3.771,3.771a.891.891,0,0,0,0,1.257l4.053,4.053a.892.892,0,0,0,1.245.012l.013-.012.09-.09.09-.09-.28-.28-1.566-1.566Z" transform="translate(-321.138 -34.626)" fill="#0f1630" fill-rule="evenodd"/>
          <path id="Trazado_553044" data-name="Trazado 553044" d="M124.681,0V18.763a.381.381,0,0,1-.379.379h0a.38.38,0,0,1-.379-.379V0Z" transform="translate(-1.402 0.243)" fill="#01020e" fill-rule="evenodd"/>
          <path id="Trazado_553045" data-name="Trazado 553045" d="M127.637,61.016a.224.224,0,0,0,.447,0V59.952a1.51,1.51,0,0,0-.445-1.07h0a1.508,1.508,0,0,0-2.139,0h0a1.511,1.511,0,0,0-.445,1.071v1.065a.224.224,0,0,0,.447,0V59.952a1.068,1.068,0,0,1,2.136,0Z" transform="translate(-5.176 -39.076)" fill="#01020e" fill-rule="evenodd"/>
          <path id="Trazado_553046" data-name="Trazado 553046" d="M126.243,56.621a.224.224,0,0,0-.206-.4l-1.41.733a.223.223,0,1,0,.206.4Z" transform="translate(-3.275 -37.57)" fill="#01020e" fill-rule="evenodd"/>
          <path id="Trazado_553047" data-name="Trazado 553047" d="M133.234,58.054a.223.223,0,1,0-.206-.4l-5.646,2.909a.224.224,0,1,0,.206.4Z" transform="translate(-11.169 -38.535)" fill="#01020e" fill-rule="evenodd"/>
          <path id="Trazado_553048" data-name="Trazado 553048" d="M136.185,72.2l2.067,2.067a.489.489,0,0,0,.689,0l4.087-4.087a.489.489,0,0,0,0-.689l-2.067-2.067a.488.488,0,0,0-.689,0l-4.087,4.087a.488.488,0,0,0,0,.689" transform="translate(-23.857 -45.028)" fill="#ced7dc" fill-rule="evenodd"/>
          <path id="Trazado_553049" data-name="Trazado 553049" d="M138.568,78.322l-.667.667a1.254,1.254,0,0,0-.443.93c-.032.314-.185,1.827-.185,1.827s-.02.3.2.077l1.193-1.193a1.891,1.891,0,0,0,.484-1c.045-.34.2-1.135.2-1.135Z" transform="translate(-20.436 -52.456)" fill="#01020e" fill-rule="evenodd"/>
          <path id="Trazado_553050" data-name="Trazado 553050" d="M150.663,69.293,150,69.96a1.254,1.254,0,0,1-.93.443l-1.828.186s-.295.019-.077-.2l1.193-1.193a1.893,1.893,0,0,1,1-.484c.34-.045,1.135-.2,1.135-.2Z" transform="translate(-34.96 -45.857)" fill="#01020e" fill-rule="evenodd"/>
          <path id="Trazado_553051" data-name="Trazado 553051" d="M132.676,69.227l2.693,2.693a.636.636,0,0,0,.9,0l4.412-4.412a.636.636,0,0,0,0-.9l-2.693-2.693a.637.637,0,0,0-.9,0l-4.413,4.412a.637.637,0,0,0,0,.9" transform="translate(-20.389 -42.639)" fill="#0f1630" fill-rule="evenodd"/>
          <path id="Trazado_553052" data-name="Trazado 553052" d="M120.841,57.391l3.771,3.771a.892.892,0,0,0,1.257,0l4.053-4.053a.892.892,0,0,0,0-1.257l-3.771-3.771a.892.892,0,0,0-1.257,0l-4.053,4.053a.892.892,0,0,0,0,1.257" transform="translate(-5.809 -34.626)" fill="#272d47" fill-rule="evenodd"/>
          <path id="Trazado_553053" data-name="Trazado 553053" d="M140.543,72.451l3.628,3.628a.236.236,0,0,0,.333,0l.334-.334a.236.236,0,0,0,0-.333l-3.628-3.628a.237.237,0,0,0-.333,0l-.334.334a.237.237,0,0,0,0,.333" transform="translate(-27.043 -48.01)" fill="#ced7dc" fill-rule="evenodd"/>
          <path id="Trazado_553054" data-name="Trazado 553054" d="M124.173,57.725a.891.891,0,0,0,0-1.257l-3.592-3.591.8-.8a.892.892,0,0,1,1.257,0l3.771,3.771a.891.891,0,0,1,0,1.257l-4.053,4.053a.891.891,0,0,1-1.244.012l-.012-.012-.091-.09-.089-.09.28-.28,1.566-1.566Z" transform="translate(-2.292 -34.626)" fill="#0f1630" fill-rule="evenodd"/>
          <path id="Trazado_553055" data-name="Trazado 553055" d="M108.813,262.8a.209.209,0,1,1,.418,0v3.583a9.526,9.526,0,0,0,.465,2.845,5.49,5.49,0,0,0,1.375,2.29,3.844,3.844,0,0,0,2.734,1.023l.149,0v.418l-.149,0a4.251,4.251,0,0,1-3.02-1.137,5.9,5.9,0,0,1-1.485-2.464,9.944,9.944,0,0,1-.488-2.976Z" transform="translate(14.268 -176.437)" fill="#01020e" fill-rule="evenodd"/>
          <path id="Trazado_553056" data-name="Trazado 553056" d="M105.1,258.816h1.247a.653.653,0,0,1,.652.652v10.853a.652.652,0,0,1-.652.651H105.1a.652.652,0,0,1-.651-.651V259.468a.653.653,0,0,1,.651-.652" transform="translate(22.655 -173.9)" fill="#01020e" fill-rule="evenodd"/>
          <path id="Trazado_553057" data-name="Trazado 553057" d="M122.559,258.816h.512a.267.267,0,0,1,.266.267v.909a.267.267,0,0,1-.266.267h-.512a.267.267,0,0,1-.267-.267v-.909a.268.268,0,0,1,.267-.267" transform="translate(0.475 -173.9)" fill="#01020e" fill-rule="evenodd"/>
          <path id="Trazado_553058" data-name="Trazado 553058" d="M101.835,258.816H105.6a.37.37,0,0,1,.368.369v.705a.37.37,0,0,1-.368.369h-3.763a.37.37,0,0,1-.368-.369v-.705a.37.37,0,0,1,.368-.369" transform="translate(24.659 -173.9)" fill="#01020e" fill-rule="evenodd"/>
          <path id="Trazado_553059" data-name="Trazado 553059" d="M121.262,277.951a.417.417,0,0,1,.823-.133c.033.2.076.417.132.648.051.215.107.422.168.614a.416.416,0,0,1-.793.252c-.077-.24-.139-.464-.188-.673-.056-.233-.1-.47-.141-.707" transform="translate(1.747 -186.45)" fill="#01020e" fill-rule="evenodd"/>
          <path id="Trazado_553060" data-name="Trazado 553060" d="M139.289,258.816h2.684a.289.289,0,0,1,.288.289v.551a.289.289,0,0,1-.288.288h-2.684a.289.289,0,0,1-.287-.288V259.1a.289.289,0,0,1,.287-.289" transform="translate(-23.916 -173.9)" fill="#01020e" fill-rule="evenodd"/>
          <path id="Trazado_553061" data-name="Trazado 553061" d="M109.1,258.746a.606.606,0,1,0-1.05.6l2.143,3.712a.6.6,0,0,0,.525.3v0h9.374a.608.608,0,0,0,0-1.217h-9.026Z" transform="translate(7.799 -173.649)" fill="#01020e" fill-rule="evenodd"/>
          <path id="Trazado_553062" data-name="Trazado 553062" d="M94.5,250.663h29.472a.574.574,0,0,0,.572-.572V246.8a.574.574,0,0,0-.572-.573H94.5a.574.574,0,0,0-.572.573v3.291a.574.574,0,0,0,.572.572m16.968-.792a.148.148,0,0,1-.148-.148v-.849a.148.148,0,0,1,.148-.148h1.01a.148.148,0,0,1,.148.148v.849a.148.148,0,0,1-.148.148Zm2.128,0a.148.148,0,0,1-.148-.148v-.849a.148.148,0,0,1,.148-.148h1.01a.148.148,0,0,1,.148.148v.849a.148.148,0,0,1-.148.148Zm4.256,0a.148.148,0,0,1-.147-.148v-.849a.148.148,0,0,1,.147-.148h1.01a.149.149,0,0,1,.148.148v.849a.148.148,0,0,1-.148.148Zm2.128,0a.148.148,0,0,1-.148-.148v-.849a.148.148,0,0,1,.148-.148h1.011a.149.149,0,0,1,.148.148v.849a.148.148,0,0,1-.148.148Zm-8.512-1.708a.148.148,0,0,1-.148-.147v-.849a.148.148,0,0,1,.148-.148h1.01a.148.148,0,0,1,.148.148v.849a.148.148,0,0,1-.148.147Zm2.128,0a.148.148,0,0,1-.148-.147v-.849a.148.148,0,0,1,.148-.148h1.01a.148.148,0,0,1,.148.148v.849a.148.148,0,0,1-.148.147Zm4.256,0a.147.147,0,0,1-.147-.147v-.849a.148.148,0,0,1,.147-.148h1.01a.149.149,0,0,1,.148.148v.849a.148.148,0,0,1-.148.147Zm2.128,0a.148.148,0,0,1-.148-.147v-.849a.148.148,0,0,1,.148-.148h1.011a.149.149,0,0,1,.148.148v.849a.148.148,0,0,1-.148.147Zm-23.445,1.708a.148.148,0,0,1-.147-.148v-.849a.148.148,0,0,1,.147-.148h1.01a.149.149,0,0,1,.148.148v.849a.148.148,0,0,1-.148.148Zm2.128,0a.148.148,0,0,1-.148-.148v-.849a.149.149,0,0,1,.148-.148h1.01a.149.149,0,0,1,.148.148v.849a.148.148,0,0,1-.148.148Zm2.128,0a.148.148,0,0,1-.148-.148v-.849a.148.148,0,0,1,.148-.148h1.01a.148.148,0,0,1,.147.148v.849a.148.148,0,0,1-.147.148Zm2.128,0a.148.148,0,0,1-.148-.148v-.849a.148.148,0,0,1,.148-.148h1.01a.148.148,0,0,1,.148.148v.849a.148.148,0,0,1-.148.148Zm2.128,0a.148.148,0,0,1-.148-.148v-.849a.148.148,0,0,1,.148-.148h1.011a.148.148,0,0,1,.148.148v.849a.148.148,0,0,1-.148.148Zm-8.512-1.708a.147.147,0,0,1-.147-.147v-.849a.148.148,0,0,1,.147-.148h1.01a.149.149,0,0,1,.148.148v.849a.148.148,0,0,1-.148.147Zm2.128,0a.148.148,0,0,1-.148-.147v-.849a.149.149,0,0,1,.148-.148h1.01a.149.149,0,0,1,.148.148v.849a.148.148,0,0,1-.148.147Zm2.128,0a.148.148,0,0,1-.148-.147v-.849a.148.148,0,0,1,.148-.148h1.01a.148.148,0,0,1,.147.148v.849a.147.147,0,0,1-.147.147Zm2.128,0a.148.148,0,0,1-.148-.147v-.849a.148.148,0,0,1,.148-.148h1.01a.148.148,0,0,1,.148.148v.849a.148.148,0,0,1-.148.147Zm2.128,0a.148.148,0,0,1-.148-.147v-.849a.148.148,0,0,1,.148-.148h1.011a.148.148,0,0,1,.148.148v.849a.148.148,0,0,1-.148.147Z" transform="translate(8.546 -165.43)" fill="#0f1630" fill-rule="evenodd"/>
          <path id="Trazado_553063" data-name="Trazado 553063" d="M146.309,250.928h.484a.084.084,0,0,0,.084-.084v-2.111a.084.084,0,0,0-.084-.084h-.484a.084.084,0,0,0-.084.084v2.111a.084.084,0,0,0,.084.084" transform="translate(-30.895 -167.059)" fill="#7385a1" fill-rule="evenodd"/>
          <path id="Trazado_553064" data-name="Trazado 553064" d="M143.017,249.789h.485a.084.084,0,0,0,.083-.085v-.971a.084.084,0,0,0-.083-.084h-.485a.084.084,0,0,0-.084.084v.971a.084.084,0,0,0,.084.085" transform="translate(-26.526 -167.059)" fill="#01020e" fill-rule="evenodd"/>
          <path id="Trazado_553065" data-name="Trazado 553065" d="M137.5,250.437h.506a.073.073,0,0,0,.073-.073v-.424a.073.073,0,0,0-.073-.073H137.5a.074.074,0,0,0-.073.073v.424a.074.074,0,0,0,.073.073" transform="translate(-19.218 -167.879)" fill="#7385a1" fill-rule="evenodd"/>
          <path id="Trazado_553066" data-name="Trazado 553066" d="M137.5,254.374h.506a.073.073,0,0,0,.073-.074v-.424a.073.073,0,0,0-.073-.073H137.5a.073.073,0,0,0-.073.073v.424a.074.074,0,0,0,.073.074" transform="translate(-19.218 -170.528)" fill="#7385a1" fill-rule="evenodd"/>
          <path id="Trazado_553067" data-name="Trazado 553067" d="M97.252,248.77h.507a.073.073,0,0,0,.073-.073v-.424a.073.073,0,0,0-.073-.073h-.507a.074.074,0,0,0-.073.073v.424a.074.074,0,0,0,.073.073" transform="translate(34.196 -166.757)" fill="#7385a1" fill-rule="evenodd"/>
          <path id="Trazado_553068" data-name="Trazado 553068" d="M97.252,252.7h.507a.073.073,0,0,0,.073-.073v-.424a.073.073,0,0,0-.073-.073h-.507a.073.073,0,0,0-.073.073v.424a.074.074,0,0,0,.073.073" transform="translate(34.196 -169.405)" fill="#01020e" fill-rule="evenodd"/>
          <path id="Trazado_553069" data-name="Trazado 553069" d="M97.252,256.642h.507a.074.074,0,0,0,.073-.074v-.423a.073.073,0,0,0-.073-.073h-.507a.074.074,0,0,0-.073.073v.423a.074.074,0,0,0,.073.074" transform="translate(34.196 -172.054)" fill="#7385a1" fill-rule="evenodd"/>
          <path id="Trazado_553070" data-name="Trazado 553070" d="M104.74,347.58h-1.3a1.34,1.34,0,1,0,0,2.681h1.3a1.34,1.34,0,1,0,0-2.681" transform="translate(24.338 -233.624)" fill="#01020e" fill-rule="evenodd"/>
          <path id="Trazado_553071" data-name="Trazado 553071" d="M105.292,259.862h-2.4a.79.79,0,1,0,0,1.58h2.4a.79.79,0,0,0,0-1.58" transform="translate(24.336 -174.604)" fill="#01020e" fill-rule="evenodd"/>
          <path id="Trazado_553072" data-name="Trazado 553072" d="M106.754,282.064h0c-.382,0-.695.211-.695.467v23.18c0,.256.313.467.695.467h0c.383,0,.7-.211.7-.467v-23.18c0-.257-.312-.467-.7-.467" transform="translate(21.675 -189.542)" fill="#01020e" fill-rule="evenodd"/>
          <path id="Trazado_553073" data-name="Trazado 553073" d="M110.286,350.485a.622.622,0,0,0-1.231-.175L105.63,374.3a.622.622,0,1,0,1.231.175Z" transform="translate(18.973 -235.102)" fill="#01020e" fill-rule="evenodd"/>
          <path id="Trazado_553074" data-name="Trazado 553074" d="M60.412,350.076a.621.621,0,1,0-1.061.647l14.68,23.988a.621.621,0,0,0,1.061-.647Z" transform="translate(69.251 -235.103)" fill="#01020e" fill-rule="evenodd"/>
          <path id="Trazado_553075" data-name="Trazado 553075" d="M122.771,350.076a.621.621,0,1,1,1.061.647l-14.679,23.988a.622.622,0,0,1-1.061-.647Z" transform="translate(4.565 -235.103)" fill="#01020e" fill-rule="evenodd"/>
          <path id="Trazado_553076" data-name="Trazado 553076" d="M426.194,347.58h1.3a1.34,1.34,0,1,1,0,2.681h-1.3a1.34,1.34,0,1,1,0-2.681" transform="translate(-404.006 -233.624)" fill="#0f1630" fill-rule="evenodd"/>
          <path id="Trazado_553077" data-name="Trazado 553077" d="M419.234,350.485a.622.622,0,0,1,1.232-.175L423.89,374.3a.622.622,0,1,1-1.231.175Z" transform="translate(-397.228 -235.102)" fill="#0f1630" fill-rule="evenodd"/>
          <path id="Trazado_553078" data-name="Trazado 553078" d="M438.175,53.052h0a.288.288,0,0,1,.286.287V177.09a.287.287,0,1,1-.573,0V53.339a.288.288,0,0,1,.287-.287" transform="translate(-417.898 -35.453)" fill="#01020e" fill-rule="evenodd"/>
          <path id="Trazado_553079" data-name="Trazado 553079" d="M425.642,259.862h2.4a.79.79,0,1,1,0,1.58h-2.4a.79.79,0,1,1,0-1.58" transform="translate(-404.005 -174.604)" fill="#0f1630" fill-rule="evenodd"/>
          <path id="Trazado_553080" data-name="Trazado 553080" d="M429.506,246.25h0a.7.7,0,0,1,.7.695v34.442a.7.7,0,0,1-.7.695h0a.7.7,0,0,1-.7-.695V246.945a.7.7,0,0,1,.7-.695" transform="translate(-406.668 -165.445)" fill="#0f1630" fill-rule="evenodd"/>
          <path id="Trazado_553081" data-name="Trazado 553081" d="M445.963,350.076a.621.621,0,1,1,1.061.647l-14.679,23.988a.621.621,0,1,1-1.061-.647Z" transform="translate(-424.362 -235.103)" fill="#0f1630" fill-rule="evenodd"/>
          <path id="Trazado_553082" data-name="Trazado 553082" d="M383.6,350.076a.621.621,0,1,0-1.061.647l14.679,23.988a.621.621,0,0,0,1.061-.647Z" transform="translate(-359.674 -235.103)" fill="#0f1630" fill-rule="evenodd"/>
          <path id="Trazado_553083" data-name="Trazado 553083" d="M429.956,216.028h0c.262,0,.476-.143.476-.319V198.316c0-.174-.214-.318-.476-.318h0c-.262,0-.476.143-.476.318v17.393c0,.175.214.319.476.319" transform="translate(-407.119 -132.979)" fill="#0f1630" fill-rule="evenodd"/>
          <path id="Trazado_553084" data-name="Trazado 553084" d="M432.464,165.179a.209.209,0,1,1,.418,0v5.862a9.539,9.539,0,0,0,.465,2.845,5.49,5.49,0,0,0,1.375,2.29,3.705,3.705,0,0,0,.736.539v.471a4.108,4.108,0,0,1-1.022-.706,5.9,5.9,0,0,1-1.485-2.463,9.967,9.967,0,0,1-.488-2.976Z" transform="translate(-413.121 -110.756)" fill="#0f1630" fill-rule="evenodd"/>
          <path id="Trazado_553085" data-name="Trazado 553085" d="M428.937,168.852h-1.248a.692.692,0,0,0-.651.723v12.041a.692.692,0,0,0,.651.723h1.248a.691.691,0,0,0,.651-.723V169.575a.692.692,0,0,0-.651-.723" transform="translate(-405.476 -113.368)" fill="#0f1630" fill-rule="evenodd"/>
          <path id="Trazado_553086" data-name="Trazado 553086" d="M415.315,172.787l-.494-.132a.268.268,0,0,0-.327.188l-.235.878a.267.267,0,0,0,.189.327l.494.132a.267.267,0,0,0,.327-.188l.235-.878a.267.267,0,0,0-.188-.327" transform="translate(-387.217 -115.921)" fill="#0f1630" fill-rule="evenodd"/>
          <path id="Trazado_553087" data-name="Trazado 553087" d="M428.517,168.31l-3.634-.974a.369.369,0,0,0-.451.26l-.183.682a.369.369,0,0,0,.26.451l3.635.974a.369.369,0,0,0,.451-.26l.183-.682a.369.369,0,0,0-.26-.451" transform="translate(-403.761 -112.34)" fill="#0f1630" fill-rule="evenodd"/>
          <path id="Trazado_553088" data-name="Trazado 553088" d="M438.351,187.3a.417.417,0,0,1,.823-.134c.033.2.076.417.131.648.051.215.107.421.168.614a.416.416,0,1,1-.793.251c-.077-.239-.139-.464-.188-.673-.055-.233-.1-.471-.141-.707" transform="translate(-419.08 -125.455)" fill="#0f1630" fill-rule="evenodd"/>
          <path id="Trazado_553089" data-name="Trazado 553089" d="M407.967,161.35l9.42,2.524a.669.669,0,0,0,.818-.473l.444-1.654a.67.67,0,0,0-.473-.819l-9.42-2.524a.67.67,0,0,0-.818.472l-.444,1.654a.671.671,0,0,0,.473.819" transform="translate(-388.157 -106.324)" fill="#0f1630" fill-rule="evenodd"/>
          <path id="Trazado_553090" data-name="Trazado 553090" d="M333.666,123.506l.382,1.991-1.587,1.263s-3.415,3.7-4.341,13.822S330.641,155,330.641,155c1.715-2.334,6.983-1.307,6.983-1.307a28.781,28.781,0,0,1,7.923-14.3c.059-2.656,2.711-8.634,2.711-8.634s1.882-6.264,3.568-8.317a28.783,28.783,0,0,1,3.3-16.008s-4.665-2.652-4.447-5.541c0,0-5.413,1.012-11.3,9.3s-5.71,13.315-5.71,13.315" transform="translate(-298.602 -67.644)" fill="#0f1630" fill-rule="evenodd"/>
          <path id="Trazado_553091" data-name="Trazado 553091" d="M354.464,117.632q.115-.229.234-.459s-.2-.114-.516-.32c-2.49.216-7.655,1.335-16.554,6.03l-.089.14c3.912-1.893,11.974-5.467,16.926-5.391m-9.286,31.81a5.968,5.968,0,0,0-.061.689s-.081.07-.226.208c0,0-9.932-4.908-14.3-10.547.054-.108.107-.213.159-.313,2.125,2.354,6.569,6.4,14.426,9.962m-7.862,14.485c-3.806-3.168-7.595-11.132-9.329-15.116l-.024.165c3.693,9.359,6.883,13.573,8.631,15.359.373.049.6.093.6.093q.059-.252.122-.5m13.677-30.184a5.838,5.838,0,0,1,.4-.562s-.015-.106-.036-.305c0,0-10.732-2.746-17.719-1.313q-.045.176-.083.342c3.146-.4,9.15-.573,17.435,1.839" transform="translate(-298.172 -78.381)" fill="#01020e" fill-rule="evenodd"/>
          <path id="Trazado_553092" data-name="Trazado 553092" d="M351.774,125.6s3.516-10.283,6.938-12.422c0,0,2.109-9,9.417-12.283,0,0-13.445,1.737-17.342,11.732,0,0-4.085,1.895-4.672,4.6s-.507,3.536-1.4,5.759c-.768,2.271-1.372,2.85-2.688,5.284s.55,6.532.55,6.532c-3.555,10.122,5.515,20.2,5.515,20.2-3.4-7.255.857-15.454.857-15.454-1.2-3.852,2.828-13.944,2.828-13.944" transform="translate(-316.05 -67.644)" fill="#272d47" fill-rule="evenodd"/>
          <path id="Trazado_553093" data-name="Trazado 553093" d="M365.536,102.435a13.538,13.538,0,0,1,2.593-1.54s-11.984,1.55-16.6,10.135c.261-.389,5.488-8.006,14.009-8.6m-16.685,36.741c.027.128.059.251.1.368-4.132-.606-6.371-4.744-6.371-4.744s-1.7-3.746-.705-6.2c-1.1,8.254,6.982,10.578,6.982,10.578m-1.725,12.964c-6.081-6-5.085-15.182-5.03-15.648-2.089,9.523,5.994,18.505,5.994,18.505a13.577,13.577,0,0,1-.964-2.858M358.4,113.395h0s-7.641-3.5-12.188,3.478c.842-2.514,4.575-4.246,4.575-4.246s4.394-1.682,7.925.551q-.156.1-.312.217" transform="translate(-316.05 -67.644)" fill="#0f1630" fill-rule="evenodd"/>
          <path id="Trazado_553094" data-name="Trazado 553094" d="M381.36,333.919c-3.866-1.67-4.478,2.65-2.761,6.057,1.161,2.305,5.349,8.21,8.169,13.232h3.218c-1.1-7.6-4.631-17.563-8.626-19.289" transform="translate(-349.729 -224.183)" fill="#839ec2" fill-rule="evenodd"/>
          <path id="Trazado_553095" data-name="Trazado 553095" d="M390.6,356.653c-2.745-9.205-9.065-17.879-9.09-17.914a.173.173,0,0,0-.237-.039.167.167,0,0,0-.039.235c.025.035,6.279,8.619,9.017,17.719Z" transform="translate(-351.492 -227.629)" fill="#acc3e2" fill-rule="evenodd"/>
          <path id="Trazado_553096" data-name="Trazado 553096" d="M363.687,290.129c3.9-3.822,6.56,1.024,6.017,5.89-.515,4.615-5.015,20.451-4.477,27.11l-1.536,0c-3.492-8.536-4.994-28.11,0-33" transform="translate(-323.888 -194.043)" fill="#5c7596" fill-rule="evenodd"/>
          <path id="Trazado_553097" data-name="Trazado 553097" d="M371.055,327.409c-3.241-13.457,1.963-32.07,1.981-32.133a.224.224,0,0,1,.267-.159.207.207,0,0,1,.151.259c-.018.063-5.227,18.7-1.955,32.032Z" transform="translate(-330.687 -198.321)" fill="#839ec2" fill-rule="evenodd"/>
          <path id="Trazado_553098" data-name="Trazado 553098" d="M346.438,317.833c4.086-1.951,4.87,2.64,3.133,6.356-1.438,3.079-7.574,12.125-10.013,17.987l-2.026-.07c.226-8.21,4.081-21.97,8.9-24.273" transform="translate(-297.045 -213.297)" fill="#acc3e2" fill-rule="evenodd"/>
          <path id="Trazado_553099" data-name="Trazado 553099" d="M343.349,345.8c1.856-11.051,9.9-22.856,9.931-22.9a.185.185,0,0,1,.252-.051.177.177,0,0,1,.049.248c-.028.043-8.023,11.771-9.872,22.715Z" transform="translate(-302.12 -216.966)" fill="#839ec2" fill-rule="evenodd"/>
          <path id="Trazado_553100" data-name="Trazado 553100" d="M360.013,388.627h12.021a.655.655,0,0,1,.653.654v2.968a.655.655,0,0,1-.653.653H360.013a.655.655,0,0,1-.653-.653v-2.968a.655.655,0,0,1,.653-.654" transform="translate(-326.434 -261.243)" fill="#282d48" fill-rule="evenodd"/>
          <path id="Trazado_553101" data-name="Trazado 553101" d="M363.419,396.007h7.9l2.062,1.86-1.684,6.489h-8.652l-1.685-6.489Z" transform="translate(-327.777 -266.208)" fill="#282d48" fill-rule="evenodd"/>
          <path id="Trazado_553102" data-name="Trazado 553102" d="M373.377,401.694l-.347,1.333H361.7l-.346-1.333Z" transform="translate(-327.777 -270.035)" fill="#0f1630" fill-rule="evenodd"/>
          <path id="Trazado_553103" data-name="Trazado 553103" d="M67.382,166.957l2.774,1.087,8.365-15.292L76.9,151.578l1.626-1.175-8.365-15.292L67.382,136.2,62.8,151.578Z" transform="translate(64.755 -90.666)" fill="#0f1630" fill-rule="evenodd"/>
          <path id="Trazado_553104" data-name="Trazado 553104" d="M59.019,347.58h-1.3a1.34,1.34,0,1,0,0,2.681h1.3a1.34,1.34,0,1,0,0-2.681" transform="translate(85.017 -233.624)" fill="#0f1630" fill-rule="evenodd"/>
          <path id="Trazado_553105" data-name="Trazado 553105" d="M59.569,259.862h-2.4a.79.79,0,0,0,0,1.58h2.4a.79.79,0,0,0,0-1.58" transform="translate(85.017 -174.604)" fill="#0f1630" fill-rule="evenodd"/>
          <path id="Trazado_553106" data-name="Trazado 553106" d="M61.031,246.25h0a.7.7,0,0,0-.7.695v34.442a.7.7,0,0,0,.7.695h0a.7.7,0,0,0,.7-.695V246.945a.7.7,0,0,0-.7-.695" transform="translate(82.355 -165.445)" fill="#0f1630" fill-rule="evenodd"/>
          <path id="Trazado_553107" data-name="Trazado 553107" d="M64.564,350.485a.622.622,0,0,0-1.231-.175L59.908,374.3a.622.622,0,1,0,1.231.175Z" transform="translate(79.653 -235.102)" fill="#0f1630" fill-rule="evenodd"/>
          <path id="Trazado_553108" data-name="Trazado 553108" d="M14.689,350.076a.621.621,0,1,0-1.061.647l14.68,23.988a.621.621,0,0,0,1.061-.647Z" transform="translate(129.932 -235.103)" fill="#0f1630" fill-rule="evenodd"/>
          <path id="Trazado_553109" data-name="Trazado 553109" d="M77.049,350.076a.621.621,0,1,1,1.061.647L63.43,374.711a.621.621,0,1,1-1.06-.647Z" transform="translate(65.245 -235.103)" fill="#0f1630" fill-rule="evenodd"/>
          <path id="Trazado_553110" data-name="Trazado 553110" d="M61.482,216.028h0c-.262,0-.476-.143-.476-.319V198.316c0-.174.214-.318.476-.318h0c.262,0,.476.143.476.318v17.393c0,.175-.214.319-.476.319" transform="translate(81.904 -132.979)" fill="#0f1630" fill-rule="evenodd"/>
          <path id="Trazado_553111" data-name="Trazado 553111" d="M54.775,188.2a.209.209,0,0,0-.418,0v3.583a9.507,9.507,0,0,1-.465,2.845,5.483,5.483,0,0,1-1.375,2.29,3.686,3.686,0,0,1-.736.539v.47a4.106,4.106,0,0,0,1.022-.706,5.9,5.9,0,0,0,1.484-2.463,9.936,9.936,0,0,0,.488-2.975Z" transform="translate(92.105 -126.248)" fill="#0f1630" fill-rule="evenodd"/>
          <path id="Trazado_553112" data-name="Trazado 553112" d="M59.215,188.978h1.247a.653.653,0,0,1,.652.652v10.853a.653.653,0,0,1-.652.651H59.215a.653.653,0,0,1-.651-.651V189.63a.653.653,0,0,1,.651-.652" transform="translate(83.547 -126.91)" fill="#0f1630" fill-rule="evenodd"/>
          <path id="Trazado_553113" data-name="Trazado 553113" d="M55.955,188.978h3.763a.369.369,0,0,1,.368.368v.706a.369.369,0,0,1-.368.369H55.955a.369.369,0,0,1-.368-.369v-.706a.369.369,0,0,1,.368-.368" transform="translate(85.549 -126.91)" fill="#0f1630" fill-rule="evenodd"/>
          <path id="Trazado_553114" data-name="Trazado 553114" d="M52.687,203.359a.417.417,0,0,0-.823-.134c-.033.2-.076.417-.131.648-.051.215-.108.422-.169.614a.416.416,0,0,0,.793.251c.077-.24.139-.464.189-.673.055-.233.1-.471.14-.707" transform="translate(94.265 -136.261)" fill="#0f1630" fill-rule="evenodd"/>
          <path id="Trazado_553115" data-name="Trazado 553115" d="M61.238,183.833H51.486a.67.67,0,0,1-.668-.668v-1.712a.67.67,0,0,1,.668-.668h9.752a.67.67,0,0,1,.669.668v1.712a.67.67,0,0,1-.669.668" transform="translate(85.288 -121.397)" fill="#0f1630" fill-rule="evenodd"/>
          <path id="Trazado_553116" data-name="Trazado 553116" d="M100.521,132.876H89.382a1.971,1.971,0,0,0-2.166,1.67V165.6a1.97,1.97,0,0,0,2.166,1.669h11.139a1.971,1.971,0,0,0,2.166-1.669V134.546a1.971,1.971,0,0,0-2.166-1.67" transform="translate(32.6 -89.162)" fill="#0f1630" fill-rule="evenodd"/>
          <path id="Trazado_553117" data-name="Trazado 553117" d="M103.872,138.387c.295,0,.538.181.538.4v29.99c0,.219-.243.4-.538.4H92.733c-.295,0-.538-.181-.538-.4v-29.99c0-.219.243-.4.538-.4Z" transform="translate(29.249 -92.87)" fill="#fff" fill-rule="evenodd"/>
          <path id="Trazado_553118" data-name="Trazado 553118" d="M105.24,163.579v3.536L94.6,156.475v-3.536Zm0,5.61L94.6,158.549v5.893l10.64,10.64Z" transform="translate(27.631 -102.661)" fill="#ebf0f3" fill-rule="evenodd"/>
          <path id="Trazado_553119" data-name="Trazado 553119" d="M118.429,178.983a2.171,2.171,0,0,0-2.171-2.171,2.171,2.171,0,0,0,2.171-2.171,2.171,2.171,0,0,0,2.171,2.171,2.171,2.171,0,0,0-2.171,2.171" transform="translate(5.186 -117.264)" fill="#fff" fill-rule="evenodd"/>
          <path id="Trazado_553120" data-name="Trazado 553120" d="M114.994,187.188a1.211,1.211,0,0,0-1.211-1.211,1.211,1.211,0,0,0,1.211-1.211,1.21,1.21,0,0,0,1.21,1.211,1.21,1.21,0,0,0-1.21,1.211" transform="translate(10.391 -124.076)" fill="#fff" fill-rule="evenodd"/>
          <path id="Trazado_553121" data-name="Trazado 553121" d="M33.043,413.789h136.7a3.905,3.905,0,1,1,0,7.811H156.57a2.17,2.17,0,1,0,0,4.339h4.821a2.72,2.72,0,0,1,2.712,2.711h0a2.72,2.72,0,0,1-2.712,2.712H41.83a2.719,2.719,0,0,1-2.711-2.712h0a2.719,2.719,0,0,1,2.711-2.711h3.8a2.17,2.17,0,0,0,0-4.339H33.043a3.905,3.905,0,0,1,0-7.811m2.034,17.574a2.611,2.611,0,0,0,2.6-2.6v-.217a2.6,2.6,0,0,0-5.207,0v.217a2.611,2.611,0,0,0,2.6,2.6" transform="translate(-19.363 -278.173)" fill="#01020e" fill-rule="evenodd"/>
          <path id="Trazado_553122" data-name="Trazado 553122" d="M147.377,377.389l5.6,1.163,4.949-1.163-2.661-3.808H144.714Z" transform="translate(-41.444 -251.119)" fill="#915e40" fill-rule="evenodd"/>
          <path id="Trazado_553123" data-name="Trazado 553123" d="M129.254,382.5h10.891a.85.85,0,0,0,.847-.848v-2.9a.85.85,0,0,0-.847-.848H129.254a.851.851,0,0,0-.848.848v2.9a.85.85,0,0,0,.848.848" transform="translate(-19.18 -254.027)" fill="#fff" fill-rule="evenodd"/>
          <path id="Trazado_553124" data-name="Trazado 553124" d="M131.955,384.142h10.891a.85.85,0,0,0,.848-.847v-2.906a.851.851,0,0,0-.848-.847H131.955a.851.851,0,0,0-.848.847V383.3a.85.85,0,0,0,.848.847" transform="translate(-22.765 -255.13)" fill="#f8cfbe" fill-rule="evenodd"/>
          <path id="Trazado_553125" data-name="Trazado 553125" d="M134.048,386.137h10.89a.85.85,0,0,0,.848-.848v-2.905a.85.85,0,0,0-.848-.848h-10.89a.85.85,0,0,0-.848.848v2.905a.851.851,0,0,0,.848.848" transform="translate(-25.542 -256.472)" fill="#fff" fill-rule="evenodd"/>
          <path id="Trazado_553126" data-name="Trazado 553126" d="M116.486,377.389l-6.509.969-3.259-.969,2.662-3.808h9.769Z" transform="translate(9.76 -251.119)" fill="#0f1630" fill-rule="evenodd"/>
          <path id="Trazado_553133" data-name="Trazado 553133" d="M168.912,398.348l-2.883.6-2.549-.6,1.371-1.961h5.431Z" transform="translate(-59.945 -266.464)" fill="#cdd1e4" fill-rule="evenodd"/>
          <path id="Trazado_553136" data-name="Trazado 553136" d="M216.492,174.434a.816.816,0,0,1,0-1.633.816.816,0,1,1,0,1.633" transform="translate(-124.048 -116.025)" fill="#fff" fill-rule="evenodd"/>
          <path id="Trazado_553137" data-name="Trazado 553137" d="M220.286,165.165a1.433,1.433,0,0,0-1.434-1.433,1.434,1.434,0,0,0,1.434-1.434,1.434,1.434,0,0,0,1.433,1.434,1.433,1.433,0,0,0-1.433,1.433" transform="translate(-129.497 -108.959)" fill="#fff" fill-rule="evenodd"/>
          <path id="Trazado_553138" data-name="Trazado 553138" d="M230.039,169.672a.892.892,0,0,0-.892-.892.891.891,0,0,1,1.782,0,.891.891,0,0,0-.891.892" transform="translate(-142.076 -112.721)" fill="#fff" fill-rule="evenodd"/>
          <path id="Trazado_553162" data-name="Trazado 553162" d="M290.363,404.758v-.538c0-.08-.015-.375-.417-.375h-.975a.567.567,0,0,0-.648.588v1.687c0,.3-1.173,1.054-1.309,1.282a.711.711,0,0,0-.092.539,14.394,14.394,0,0,0,3.292.189c.334-.182.2-1.9.2-1.9Z" transform="translate(-220.485 -271.481)" fill="#272d47" fill-rule="evenodd"/>
          <path id="Trazado_553163" data-name="Trazado 553163" d="M213.127,409.307s5.492.152,5.7-.3V408.4c0-.243-.251-.591-.934-.819s-2.139-.668-2.586-.827a11.615,11.615,0,0,1-1.911-1.98c-.182-.2-1.032.44-1.214.547s-.061.363.03.667.91,3.323.91,3.323" transform="translate(-124.398 -272.079)" fill="#272d47" fill-rule="evenodd"/>
          <path id="Trazado_553164" data-name="Trazado 553164" d="M220.488,418.712H211.7a.19.19,0,0,1-.189-.189v-.547a.19.19,0,0,1,.189-.189h8.785a.19.19,0,0,1,.189.189v.547a.19.19,0,0,1-.189.189" transform="translate(-126.054 -280.863)" fill="#ced7dc" fill-rule="evenodd"/>
          <path id="Trazado_553165" data-name="Trazado 553165" d="M214.689,418.712H211.7a.19.19,0,0,1-.189-.189v-.547a.19.19,0,0,1,.189-.189h2.985a.19.19,0,0,1,.189.189v.547a.19.19,0,0,1-.189.189" transform="translate(-120.255 -280.863)" fill="#aab2b8" fill-rule="evenodd"/>
          <path id="Trazado_553166" data-name="Trazado 553166" d="M217.373,408.067c-.03.106-.3.637-.114.766a3,3,0,0,0,1.138.591h1.965c.9,0,.694-.314.694-.314a.6.6,0,0,1,.2.406v.607h-8.784a2.309,2.309,0,0,1-.372-1.449c0-1.016-.049-1.6.1-1.764s.25-.079.25-.079a1.657,1.657,0,0,0,1.942-.068c.046-.025.09-.05.132-.075.351-.209.566-.4.877-.22.349.2,1.578,1.07,1.775,1.206s.228.288.2.395" transform="translate(-126.824 -273.199)" fill="#0f1630" fill-rule="evenodd"/>
          <path id="Trazado_553167" data-name="Trazado 553167" d="M221.256,410.723v.457h-8.785a2.31,2.31,0,0,1-.372-1.449c0-1.017-.049-1.6.1-1.764-.02.326.153.69.456.69h1.751c.642,0,.772.344.772.344s.324.642.558,1.1a1.275,1.275,0,0,0,.908.764h4.225a.508.508,0,0,0,.388-.139" transform="translate(-126.823 -274.255)" fill="#01020e" fill-rule="evenodd"/>
          <path id="Trazado_553168" data-name="Trazado 553168" d="M289.666,409.4l.251-.106a.414.414,0,0,0,.106-.292v-.636c0-.154.164-.18.164-.453v-1.895c0-.351-.431-.563-.714-.77a.43.43,0,0,0-.678.395v1.214a.66.66,0,0,0,.3.662c.238.167.41.3.48.344s.036.263-.05.435a1.163,1.163,0,0,1-1.107.541h-1.4c-.359,0-.5-.227-.5-.551s1.376-.566,1.376-1.3v-1.4a.293.293,0,0,0-.192-.257c-.061-.038-.159,0-.357.3s-.136.52-.136,1.028a1.787,1.787,0,0,1-.714,1.313,1.6,1.6,0,0,0-.791,1.327c0,.7,3.7.812,3.96.106" transform="translate(-219.837 -272.368)" fill="#0f1630" fill-rule="evenodd"/>
          <path id="Trazado_553169" data-name="Trazado 553169" d="M290.187,407.785v-1.677c0-.351-.431-.563-.714-.77a.437.437,0,0,0-.066-.04.553.553,0,0,1,.185.445v.993a1.189,1.189,0,0,0,.595,1.049m-2.694-2.261a1.928,1.928,0,0,0-.146.193c-.2.292-.136.52-.136,1.028a1.442,1.442,0,0,1-.212.732,3.948,3.948,0,0,0,.48-.776,10.508,10.508,0,0,0,.014-1.176m-1.386,2.88a1.285,1.285,0,0,0-.4.979c0,.615,2.861.777,3.728.326l-.75.141.383-.39s-.133-.343-.379-.343h-2.023c-.269,0-.557-.119-.557-.713" transform="translate(-219.837 -272.46)" fill="#01020e" fill-rule="evenodd"/>
          <path id="Trazado_553170" data-name="Trazado 553170" d="M290.353,418.712h-4.21a.189.189,0,0,1-.189-.189v-.547a.189.189,0,0,1,.189-.189h4.21a.19.19,0,0,1,.189.189v.547a.19.19,0,0,1-.189.189" transform="translate(-220.273 -280.863)" fill="#ced7dc" fill-rule="evenodd"/>
          <path id="Trazado_553171" data-name="Trazado 553171" d="M287.434,418.712h-1.291a.19.19,0,0,1-.19-.189v-.547a.19.19,0,0,1,.19-.189h1.291a.19.19,0,0,1,.189.189v.547a.19.19,0,0,1-.189.189" transform="translate(-217.354 -280.863)" fill="#aab2b8" fill-rule="evenodd"/>
          <path id="Trazado_553172" data-name="Trazado 553172" d="M289.3,406.287a.061.061,0,0,1-.045-.081.079.079,0,0,1,.1-.038l.6.183.6-.183a.078.078,0,0,1,.1.038.061.061,0,0,1-.044.081l-.429.131.429.132a.061.061,0,0,1,.044.081.079.079,0,0,1-.1.038l-.6-.183-.6.183a.079.079,0,0,1-.1-.038.061.061,0,0,1,.045-.081l.429-.132Zm1.245,1.109a.079.079,0,0,1,.1.038.061.061,0,0,1-.044.081l-.429.132.429.132a.061.061,0,0,1,.044.081.078.078,0,0,1-.1.038l-.6-.183-.6.183a.078.078,0,0,1-.1-.038.061.061,0,0,1,.045-.081l.429-.132-.429-.132a.061.061,0,0,1-.045-.081.079.079,0,0,1,.1-.038l.6.183Zm0-.614a.079.079,0,0,1,.1.038.061.061,0,0,1-.044.081l-.429.132.429.131a.061.061,0,0,1,.044.081.079.079,0,0,1-.1.037l-.6-.182-.6.182a.079.079,0,0,1-.1-.037.061.061,0,0,1,.045-.081l.429-.131-.429-.132a.061.061,0,0,1-.045-.081.079.079,0,0,1,.1-.038l.6.183Z" transform="translate(-221.456 -273.042)" fill="#fff" fill-rule="evenodd"/>
          <path id="Trazado_553173" data-name="Trazado 553173" d="M224.938,406.087a.067.067,0,0,1-.1-.012.087.087,0,0,1,.029-.11l.552-.412.026-.074.119.143-.025.019-.226.651a.087.087,0,0,1-.1.06.067.067,0,0,1-.043-.092l.163-.467Zm1.595.632-.11-.115-.158.453a.067.067,0,0,0,.043.092.085.085,0,0,0,.1-.06Zm-.115-.121-.387.289a.068.068,0,0,1-.1-.013.087.087,0,0,1,.028-.11l.362-.271.1.1m-.382-.422-.146-.169-.478.357a.086.086,0,0,0-.028.11.066.066,0,0,0,.1.013l.4-.3-.162.467a.067.067,0,0,0,.043.093.087.087,0,0,0,.1-.061Z" transform="translate(-136.266 -272.581)" fill="#fff" fill-rule="evenodd"/>
          <path id="Trazado_553228" data-name="Trazado 553228" d="M247.175,180.473a.293.293,0,1,1,.292-.292.293.293,0,0,1-.292.292" transform="translate(-164.416 -120.794)" fill="#fff" fill-rule="evenodd"/>
          <path id="Trazado_553229" data-name="Trazado 553229" d="M262.964,187.862a.293.293,0,1,1,.293-.293.294.294,0,0,1-.293.293" transform="translate(-185.37 -125.766)" fill="#fff" fill-rule="evenodd"/>
        </g>
      </g>
    </g>
    <g id="Grupo_840833" data-name="Grupo 840833" transform="translate(-8365.806 -4130.938)">
      <path id="Trazado_561353" data-name="Trazado 561353" d="M3134.579-73.352a1.033,1.033,0,0,1-.757.283,3.8,3.8,0,0,1-1.76-1.474,6.24,6.24,0,0,0,4.588-3.552c.329-.063.565-.164.208-.508.195-.739-.215-.793-.806-.792q-13.074.02-26.148-.008c-.97,0-.894.372-.638,1.042a6.185,6.185,0,0,0,4.139,3.713,1.6,1.6,0,0,1-1.256,1.58,1.044,1.044,0,0,1-.757-.288,4.259,4.259,0,0,0-2.769-2.223l-.345-.476c.542-.046.573-.321.357-.746-.225-.441-.385-.963-1.045-.536a.874.874,0,0,1-.278-.75c.611-.076.634-.542.5-.941a7.209,7.209,0,0,1-.2-2.368q-.005-23.119,0-46.238a9.149,9.149,0,0,1,.2-3c.133-.4.112-.865-.5-.941a.9.9,0,0,1,.278-.751c.662.428.819-.1,1.044-.537s.184-.7-.357-.745l.343-.476a1.432,1.432,0,0,0,1.511-1.47,4.269,4.269,0,0,1,2.016-1.043.641.641,0,0,0,.654.22c1.5-.18,1.5-.18,1.1,1.259a6.21,6.21,0,0,0-4.592,3.716c-.342.838-.285,1.145.748,1.14q12.963-.051,25.926,0c1.013,0,1.021-.318.7-1.084a6.087,6.087,0,0,0-4.623-3.774c-.388-1.441-.388-1.441,1.106-1.259a.642.642,0,0,0,.656-.22,1.04,1.04,0,0,1,.755.283c.018.634.27.856.857.484a.155.155,0,0,1,.181.109c-.14.167-.277.374-.059.537a7.538,7.538,0,0,1,2.125,2.725.827.827,0,0,0,.852.4,2.464,2.464,0,0,1,.327,1.253c-.815.22-.479.893-.479,1.366q-.026,24-.007,48.007c0,.442-.163.934.24,1.311l0,.26c.065.429-.64.98.2,1.286a4.537,4.537,0,0,1-.894,2.155c-.067-.152-.255-.377-.323-.28a7.982,7.982,0,0,0-1.509,2.383l-.55.427C3134.984-74.141,3134.589-74.092,3134.579-73.352Zm-25.713-31.512c0,7.438.016,14.876-.021,22.313,0,.912.179,1.2,1.157,1.2q12.982-.064,25.964,0c.974,0,1.161-.281,1.159-1.2q-.044-22.251,0-44.5c0-.952-.187-1.269-1.22-1.264q-12.918.07-25.837,0c-1.028-.006-1.228.3-1.223,1.261C3108.883-119.655,3108.866-112.259,3108.866-104.864Z" transform="translate(-1.296 -1.509)" fill="#040405"/>
      <path id="Trazado_561354" data-name="Trazado 561354" d="M3146.391,109.03a3.794,3.794,0,0,0,1.76,1.474,5.365,5.365,0,0,1-2.675.515q-8.162,0-16.324,0a5.366,5.366,0,0,1-2.675-.514,1.6,1.6,0,0,0,1.256-1.58c.792.029,1.583.078,2.374.082q7.385.034,14.77.05c.341.7.677.7,1.01-.005Z" transform="translate(-15.626 -185.083)" fill="#020202"/>
      <path id="Trazado_561355" data-name="Trazado 561355" d="M3106.017-116.679c.611.076.633.543.5.941a9.169,9.169,0,0,0-.2,3q-.015,23.119,0,46.238a7.215,7.215,0,0,0,.2,2.368c.134.4.111.865-.5.941a3.822,3.822,0,0,1-.378-2.033c.631-.421.632-.839,0-1.255-.018-.292-.052-.584-.052-.875q0-22.579,0-45.159c0-.292.034-.583.052-.875.64-.416.632-.835,0-1.256A3.79,3.79,0,0,1,3106.017-116.679Z" transform="translate(0 -16.404)" fill="#090909"/>
      <path id="Trazado_561356" data-name="Trazado 561356" d="M3128.228-136.625c.407-1.44.407-1.439-1.1-1.259a.64.64,0,0,1-.654-.22,5.322,5.322,0,0,1,2.674-.512q8.163,0,16.326,0a5.348,5.348,0,0,1,2.675.513.641.641,0,0,1-.656.22c-1.494-.182-1.494-.183-1.106,1.259Z" transform="translate(-15.627)" fill="#020202"/>
      <path id="Trazado_561357" data-name="Trazado 561357" d="M3230.478-62.949c-.4-.377-.239-.869-.24-1.311q-.012-24,.008-48.007c0-.473-.336-1.146.479-1.366a1.869,1.869,0,0,1,.179,1.267c-.642.419-.644.835.005,1.249.019.292.055.583.055.875q0,22.583,0,45.166c0,.291-.036.583-.055.875C3230.188-63.982,3230.583-63.38,3230.478-62.949Z" transform="translate(-93.16 -18.681)" fill="#121213"/>
      <path id="Trazado_561358" data-name="Trazado 561358" d="M3221.892-129.443a.827.827,0,0,1-.852-.4,7.533,7.533,0,0,0-2.125-2.725c-.218-.163-.081-.37.059-.537A6.788,6.788,0,0,1,3221.892-129.443Z" transform="translate(-84.654 -4.125)" fill="#161717"/>
      <path id="Trazado_561359" data-name="Trazado 561359" d="M3112.507,105.233a4.258,4.258,0,0,1,2.769,2.223A5.806,5.806,0,0,1,3112.507,105.233Z" transform="translate(-5.18 -182.322)" fill="#121213"/>
      <path id="Trazado_561360" data-name="Trazado 561360" d="M3221.385,103.1a7.983,7.983,0,0,1,1.509-2.383c.068-.1.256.128.323.28A4.684,4.684,0,0,1,3221.385,103.1Z" transform="translate(-86.586 -178.929)" fill="#161717"/>
      <path id="Trazado_561361" data-name="Trazado 561361" d="M3109.105-124.735c.542.046.575.32.358.745s-.383.965-1.044.537A2.249,2.249,0,0,1,3109.105-124.735Z" transform="translate(-2.124 -10.381)" fill="#090909"/>
      <path id="Trazado_561362" data-name="Trazado 561362" d="M3108.413,97.8c.66-.426.821.1,1.045.536.217.425.185.7-.357.746A2.278,2.278,0,0,1,3108.413,97.8Z" transform="translate(-2.119 -176.643)" fill="#090909"/>
      <path id="Trazado_561363" data-name="Trazado 561363" d="M3114.009-132.445a1.432,1.432,0,0,1-1.511,1.47A3.792,3.792,0,0,1,3114.009-132.445Z" transform="translate(-5.173 -4.616)" fill="#161717"/>
      <path id="Trazado_561364" data-name="Trazado 561364" d="M3231.323,83.525c.105-.43-.29-1.033.431-1.252l-.018,1.5-.41.013Z" transform="translate(-94.004 -165.155)"/>
      <path id="Trazado_561365" data-name="Trazado 561365" d="M3230.745,88.225l.41-.013a2.343,2.343,0,0,1-.206,1.3C3230.1,89.205,3230.809,88.654,3230.745,88.225Z" transform="translate(-93.423 -169.596)" fill="#121213"/>
      <path id="Trazado_561366" data-name="Trazado 561366" d="M3105.8-108.624c.627.421.635.839,0,1.256Z" transform="translate(-0.161 -22.426)"/>
      <path id="Trazado_561367" data-name="Trazado 561367" d="M3231.633-107.361c-.65-.414-.648-.83-.006-1.249Z" transform="translate(-93.884 -22.437)"/>
      <path id="Trazado_561368" data-name="Trazado 561368" d="M3105.794,82.26c.636.416.635.834,0,1.255Z" transform="translate(-0.161 -165.146)"/>
      <path id="Trazado_561369" data-name="Trazado 561369" d="M3216.23-134.972c-.588.372-.838.149-.857-.484A1.386,1.386,0,0,1,3216.23-134.972Z" transform="translate(-82.091 -2.365)" fill="#161717"/>
      <path id="Trazado_561370" data-name="Trazado 561370" d="M3215.373,112.062c.01-.741.406-.789.967-.539A1.842,1.842,0,0,1,3215.373,112.062Z" transform="translate(-82.091 -186.923)" fill="#161717"/>
      <path id="Trazado_561371" data-name="Trazado 561371" d="M3113.408-80.306c0-7.4.017-14.792-.021-22.187-.005-.957.2-1.267,1.223-1.261q12.919.069,25.838,0c1.032-.006,1.221.312,1.219,1.264q-.042,22.251,0,44.5c0,.915-.185,1.2-1.159,1.2q-12.982-.063-25.964,0c-.978,0-1.161-.288-1.157-1.2C3113.424-65.43,3113.408-72.868,3113.408-80.306Z" transform="translate(-5.838 -26.067)" fill="#8cb7e8"/>
      <path id="Trazado_561372" data-name="Trazado 561372" d="M3119.25-130.717h18.163a6.086,6.086,0,0,1,4.623,3.774c.318.766.31,1.089-.7,1.084q-12.963-.055-25.926,0c-1.033,0-1.091-.3-.748-1.14A6.21,6.21,0,0,1,3119.25-130.717Zm9.064,1.323c-.647.129-1.085.464-1.042,1.163a1,1,0,0,0,1.149,1.022,1,1,0,0,0,.982-1.073C3129.4-128.978,3128.962-129.3,3128.315-129.394Z" transform="translate(-6.648 -5.907)" fill="#d4e3f4"/>
      <path id="Trazado_561373" data-name="Trazado 561373" d="M3135.841,94.966q-7.385-.023-14.77-.05c-.792,0-1.583-.053-2.375-.082a6.185,6.185,0,0,1-4.139-3.713c-.256-.67-.333-1.046.637-1.042q13.074.043,26.149.008c.592,0,1,.053.806.792l-.208.508a6.241,6.241,0,0,1-4.588,3.552l-.5.022Zm-1.032-1.422c1.052-.881,1.052-1.191,0-2.086-.185-.391-.546-.328-.874-.328q-5.662,0-11.323,0c-.327,0-.688-.063-.875.327-1.053.893-1.052,1.212.005,2.09.163.4.519.356.846.356q5.685,0,11.371,0C3134.293,93.9,3134.648,93.948,3134.809,93.544Z" transform="translate(-6.589 -170.992)" fill="#d0deee"/>
      <path id="Trazado_561374" data-name="Trazado 561374" d="M3223.58,93.756l.208-.508C3224.145,93.592,3223.91,93.693,3223.58,93.756Z" transform="translate(-88.227 -173.361)" fill="#161717"/>
      <path id="Trazado_561375" data-name="Trazado 561375" d="M3199.4,109.433l1.01-.005C3200.077,110.137,3199.741,110.136,3199.4,109.433Z" transform="translate(-70.148 -185.458)" fill="#040405"/>
      <path id="Trazado_561376" data-name="Trazado 561376" d="M3166.241-125.472c.647.093,1.087.416,1.089,1.113a1,1,0,0,1-.983,1.073,1,1,0,0,1-1.149-1.022C3165.156-125.008,3165.594-125.343,3166.241-125.472Z" transform="translate(-44.574 -9.83)" fill="#111214"/>
      <path id="Trazado_561377" data-name="Trazado 561377" d="M3154.259,95.541c1.048.895,1.047,1.2,0,2.086l-13.062,0c-1.057-.878-1.058-1.2-.005-2.09Zm-12.79.483.034.129h12.49v-.129Zm.293.987-.047.128h11.969V97.01Z" transform="translate(-26.034 -175.074)" fill="#111214"/>
      <path id="Trazado_561378" data-name="Trazado 561378" d="M3156.6,94.562l-13.071,0c.186-.39.547-.326.874-.327q5.662,0,11.324,0C3156.05,94.234,3156.411,94.171,3156.6,94.562Z" transform="translate(-28.372 -174.095)" fill="#e5f6fe"/>
      <path id="Trazado_561379" data-name="Trazado 561379" d="M3143.545,103.815l13.062,0c-.16.4-.516.359-.844.359q-5.685,0-11.371,0C3144.063,104.171,3143.707,104.218,3143.545,103.815Z" transform="translate(-28.387 -181.259)" fill="#e6f7fe"/>
      <path id="Trazado_561380" data-name="Trazado 561380" d="M3144.64,97.46h12.525v.129h-12.49Z" transform="translate(-29.205 -176.51)" fill="#0b0c0c"/>
      <path id="Trazado_561381" data-name="Trazado 561381" d="M3145.662,101.37h11.921v.128h-11.969Z" transform="translate(-29.934 -179.434)" fill="#0b0c0c"/>
    </g>
  </g>
</svg>
