<svg id="Layer_2" data-name="Layer 2" xmlns="http://www.w3.org/2000/svg" width="146" height="142.35" viewBox="0 0 146 142.35">
  <g id="Surfaces">
    <g id="Photo_Surface" data-name="Photo Surface">
      <g id="Outline_no_shadow" data-name="Outline no shadow">
        <path id="Trazado_562643" data-name="Trazado 562643" d="M25.854,0h94.292A25.832,25.832,0,0,1,146,25.854V116.5a25.832,25.832,0,0,1-25.854,25.854H25.854A25.832,25.832,0,0,1,0,116.5V25.854A25.832,25.832,0,0,1,25.854,0Z" fill="#001e36"/>
      </g>
    </g>
  </g>
  <g id="Outlined_Mnemonics_Logos" data-name="Outlined Mnemonics Logos" transform="translate(32.85 36.196)">
    <g id="Ps">
      <path id="Trazado_562644" data-name="Trazado 562644" d="M54,123.132v-62.6c0-.426.182-.669.608-.669,1.034,0,2.007,0,3.407-.061,1.46-.061,2.981-.061,4.623-.122s3.407-.061,5.292-.122,3.711-.061,5.536-.061A35.77,35.77,0,0,1,86,61.386a21.724,21.724,0,0,1,8.152,4.988,19.369,19.369,0,0,1,4.441,6.935,23.284,23.284,0,0,1,1.4,7.908q0,7.847-3.65,12.957a20.841,20.841,0,0,1-9.794,7.422,39.426,39.426,0,0,1-13.687,2.068c-1.46,0-2.433,0-3.042-.061s-1.46-.061-2.616-.061v19.528a.757.757,0,0,1-.669.852H54.73C54.243,123.923,54,123.679,54,123.132ZM67.262,71.606v20.44c.852.061,1.642.122,2.373.122h3.224a22.724,22.724,0,0,0,7-1.095,10.462,10.462,0,0,0,4.988-3.224,9.4,9.4,0,0,0,1.886-6.266,10.013,10.013,0,0,0-1.4-5.414A8.822,8.822,0,0,0,81.071,72.7a17.851,17.851,0,0,0-7.178-1.217c-1.582,0-2.981,0-4.137.061a13.929,13.929,0,0,0-2.494.061Z" transform="translate(-54 -59.5)" fill="#31a8ff"/>
      <path id="Trazado_562645" data-name="Trazado 562645" d="M171.746,98.048a21.531,21.531,0,0,0-5.84-2.068,32.069,32.069,0,0,0-6.813-.791,12.248,12.248,0,0,0-3.65.426,3.124,3.124,0,0,0-1.886,1.217,3.224,3.224,0,0,0-.487,1.643,2.706,2.706,0,0,0,.608,1.582,6.865,6.865,0,0,0,2.068,1.643c1.4.73,2.859,1.4,4.319,2.007a44.062,44.062,0,0,1,9.368,4.441,14.155,14.155,0,0,1,4.806,5.049,13.132,13.132,0,0,1,1.4,6.266,14.154,14.154,0,0,1-2.372,8.091,15.244,15.244,0,0,1-6.813,5.414,27.873,27.873,0,0,1-11.011,1.947,41.9,41.9,0,0,1-8.273-.791,24.539,24.539,0,0,1-6.205-1.947,1.2,1.2,0,0,1-.669-1.156V120.435a.66.66,0,0,1,.243-.548.463.463,0,0,1,.548.061,26.04,26.04,0,0,0,7.543,2.981,28.32,28.32,0,0,0,7.178.912,11.611,11.611,0,0,0,5.049-.852,2.826,2.826,0,0,0,1.642-2.555,3.223,3.223,0,0,0-1.46-2.433,25.8,25.8,0,0,0-5.962-2.859,37.22,37.22,0,0,1-8.638-4.38,15.751,15.751,0,0,1-4.623-5.171,13.053,13.053,0,0,1-1.4-6.205,14.308,14.308,0,0,1,2.068-7.361,15,15,0,0,1,6.387-5.6A23.59,23.59,0,0,1,159.64,84.3a52.443,52.443,0,0,1,7.543.548,21.4,21.4,0,0,1,5.232,1.4,1.069,1.069,0,0,1,.608.547,3.053,3.053,0,0,1,.122.73V97.44a.749.749,0,0,1-.3.608A1.621,1.621,0,0,1,171.746,98.048Z" transform="translate(-87.796 -69.213)" fill="#31a8ff"/>
    </g>
  </g>
</svg>
